<svg width="342" height="192" viewBox="0 0 342 192" fill="none" xmlns="http://www.w3.org/2000/svg">
<g clip-path="url(#clip0_1290_2837)">
<path opacity="0.1" d="M36.1778 95.3604C24.2435 159.84 89.0988 211.094 149.59 164.392C255.414 82.7026 203.028 114.916 259.849 124.445C316.671 133.974 321.766 38.8626 276.148 40.0893C230.53 41.316 216.512 79.2182 168.845 44.3026C121.179 9.38707 46.135 41.636 36.1778 95.3604Z" fill="#2A94F4"/>
<path d="M159.868 192C200.487 192 233.416 159.136 233.416 118.596C233.416 78.0557 200.487 45.1914 159.868 45.1914C119.249 45.1914 86.3203 78.0557 86.3203 118.596C86.3203 159.136 119.249 192 159.868 192Z" fill="#CCE9FF"/>
<path d="M78.2498 102.632C84.3098 102.632 89.2223 97.7287 89.2223 91.6806C89.2223 85.6325 84.3098 80.7295 78.2498 80.7295C72.1899 80.7295 67.2773 85.6325 67.2773 91.6806C67.2773 97.7287 72.1899 102.632 78.2498 102.632Z" fill="#0B4870"/>
<path d="M85.1077 71.9817C88.3147 71.9817 90.9145 69.387 90.9145 66.1862C90.9145 62.9854 88.3147 60.3906 85.1077 60.3906C81.9006 60.3906 79.3008 62.9854 79.3008 66.1862C79.3008 69.387 81.9006 71.9817 85.1077 71.9817Z" fill="#FFBE55"/>
<path d="M96.7402 85.298C97.8026 85.298 98.6639 84.4384 98.6639 83.378C98.6639 82.3176 97.8026 81.458 96.7402 81.458C95.6777 81.458 94.8164 82.3176 94.8164 83.378C94.8164 84.4384 95.6777 85.298 96.7402 85.298Z" fill="#0B4870"/>
<path d="M129.461 47.0937C129.461 47.0937 127.608 32.2137 132.275 25.4226C138.367 16.5871 155.645 14.1159 163.892 18.9871C173.012 24.3737 180.28 38.2759 177.091 50.4537C190.647 54.347 193.889 69.7248 184.359 73.6715L192.517 91.1115C197.594 101.956 192.41 114.916 180.761 120.516L159.902 130.543C159.902 130.543 121.409 136.587 113.786 118.791C106.162 100.996 121.089 88.0182 121.089 88.0182C121.089 88.0182 108.905 74.507 114.712 61.3337C120.537 48.1604 129.461 47.0937 129.461 47.0937Z" fill="#0B4870"/>
<path d="M188.651 98.0806C188.651 98.0806 223.635 103.609 233.111 103.201C240.539 103.609 252.776 63.0228 253.845 60.5339C259.777 56.8183 261.255 51.7339 261.166 48.925C261.077 46.1161 253.507 43.7517 252.776 45.1739C254.023 41.4583 254.308 40.285 254.647 39.005C255.359 36.3561 253.329 34.3472 250.425 44.3206C247.557 54.1517 247.842 52.5339 247.148 56.0006C242.463 64.9783 230.386 85.9206 229.567 89.085C213.91 88.7117 187.387 82.6317 187.387 82.6317L188.651 98.0806Z" fill="#FFE3CA"/>
<path d="M118.595 88.6055C118.595 88.6055 102.012 119.663 98.7876 128.339C95.5813 134.792 128.891 164.517 130.761 166.668C131.919 173.726 134.983 176.161 137.583 177.423C140.184 178.668 145.225 173.032 144.209 171.717C147.149 174.597 148.11 175.397 149.144 176.321C151.299 178.205 153.917 177.352 145.884 170.028C137.957 162.792 139.347 163.823 136.425 161.548C129.977 153.103 115.371 132.374 112.788 130.134C119.076 116.321 134.751 95.4677 134.751 95.4677L118.595 88.6055Z" fill="#FFE3CA"/>
<path d="M156.59 192L166.262 150.115L182.739 159.964C182.739 159.964 184.075 172.017 185.785 187.644C185.785 187.644 172.888 192.302 156.59 192Z" fill="#0B4870"/>
<path d="M173.209 190.72C175.845 174.827 177.947 162.027 177.947 162.027C177.947 162.027 132.864 155.769 132.703 168.071C132.65 171.84 133.095 179.094 134.146 187.378C157.855 194.987 173.209 190.72 173.209 190.72Z" fill="#0E538C"/>
<path d="M173.547 109.707C172.211 112.801 182.346 155.752 184.039 165.654C184.039 165.654 183.825 165.618 183.415 165.547C179.015 164.89 152.101 161.352 130.352 170.401L128.357 109.725L128.268 107.467C128.268 107.467 128.268 105.174 128.481 101.672V101.636C128.98 94.4185 130.476 82.2407 135.125 74.4185C137.53 70.3652 140.719 67.4674 145.083 67.0407C158.602 65.7074 158.531 71.2363 171.089 74.3296L191.466 79.3785C191.466 79.3785 189.186 95.1474 191.466 99.8407H177.323C177.323 99.8229 174.865 106.578 173.547 109.707Z" fill="#FFBE55"/>
<path d="M165.78 26.5605C165.78 26.5605 178.178 45.1205 171.676 54.1872C166.813 60.9783 158.655 64.5339 158.655 64.5339V74.3117C158.655 74.3117 157.675 75.1828 155.965 75.2717C152.991 75.4317 145.082 70.6672 145.082 70.6672V32.1605L165.78 26.5605Z" fill="#FFE3CA"/>
<path d="M128.32 112.213C128.32 112.213 147.024 90.5779 144.049 80.1601C141.074 69.7424 126.931 73.3157 119.022 85.3157C111.114 97.3157 107.979 101.422 107.979 101.422C107.979 101.422 116.119 112.409 128.32 112.213Z" fill="#FFBE55"/>
<path d="M165.745 24.8008C165.745 24.8008 166.707 44.1252 157.373 48.8008C148.039 53.4763 155.093 64.9963 146.205 73.6008C143.568 76.143 139.65 75.7163 136.639 74.8274C132.329 73.5474 127.395 74.4719 124.384 77.583C124.099 77.8852 123.832 78.2052 123.618 78.5252C112.076 70.9163 141.324 28.623 141.324 28.623L165.745 24.8008Z" fill="#0B4870"/>
<path d="M199.641 130.453C195.597 136.693 193.246 144.124 193.246 152.106C193.246 174.133 211.148 192 233.217 192C255.287 192 273.189 174.133 273.189 152.106C273.189 130.08 255.287 112.213 233.217 112.213C223.474 112.213 214.532 115.697 207.603 121.493L194.048 117.92L199.641 130.453Z" fill="#FFBE55"/>
<path d="M246.56 10.9511C246.56 16.9956 241.644 24.8 235.588 24.8C229.531 24.8 224.615 16.9956 224.615 10.9511C224.615 4.90667 229.514 0 235.588 0C241.662 0 246.56 4.90667 246.56 10.9511Z" fill="#FFBE55"/>
<path d="M235.926 29.7598C234.804 29.7598 233.753 28.9776 232.827 27.4309C232.167 26.3287 232.666 23.0043 233.201 19.4843C233.343 18.5598 233.468 17.6532 233.592 16.8354C232.809 14.3998 232.987 12.8176 233.325 12.3554C233.45 12.1776 233.628 12.1243 233.788 12.1954C234.109 12.3554 234.287 13.031 234.287 14.1154C234.287 14.8265 234.198 15.7332 234.073 16.7465C234.127 16.9243 234.198 17.1021 234.269 17.2976C234.911 19.0043 235.552 18.631 235.766 18.4887C236.282 18.1865 236.781 17.3332 237.155 16.3554C237.012 14.151 237.173 12.5687 237.422 12.1065C237.547 11.8576 237.707 11.8398 237.778 11.8398C238.028 11.8576 238.152 12.1954 238.188 12.3021C238.509 13.1554 238.224 14.951 237.636 16.4798C237.814 19.0576 238.42 22.5954 239.916 26.3109L239.987 26.4709L239.898 26.6132C239.827 26.7376 238.17 29.6709 235.979 29.7065C235.962 29.7598 235.944 29.7598 235.926 29.7598ZM233.913 17.7776C233.824 18.3643 233.735 18.9687 233.646 19.591C233.183 22.6843 232.648 26.1687 233.183 27.0576C234.038 28.4621 234.964 29.1732 235.944 29.1554C237.636 29.1198 239.043 27.0221 239.399 26.4532C238.099 23.1821 237.458 19.9821 237.208 17.4221C236.834 18.1687 236.389 18.7732 235.926 19.0398C235.498 19.3243 234.643 19.5021 233.913 17.7776ZM233.628 12.7998C233.503 13.031 233.343 13.9732 233.717 15.591C233.771 15.0398 233.806 14.5421 233.806 14.1332C233.806 13.2976 233.682 12.9243 233.628 12.7998ZM237.743 12.5865C237.636 12.9421 237.529 13.831 237.547 15.111C237.832 14.0798 237.939 13.0843 237.743 12.5865Z" fill="white"/>
<path d="M235.588 31.2535C233.379 31.2535 231.544 29.5824 231.366 27.3957L230.992 23.2002L232.114 23.6269C234.412 24.498 236.942 24.4802 239.222 23.5735L240.166 23.2002L239.792 27.3957C239.613 29.5824 237.779 31.2535 235.588 31.2535Z" fill="#0B4870"/>
<path d="M280.956 31.8759C279.674 34.9159 275.541 37.8137 272.495 36.5337C269.449 35.2537 268.63 30.2937 269.913 27.2359C271.195 24.1959 274.704 22.7559 277.768 24.0359C280.832 25.3159 282.239 28.8181 280.956 31.8759Z" fill="#FFBE55"/>
<path d="M271.604 39.094C271.034 38.8629 270.678 38.2407 270.535 37.2629C270.429 36.5696 271.39 35.0051 272.406 33.3518C272.673 32.9251 272.922 32.4985 273.154 32.1074C273.279 30.7207 273.706 29.9562 273.973 29.7962C274.08 29.7251 274.169 29.7429 274.24 29.814C274.365 29.9562 274.312 30.3474 274.08 30.8807C273.938 31.2362 273.688 31.6807 273.403 32.1607C273.403 32.2674 273.385 32.374 273.385 32.4807C273.35 33.4762 273.742 33.4229 273.884 33.4051C274.205 33.3518 274.632 33.0318 275.042 32.6229C275.434 31.4851 275.861 30.7207 276.075 30.5429C276.182 30.454 276.271 30.4718 276.307 30.4896C276.431 30.5607 276.414 30.7385 276.414 30.8096C276.396 31.3074 275.861 32.1429 275.238 32.8007C274.775 34.134 274.33 36.0362 274.312 38.2229V38.3118L274.24 38.3651C274.187 38.4185 272.726 39.5385 271.622 39.094C271.622 39.094 271.622 39.094 271.604 39.094ZM273.136 32.6407C272.976 32.9251 272.798 33.2096 272.62 33.494C271.729 34.9518 270.731 36.6051 270.803 37.1562C270.927 38.0451 271.248 38.5962 271.747 38.7918C272.602 39.1296 273.76 38.3651 274.062 38.1518C274.098 36.2318 274.454 34.4896 274.882 33.1385C274.543 33.4407 274.187 33.6362 273.902 33.6896C273.599 33.7429 273.136 33.654 273.136 32.6407ZM274.045 30.0629C273.938 30.1518 273.653 30.5962 273.51 31.4851C273.653 31.2185 273.777 30.9696 273.866 30.774C274.027 30.3651 274.062 30.1518 274.045 30.0629ZM276.164 30.8274C276.04 30.9874 275.79 31.414 275.541 32.054C275.897 31.6096 276.164 31.1296 276.164 30.8274Z" fill="white"/>
<path d="M271.124 39.7692C270.02 39.307 269.45 38.0803 269.806 36.9425L270.518 34.7559L270.999 35.2003C271.961 36.1247 273.244 36.6403 274.58 36.6759L275.132 36.6936L274.063 38.7203C273.511 39.787 272.228 40.2314 271.124 39.7692Z" fill="#0B4870"/>
<path d="M238.259 49.2617C238.473 51.7151 236.781 55.0573 234.323 55.2706C231.865 55.484 229.584 52.5151 229.371 50.0617C229.157 47.6084 230.956 45.4395 233.414 45.2262C235.872 45.0128 238.028 46.8084 238.259 49.2617Z" fill="#FFBE55"/>
<path d="M234.626 57.2617C234.163 57.2973 233.717 57.0306 233.29 56.4262C232.987 55.9995 233.058 54.6306 233.148 53.1906C233.165 52.8173 233.183 52.444 233.201 52.1062C232.791 51.1462 232.809 50.5062 232.934 50.3106C232.987 50.2395 233.041 50.204 233.112 50.2217C233.254 50.2751 233.343 50.5417 233.379 50.9862C233.397 51.2706 233.397 51.644 233.379 52.0706C233.415 52.1417 233.45 52.2129 233.486 52.284C233.807 52.9595 234.056 52.7817 234.127 52.7106C234.323 52.5684 234.501 52.2129 234.608 51.804C234.466 50.9151 234.483 50.2751 234.555 50.0795C234.59 49.9729 234.662 49.9551 234.697 49.9551C234.804 49.9551 234.857 50.0795 234.875 50.1329C235.036 50.4706 234.982 51.1995 234.804 51.8573C234.964 52.8884 235.338 54.3106 236.087 55.7506L236.122 55.8217L236.087 55.8929C236.069 55.9462 235.499 57.1906 234.608 57.2973C234.644 57.2617 234.644 57.2617 234.626 57.2617ZM233.379 52.4795C233.361 52.7106 233.343 52.9773 233.343 53.2262C233.272 54.4884 233.183 55.9284 233.433 56.2662C233.824 56.7995 234.234 57.0662 234.626 57.0129C235.303 56.9417 235.802 56.0351 235.926 55.7862C235.285 54.5062 234.911 53.2262 234.697 52.1951C234.572 52.5151 234.412 52.764 234.234 52.9062C234.074 53.0484 233.735 53.1551 233.379 52.4795ZM233.076 50.4706C233.023 50.5773 233.005 50.9684 233.219 51.5906C233.219 51.3595 233.219 51.164 233.201 51.004C233.165 50.6662 233.112 50.524 233.076 50.4706ZM234.751 50.2395C234.715 50.3817 234.715 50.7551 234.768 51.2706C234.84 50.844 234.84 50.4351 234.751 50.2395Z" fill="white"/>
<path d="M234.555 57.8844C233.664 57.9733 232.863 57.3511 232.702 56.48L232.399 54.7911L232.863 54.9155C233.824 55.1822 234.858 55.0755 235.748 54.6311L236.122 54.4355V56.1422C236.122 57.0667 235.445 57.8133 234.555 57.8844Z" fill="#0B4870"/>
</g>
<defs>
<clipPath id="clip0_1290_2837">
<rect width="342" height="192" fill="white"/>
</clipPath>
</defs>
</svg>
