<svg width="106" height="63" viewBox="0 0 106 63" fill="none" xmlns="http://www.w3.org/2000/svg">
<g id="Group 177">
<g id="Union">
<mask id="path-1-inside-1_1290_2981" fill="white">
<path fill-rule="evenodd" clip-rule="evenodd" d="M0 43.3754C0 53.9166 8.42792 62.4895 18.9131 62.7232V62.7283H87.5272V62.6333C97.894 61.6378 106 52.9033 106 42.2755C106 31.6476 97.8938 22.913 87.5268 21.9177V21.8232H87.3179C83.2448 9.31295 71.4872 0.271484 57.6179 0.271484C42.398 0.271484 29.7211 11.1596 26.9516 25.5715C24.6187 24.5745 22.0501 24.0227 19.3527 24.0227C8.6645 24.0227 0 32.6872 0 43.3754Z"/>
</mask>
<path d="M18.9131 62.7232H20.9131V60.7672L18.9577 60.7237L18.9131 62.7232ZM18.9131 62.7283H16.9131V64.7283H18.9131V62.7283ZM87.5272 62.7283V64.7283H89.5272V62.7283H87.5272ZM87.5272 62.6333L87.336 60.6424L85.5272 60.8161V62.6333H87.5272ZM87.5268 21.9177H85.5268V23.7349L87.3357 23.9086L87.5268 21.9177ZM87.5268 21.8232H89.5268V19.8232H87.5268V21.8232ZM87.3179 21.8232L85.4162 22.4424L85.8658 23.8232H87.3179V21.8232ZM26.9516 25.5715L26.1656 27.4106L28.4474 28.3858L28.9157 25.949L26.9516 25.5715ZM18.9577 60.7237C9.55698 60.5141 2 52.827 2 43.3754H-2C-2 55.0063 7.29886 64.4648 18.8685 64.7227L18.9577 60.7237ZM20.9131 62.7283V62.7232H16.9131V62.7283H20.9131ZM87.5272 60.7283H18.9131V64.7283H87.5272V60.7283ZM85.5272 62.6333V62.7283H89.5272V62.6333H85.5272ZM104 42.2755C104 51.8629 96.687 59.7445 87.336 60.6424L87.7184 64.6241C99.1011 63.5311 108 53.9438 108 42.2755H104ZM87.3357 23.9086C96.6868 24.8063 104 32.6881 104 42.2755H108C108 30.6071 99.1009 21.0197 87.7179 19.9269L87.3357 23.9086ZM85.5268 21.8232V21.9177H89.5268V21.8232H85.5268ZM87.3179 23.8232H87.5268V19.8232H87.3179V23.8232ZM57.6179 2.27148C70.5959 2.27148 81.6032 10.7313 85.4162 22.4424L89.2197 21.2041C84.8863 7.89463 72.3785 -1.72852 57.6179 -1.72852V2.27148ZM28.9157 25.949C31.5076 12.4611 43.3749 2.27148 57.6179 2.27148V-1.72852C41.421 -1.72852 27.9346 9.8581 24.9875 25.1941L28.9157 25.949ZM19.3527 26.0227C21.7751 26.0227 24.0766 26.5179 26.1656 27.4106L27.7376 23.7324C25.1608 22.6312 22.3252 22.0227 19.3527 22.0227V26.0227ZM2 43.3754C2 33.7917 9.76907 26.0227 19.3527 26.0227V22.0227C7.55993 22.0227 -2 31.5826 -2 43.3754H2Z" fill="#333333" mask="url(#path-1-inside-1_1290_2981)"/>
</g>
<g id="Group 173">
<path id="Rectangle 424" d="M57.3418 41.7783L51.9085 47.2116C48.9078 50.2123 44.0428 50.2123 41.0421 47.2116V47.2116C38.0414 44.2109 38.0414 39.3458 41.0421 36.3451V36.3451C44.0428 33.3444 48.9078 33.3444 51.9085 36.3451L57.3418 41.7783Z" stroke="#466CB2" stroke-width="2"/>
<path id="Rectangle 425" d="M57.2324 41.7783L62.6657 36.3451C65.6664 33.3444 70.5315 33.3444 73.5322 36.3451V36.3451C76.5329 39.3458 76.5329 44.2109 73.5322 47.2116V47.2116C70.5315 50.2123 65.6664 50.2123 62.6657 47.2116L57.2324 41.7783Z" stroke="#466CB2" stroke-width="2"/>
</g>
<path id="Vector 21" d="M38.5 21.2715C39 17.2715 45.5 10.7715 50.5 10.2715" stroke="#333333" stroke-width="2" stroke-linecap="round"/>
</g>
</svg>
