<svg width="82" height="87" viewBox="0 0 82 87" fill="none" xmlns="http://www.w3.org/2000/svg">
<g id="Group 175">
<g id="Mask Group">
<mask id="mask0_1290_2954" style="mask-type:alpha" maskUnits="userSpaceOnUse" x="0" y="10" width="35" height="67">
<rect id="Rectangle 423" y="10" width="35" height="67" fill="#C4C4C4"/>
</mask>
<g mask="url(#mask0_1290_2954)">
<g id="Group 169">
<path id="Union" d="M28.6569 11V10H27.8159L27.6717 10.8285L28.6569 11ZM34.5 11H35.5V10H34.5V11ZM27.6791 16.6172L27.8898 17.5948L28.5487 17.4528L28.6643 16.7887L27.6791 16.6172ZM19.8271 19.6346L19.2517 20.4525L19.7726 20.819L20.325 20.5018L19.8271 19.6346ZM14.6603 15.9998L15.2357 15.1819L14.5479 14.6981L13.9532 15.2927L14.6603 15.9998ZM7 23.6602L6.29289 22.953L5.69823 23.5477L6.18211 24.2355L7 23.6602ZM10.4269 28.5314L11.2653 29.0764L11.634 28.5093L11.2448 27.956L10.4269 28.5314ZM6.90352 36.4823L7.075 37.4675L7.70727 37.3574L7.8706 36.7368L6.90352 36.4823ZM1 37.5098L0.828521 36.5246L0 36.6688V37.5098H1ZM1 48.3431H0V49.1841L0.828521 49.3283L1 48.3431ZM6.61724 49.3209L7.59479 49.1102L7.45279 48.4513L6.78872 48.3357L6.61724 49.3209ZM9.9873 57.7697L10.8052 58.345L11.1819 57.8095L10.8417 57.25L9.9873 57.7697ZM7.03806 61.9619L6.22017 61.3866L5.73629 62.0744L6.33095 62.669L7.03806 61.9619ZM14.6984 69.6223L13.9913 70.3294L14.5859 70.924L15.2738 70.4402L14.6984 69.6223ZM18.7935 66.7414L19.329 65.8969L18.7646 65.539L18.2181 65.9235L18.7935 66.7414ZM27.6791 70.3828L28.6643 70.2113L28.5487 69.5472L27.8898 69.4052L27.6791 70.3828ZM28.6569 76L27.6717 76.1715L27.8159 77H28.6569V76ZM34.5 76V77H35.5V76H34.5ZM34.5 56.6342L35.0754 55.8163L33.5 54.7081V56.6342H34.5ZM52.9619 69.6221L52.3866 70.44L53.0744 70.9239L53.6691 70.3292L52.9619 69.6221ZM60.6223 61.9618L61.3294 62.6689L61.924 62.0742L61.4402 61.3864L60.6223 61.9618ZM52.6734 50.6627L52.502 49.6775L50.948 49.948L51.8556 51.2381L52.6734 50.6627ZM66 48.3431L66.1715 49.3283L67 49.1841V48.3431H66ZM66 37.5098H67V36.6688L66.1715 36.5246L66 37.5098ZM52.5627 35.1709L51.7448 34.5956L50.8372 35.8857L52.3912 36.1561L52.5627 35.1709ZM60.6603 23.6603L61.4782 24.2357L61.9621 23.5479L61.3674 22.9532L60.6603 23.6603ZM53 16L53.7071 15.2929L53.1124 14.6982L52.4246 15.1821L53 16ZM34.5 29.0147H33.5V30.9408L35.0754 29.8325L34.5 29.0147ZM28.6569 12H34.5V10H28.6569V12ZM28.6643 16.7887L29.642 11.1715L27.6717 10.8285L26.6939 16.4458L28.6643 16.7887ZM20.325 20.5018C22.6485 19.1678 25.1929 18.176 27.8898 17.5948L27.4685 15.6397C24.5662 16.2651 21.8284 17.3324 19.3291 18.7674L20.325 20.5018ZM14.0849 16.8177L19.2517 20.4525L20.4024 18.8167L15.2357 15.1819L14.0849 16.8177ZM7.70711 24.3673L15.3674 16.7069L13.9532 15.2927L6.29289 22.953L7.70711 24.3673ZM11.2448 27.956L7.81789 23.0848L6.18211 24.2355L9.609 29.1068L11.2448 27.956ZM7.8706 36.7368C8.59531 33.9828 9.75239 31.4037 11.2653 29.0764L9.58847 27.9864C7.96147 30.4891 6.71639 33.2639 5.93644 36.2278L7.8706 36.7368ZM1.17148 38.495L7.075 37.4675L6.73204 35.4971L0.828521 36.5246L1.17148 38.495ZM2 48.3431V37.5098H0V48.3431H2ZM6.78872 48.3357L1.17148 47.358L0.828521 49.3283L6.44576 50.3061L6.78872 48.3357ZM10.8417 57.25C9.33556 54.7736 8.22431 52.0314 7.59479 49.1102L5.63968 49.5315C6.31714 52.6752 7.51299 55.6258 9.13291 58.2893L10.8417 57.25ZM7.85594 62.5373L10.8052 58.345L9.16941 57.1943L6.22017 61.3866L7.85594 62.5373ZM15.4055 68.9152L7.74516 61.2548L6.33095 62.669L13.9913 70.3294L15.4055 68.9152ZM18.2181 65.9235L14.123 68.8044L15.2738 70.4402L19.3689 67.5593L18.2181 65.9235ZM27.8898 69.4052C24.8021 68.7398 21.9142 67.5362 19.329 65.8969L18.258 67.5859C21.0384 69.349 24.1456 70.6442 27.4685 71.3603L27.8898 69.4052ZM29.642 75.8285L28.6643 70.2113L26.6939 70.5542L27.6717 76.1715L29.642 75.8285ZM34.5 75H28.6569V77H34.5V75ZM33.5 56.6342V76H35.5V56.6342H33.5ZM53.5373 68.8042L35.0754 55.8163L33.9246 57.4521L52.3866 70.44L53.5373 68.8042ZM59.9152 61.2547L52.2548 68.915L53.6691 70.3292L61.3294 62.6689L59.9152 61.2547ZM51.8556 51.2381L59.8044 62.5372L61.4402 61.3864L53.4913 50.0873L51.8556 51.2381ZM65.8285 47.358L52.502 49.6775L52.8449 51.6479L66.1715 49.3283L65.8285 47.358ZM65 37.5098V48.3431H67V37.5098H65ZM52.3912 36.1561L65.8285 38.495L66.1715 36.5246L52.7341 34.1858L52.3912 36.1561ZM59.8424 23.0849L51.7448 34.5956L53.3806 35.7463L61.4782 24.2357L59.8424 23.0849ZM52.2929 16.7071L59.9532 24.3674L61.3674 22.9532L53.7071 15.2929L52.2929 16.7071ZM35.0754 29.8325L53.5754 16.8179L52.4246 15.1821L33.9246 28.1968L35.0754 29.8325ZM33.5 11V29.0147H35.5V11H33.5Z" fill="#333333"/>
<circle id="Ellipse 50" cx="33.5" cy="43.5" r="18.5" transform="rotate(-90 33.5 43.5)" fill="#F6F6F6" stroke="#333333" stroke-width="2"/>
</g>
</g>
</g>
<g id="Group 172">
<g id="Group 171">
<path id="Vector 15" d="M38.5 27.5H66L77.5 16" stroke="#466CB2" stroke-width="2"/>
<path id="Vector 16" d="M38.5 18.5H58.5V5" stroke="#466CB2" stroke-width="2"/>
<path id="Vector 17" d="M38.5 36.5H66H78" stroke="#466CB2" stroke-width="2"/>
<circle id="Ellipse 191" cx="58.5" cy="4.5" r="3.5" fill="#F6F6F6" stroke="#466CB2" stroke-width="2"/>
<circle id="Ellipse 192" cx="77.5" cy="15.5" r="3.5" fill="#F6F6F6" stroke="#466CB2" stroke-width="2"/>
<circle id="Ellipse 193" cx="77.5" cy="36.5" r="3.5" fill="#F6F6F6" stroke="#466CB2" stroke-width="2"/>
</g>
<g id="Group 170">
<path id="Vector 18" d="M38.5 59.5H66L77.5 71" stroke="#466CB2" stroke-width="2"/>
<path id="Vector 19" d="M38.5 68.5H58.5V82" stroke="#466CB2" stroke-width="2"/>
<path id="Vector 20" d="M38.5 50.5H66H78" stroke="#466CB2" stroke-width="2"/>
<circle id="Ellipse 194" cx="4.5" cy="4.5" r="3.5" transform="matrix(1 0 0 -1 54 87)" fill="#F6F6F6" stroke="#466CB2" stroke-width="2"/>
<circle id="Ellipse 195" cx="4.5" cy="4.5" r="3.5" transform="matrix(1 0 0 -1 73 76)" fill="#F6F6F6" stroke="#466CB2" stroke-width="2"/>
<circle id="Ellipse 196" cx="4.5" cy="4.5" r="3.5" transform="matrix(1 0 0 -1 73 55)" fill="#F6F6F6" stroke="#466CB2" stroke-width="2"/>
</g>
</g>
</g>
</svg>
