<svg xmlns="http://www.w3.org/2000/svg" width="212" height="170" fill="none" viewBox="0 0 212 170"><rect width="143" height="143" x="34.5" y="13.5" stroke="#EC1C2D" stroke-width="7" rx="71.5"/><path fill="#0063A8" d="M10 62h192l-6 22.5 6 22.5H10l6-22.5z"/><path fill="#fff" d="M91.124 80.169h-6.68c-.44-3.12-3.428-5.494-6.856-5.494-6.197 0-8.526 5.274-8.526 10.767 0 5.23 2.33 10.504 8.526 10.504 4.219 0 6.592-2.9 7.12-7.032h6.68c-.704 7.823-6.11 12.833-13.8 12.833-9.713 0-15.426-7.251-15.426-16.305 0-9.317 5.713-16.568 15.426-16.568 6.9 0 12.7 4.043 13.536 11.295M102.999 87.025v8.613h7.383c2.725 0 5.098-.879 5.098-4.13 0-3.209-2.021-4.483-4.966-4.483zM96.099 101V69.621h14.767c5.977 0 10.02 1.934 10.02 7.779 0 3.076-1.538 5.23-4.263 6.548 3.823 1.099 5.757 4.043 5.757 7.955 0 6.372-5.405 9.097-11.075 9.097zm6.9-26.017v7.34h6.988c2.417 0 4.219-1.1 4.219-3.736 0-2.989-2.285-3.604-4.747-3.604zM127.043 101V69.621h23.468v5.801h-16.568v6.724h15.206v5.362h-15.206v7.69h16.92V101z"/><rect width="154" height="154" x="29" y="8" stroke="#fff" stroke-width="4" rx="77"/><path fill="#EC1C2D" d="M45 117h125l-8 14.5-16.5 14.5H66l-15-14.5zM67 39l2.245 6.91h7.266l-5.878 4.27 2.245 6.91L67 52.82l-5.878 4.27 2.245-6.91-5.878-4.27h7.266zM106 39l2.245 6.91h7.266l-5.878 4.27 2.245 6.91L106 52.82l-5.878 4.27 2.245-6.91-5.878-4.27h7.266zM145 39l2.245 6.91h7.266l-5.878 4.27 2.245 6.91L145 52.82l-5.878 4.27 2.245-6.91-5.878-4.27h7.266z"/><path fill="#fff" d="M72.34 123.867h-1.563c0-1.129-.228-1.617-.934-1.617-.792 0-.976.792-.976 2.984 0 2.345.325 2.768.998 2.768.565 0 .977-.293.977-1.965h1.563c0 1.672-.413 3.115-2.464 3.115-2.344 0-2.637-1.671-2.637-4.026s.293-4.026 2.637-4.026c2.236 0 2.398 1.638 2.398 2.767M77.496 126.309h-2.963v.466c0 .684.184 1.357.738 1.357.499 0 .705-.38.792-1.096h1.346c-.055 1.356-.706 2.116-2.117 2.116-2.17 0-2.257-1.671-2.257-3.125 0-1.563.304-3.017 2.323-3.017 1.747 0 2.138 1.172 2.138 2.962zm-2.963-.89h1.53c-.032-.89-.141-1.389-.76-1.389-.596 0-.77.618-.77 1.161zM78.276 129v-5.838h1.432v.781h.022c.304-.564.727-.933 1.346-.933.087 0 .184.01.271.021v1.433a7 7 0 0 0-.467-.022c-.52 0-1.107.271-1.107 1.053V129zM82.215 123.162v-1.672h1.498v1.672h.868v1.02h-.868v3.158c0 .456.098.64.532.64.12 0 .238-.011.336-.022V129c-.326.033-.63.065-.977.065-1.172 0-1.389-.358-1.389-1.541v-3.342h-.76v-1.02zM85.155 129v-5.838h1.498V129zm0-6.555v-1.28h1.498v1.28zM90.986 129v-5.838h1.497V129zm0-6.555v-1.28h1.497v1.28zM88.034 129v-4.818h-.76v-1.02h.76v-.662c0-1.053.596-1.4 1.562-1.4.272 0 .532.01.803.032v1.064c-.097-.011-.195-.011-.293-.011-.423 0-.575.13-.575.467v.51h.868v1.02h-.868V129zM97.78 126.309h-2.962v.466c0 .684.184 1.357.737 1.357.5 0 .706-.38.793-1.096h1.346c-.055 1.356-.706 2.116-2.117 2.116-2.17 0-2.257-1.671-2.257-3.125 0-1.563.304-3.017 2.322-3.017 1.748 0 2.138 1.172 2.138 2.962zm-2.962-.89h1.53c-.033-.89-.141-1.389-.76-1.389-.597 0-.77.618-.77 1.161zM99.917 126.081c0 1.27.13 1.921.781 1.921.662 0 .793-.651.793-1.921s-.131-1.921-.793-1.921c-.651 0-.781.651-.781 1.921m1.639 2.919v-.618h-.022c-.326.542-.738.77-1.324.77-1.226 0-1.79-.901-1.79-3.071s.564-3.071 1.79-3.071c.564 0 .944.228 1.259.694h.022v-2.452h1.497V129zM106.637 129v-7.748h2.616c1.28 0 2.203.477 2.203 1.964 0 .835-.402 1.476-1.172 1.693v.022c.857.119 1.41.77 1.41 1.801 0 1.215-.596 2.268-2.42 2.268zm1.563-6.598v2.029h.445c.857 0 1.248-.293 1.248-1.02 0-.738-.358-1.009-1.129-1.009zm0 3.115v2.333h.608c.749 0 1.259-.271 1.259-1.172s-.51-1.161-1.194-1.161zM115.619 129v-.684h-.021c-.315.576-.858.836-1.487.836-.933 0-1.487-.51-1.487-1.66v-4.33h1.498v4.026c0 .586.195.814.64.814.51 0 .792-.315.792-.966v-3.874h1.498V129zM117.801 127.09h1.345v.195c0 .511.272.847.782.847.456 0 .759-.228.759-.695 0-.379-.249-.553-.542-.662l-1.053-.379c-.825-.293-1.248-.803-1.248-1.628 0-.966.608-1.758 2.149-1.758 1.356 0 1.997.607 1.997 1.66v.239h-1.346c0-.586-.174-.879-.662-.879-.38 0-.705.217-.705.629 0 .282.152.521.651.684l.901.304c.944.314 1.291.792 1.291 1.671 0 1.226-.912 1.834-2.17 1.834-1.683 0-2.149-.738-2.149-1.856zM122.927 129v-5.838h1.497V129zm0-6.555v-1.28h1.497v1.28zM125.48 129v-5.838h1.432v.683h.022c.315-.575.857-.835 1.487-.835.933 0 1.486.51 1.486 1.66V129h-1.497v-4.026c0-.586-.196-.814-.641-.814-.51 0-.792.315-.792.966V129zM135.149 126.309h-2.963v.466c0 .684.185 1.357.738 1.357.5 0 .706-.38.793-1.096h1.345c-.054 1.356-.705 2.116-2.116 2.116-2.17 0-2.257-1.671-2.257-3.125 0-1.563.304-3.017 2.322-3.017 1.747 0 2.138 1.172 2.138 2.962zm-2.963-.89h1.531c-.033-.89-.141-1.389-.76-1.389-.597 0-.771.618-.771 1.161zM135.68 127.09h1.345v.195c0 .511.272.847.782.847.456 0 .759-.228.759-.695 0-.379-.249-.553-.542-.662l-1.053-.379c-.825-.293-1.248-.803-1.248-1.628 0-.966.608-1.758 2.149-1.758 1.356 0 1.997.607 1.997 1.66v.239h-1.346c0-.586-.174-.879-.662-.879-.38 0-.705.217-.705.629 0 .282.152.521.651.684l.901.304c.944.314 1.291.792 1.291 1.671 0 1.226-.912 1.834-2.171 1.834-1.682 0-2.148-.738-2.148-1.856zM140.502 127.09h1.346v.195c0 .511.271.847.781.847.456 0 .76-.228.76-.695 0-.379-.25-.553-.543-.662l-1.053-.379c-.825-.293-1.248-.803-1.248-1.628 0-.966.608-1.758 2.149-1.758 1.357 0 1.997.607 1.997 1.66v.239h-1.346c0-.586-.173-.879-.662-.879-.38 0-.705.217-.705.629 0 .282.152.521.651.684l.901.304c.944.314 1.291.792 1.291 1.671 0 1.226-.912 1.834-2.17 1.834-1.683 0-2.149-.738-2.149-1.856zM64.77 133.252h4.33v1.28h-2.768v1.823h2.605v1.281h-2.605v2.084h2.876V141H64.77zM69.951 141v-5.838h1.433v.683h.021c.315-.575.858-.835 1.487-.835.933 0 1.487.51 1.487 1.66V141H72.88v-4.026c0-.586-.195-.814-.64-.814-.51 0-.792.315-.792.966V141zM75.703 135.162v-1.672H77.2v1.672h.869v1.02H77.2v3.158c0 .456.098.64.532.64.12 0 .239-.011.337-.022V141c-.326.033-.63.065-.977.065-1.172 0-1.39-.358-1.39-1.541v-3.342h-.759v-1.02zM82.832 138.309h-2.963v.466c0 .684.184 1.357.738 1.357.5 0 .705-.38.792-1.096h1.346c-.054 1.356-.706 2.116-2.116 2.116-2.17 0-2.258-1.671-2.258-3.125 0-1.563.304-3.017 2.323-3.017 1.747 0 2.138 1.172 2.138 2.962zm-2.963-.89h1.53c-.032-.89-.14-1.389-.76-1.389-.596 0-.77.618-.77 1.161zM83.612 141v-5.838h1.432v.781h.022c.304-.564.727-.933 1.346-.933.087 0 .184.01.271.021v1.433a7 7 0 0 0-.467-.022c-.52 0-1.106.271-1.106 1.053V141zM88.724 138.081c0 1.27.13 1.921.792 1.921.65 0 .781-.651.781-1.921s-.13-1.921-.781-1.921c-.662 0-.793.651-.793 1.921m-1.498 4.829v-7.748h1.432v.618h.022c.326-.542.738-.77 1.324-.77 1.226 0 1.79.9 1.79 3.071 0 2.17-.564 3.071-1.79 3.071-.564 0-.944-.228-1.259-.694h-.022v2.452zM92.652 141v-5.838h1.433v.781h.021c.304-.564.727-.933 1.346-.933.087 0 .184.01.271.021v1.433a7 7 0 0 0-.466-.022c-.521 0-1.107.271-1.107 1.053V141zM96.32 141v-5.838h1.498V141zm0-6.555v-1.28h1.498v1.28zM98.624 139.09h1.345v.195c0 .511.272.847.782.847.455 0 .759-.228.759-.695 0-.379-.249-.553-.542-.662l-1.053-.379c-.825-.293-1.248-.803-1.248-1.628 0-.966.608-1.758 2.149-1.758 1.356 0 1.997.607 1.997 1.66v.239h-1.346c0-.586-.174-.879-.662-.879-.38 0-.706.217-.706.629 0 .282.152.521.652.684l.9.304c.945.314 1.292.792 1.292 1.671 0 1.226-.912 1.834-2.171 1.834-1.682 0-2.148-.738-2.148-1.856zM107.939 138.309h-2.963v.466c0 .684.184 1.357.738 1.357.499 0 .705-.38.792-1.096h1.346c-.055 1.356-.706 2.116-2.116 2.116-2.171 0-2.258-1.671-2.258-3.125 0-1.563.304-3.017 2.323-3.017 1.747 0 2.138 1.172 2.138 2.962zm-2.963-.89h1.53c-.033-.89-.141-1.389-.76-1.389-.597 0-.77.618-.77 1.161zM111.369 141v-7.748h2.735c1.585 0 2.127 1.161 2.127 2.322 0 1.606-.987 2.333-2.463 2.333h-.836V141zm1.563-6.598v2.355h.695c.618 0 1.041-.369 1.041-1.161 0-.76-.303-1.194-1.085-1.194zM116.953 141v-5.838h1.433v.781h.022c.304-.564.727-.933 1.345-.933.087 0 .185.01.272.021v1.433a7 7 0 0 0-.467-.022c-.521 0-1.107.271-1.107 1.053V141zM120.372 138.081c0-1.997.586-3.071 2.301-3.071 1.801-.033 2.3 1.041 2.3 3.071 0 1.997-.586 3.071-2.3 3.071-1.802.033-2.301-1.042-2.301-3.071m1.498 0c0 1.194.065 2.051.803 2.051.608 0 .803-.597.803-2.051s-.195-2.051-.803-2.051c-.738 0-.803.857-.803 2.051M128.723 135.162h1.432v5.545c0 1.541-.684 2.29-2.431 2.29-1.269 0-1.986-.564-1.986-1.563h1.433a.52.52 0 0 0 .228.445.9.9 0 0 0 .499.163c.608 0 .825-.456.825-1.053v-.77h-.022c-.304.434-.771.716-1.248.716-1.194 0-1.791-.814-1.791-2.952 0-1.367.206-2.973 1.834-2.973.413 0 .923.195 1.205.803h.022zm-1.563 3.103c0 .803.119 1.52.749 1.52.629 0 .814-.684.814-1.672 0-1.421-.185-1.953-.782-1.953-.662 0-.781.532-.781 2.105M131.208 141v-5.838h1.432v.781h.022c.304-.564.727-.933 1.346-.933.087 0 .184.01.271.021v1.433a7 7 0 0 0-.467-.022c-.52 0-1.107.271-1.107 1.053V141zM136.157 136.952h-1.346v-.141c0-1.346.922-1.801 2.051-1.801 1.78 0 2.116.738 2.116 1.79v3.072c0 .542.033.792.185 1.128h-1.433c-.097-.184-.141-.412-.184-.608h-.022c-.347.608-.77.76-1.487.76-1.042 0-1.411-.89-1.411-1.671 0-1.096.445-1.541 1.476-1.823l.847-.228c.445-.12.597-.293.597-.684 0-.445-.196-.716-.695-.716-.456 0-.694.304-.694.759zm1.389 2.279v-1.15a1.9 1.9 0 0 1-.641.293c-.607.13-.846.423-.846.944 0 .445.163.814.564.814.402 0 .923-.26.923-.901M140.047 141v-5.838h1.432v.596h.022c.38-.531.846-.748 1.476-.748.684 0 1.183.336 1.346.933h.021c.228-.619.771-.933 1.476-.933.988 0 1.454.618 1.454 1.747V141h-1.497v-4.08c0-.489-.163-.76-.586-.76-.478 0-.782.326-.782.998V141h-1.497v-4.08c0-.489-.163-.76-.586-.76-.478 0-.782.326-.782.998V141z"/></svg>