<svg xmlns="http://www.w3.org/2000/svg" xmlns:xlink="http://www.w3.org/1999/xlink" viewBox="0 0 710.512 191.81">
   <defs>
      <path id="b" d="M0 156.667h552.667V0H0Z" />
      <path id="q" fill="#141111"
         d="M0 0c-.36-.231-.598-.669-.714-1.312-.116-.644-.187-1.725-.212-3.243h5.173v.038c0 1.492-.065 2.573-.193 3.243-.129.67-.361 1.106-.695 1.313-.335.206-.876.309-1.622.309C.939.348.36.232 0 0m8.223-7.644H-.926c0-1.673.077-2.837.231-3.493.155-.656.489-1.094 1.004-1.313.514-.218 1.415-.327 2.702-.327 1.236 0 2.818.102 4.748.308v-3.281c-.643-.181-1.499-.328-2.567-.444a28.786 28.786 0 0 0-3.107-.174c-2.162 0-3.752.328-4.768.984-1.017.657-1.673 1.66-1.969 3.011-.296 1.352-.444 3.391-.444 6.119 0 2.702.142 4.735.425 6.1.283 1.363.914 2.386 1.892 3.069.978.681 2.509 1.023 4.593 1.023 2.059 0 3.533-.328 4.421-.985.888-.656 1.44-1.635 1.66-2.933.218-1.3.328-3.378.328-6.235z"
         clip-path="url(#a)" />
   </defs>
   <defs>
      <clipPath id="c" clipPathUnits="userSpaceOnUse">
         <path d="M-54.417 37.27H498.25v-156.666H-54.417Z" />
      </clipPath>
      <clipPath id="d" clipPathUnits="userSpaceOnUse">
         <path d="M-47.118 30.42h552.667v-156.667H-47.118Z" />
      </clipPath>
      <clipPath id="e" clipPathUnits="userSpaceOnUse">
         <use xlink:href="#b" />
      </clipPath>
      <clipPath id="f" clipPathUnits="userSpaceOnUse">
         <path d="M-47.728 6H504.94v-156.667H-47.728Z" />
      </clipPath>
      <clipPath id="g" clipPathUnits="userSpaceOnUse">
         <path d="M-60.235 110.801h552.667V-45.866H-60.235Z" />
      </clipPath>
      <clipPath id="h" clipPathUnits="userSpaceOnUse">
         <use xlink:href="#b" />
      </clipPath>
      <clipPath id="i" clipPathUnits="userSpaceOnUse">
         <path d="M-151.973 87.166h552.667V-69.501h-552.667Z" />
      </clipPath>
      <clipPath id="j" clipPathUnits="userSpaceOnUse">
         <path d="M-186.855 96.777h552.667V-59.89h-552.667Z" />
      </clipPath>
      <clipPath id="k" clipPathUnits="userSpaceOnUse">
         <path d="M-264.614 33.813h552.667v-156.667h-552.667Z" />
      </clipPath>
      <clipPath id="l" clipPathUnits="userSpaceOnUse">
         <path d="M-331.086 97.21h552.667V-59.457h-552.667Z" />
      </clipPath>
      <clipPath id="m" clipPathUnits="userSpaceOnUse">
         <path d="M-380.657 57.357H172.01V-99.31h-552.667Z" />
      </clipPath>
      <clipPath id="n" clipPathUnits="userSpaceOnUse">
         <path d="M-404.255 96.777h552.667V-59.89h-552.667Z" />
      </clipPath>
      <clipPath id="o" clipPathUnits="userSpaceOnUse">
         <path d="M-509.445 96.777H43.222V-59.89h-552.667Z" />
      </clipPath>
      <clipPath id="p" clipPathUnits="userSpaceOnUse">
         <path d="M-116.487 129.242H436.18V-27.425h-552.667Z" />
      </clipPath>
      <clipPath id="a" clipPathUnits="userSpaceOnUse">
         <path d="M-131.734 126.077h552.667V-30.59h-552.667Z" />
      </clipPath>
      <clipPath id="r" clipPathUnits="userSpaceOnUse">
         <path d="M-151.827 138.45H400.84V-18.217h-552.667Z" />
      </clipPath>
      <clipPath id="s" clipPathUnits="userSpaceOnUse">
         <path d="M-168.93 138.218h552.668V-18.449H-168.93Z" />
      </clipPath>
      <clipPath id="t" clipPathUnits="userSpaceOnUse">
         <use xlink:href="#b" />
      </clipPath>
      <clipPath id="u" clipPathUnits="userSpaceOnUse">
         <path d="M-190.373 126.077h552.667V-30.59h-552.667Z" />
      </clipPath>
      <clipPath id="v" clipPathUnits="userSpaceOnUse">
         <path d="M-223.497 120.4H329.17V-36.269h-552.667Z" />
      </clipPath>
      <clipPath id="w" clipPathUnits="userSpaceOnUse">
         <path d="M-242.447 142.137H310.22V-14.53h-552.667Z" />
      </clipPath>
      <clipPath id="x" clipPathUnits="userSpaceOnUse">
         <path d="M-258.082 126.077h552.667V-30.59h-552.667Z" />
      </clipPath>
      <clipPath id="y" clipPathUnits="userSpaceOnUse">
         <path d="M-275.762 142.445h552.667V-14.222h-552.667Z" />
      </clipPath>
      <clipPath id="z" clipPathUnits="userSpaceOnUse">
         <path d="M-292.284 131.288h552.667V-25.379h-552.667Z" />
      </clipPath>
      <clipPath id="A" clipPathUnits="userSpaceOnUse">
         <path d="M-309.615 131.288h552.667V-25.379h-552.667Z" />
      </clipPath>
      <clipPath id="B" clipPathUnits="userSpaceOnUse">
         <path d="M-326.041 138.45h552.667V-18.217h-552.667Z" />
      </clipPath>
      <clipPath id="C" clipPathUnits="userSpaceOnUse">
         <use xlink:href="#b" />
      </clipPath>
      <clipPath id="D" clipPathUnits="userSpaceOnUse">
         <path d="M-351.095 138.45h552.667V-18.217h-552.667Z" />
      </clipPath>
      <clipPath id="E" clipPathUnits="userSpaceOnUse">
         <path d="M-367.52 138.045h552.666V-18.622H-367.52Z" />
      </clipPath>
      <clipPath id="F" clipPathUnits="userSpaceOnUse">
         <path d="M-380.047 149.741H172.62V-6.926h-552.667Z" />
      </clipPath>
      <clipPath id="G" clipPathUnits="userSpaceOnUse">
         <path d="M-414.618 120.4h552.667V-36.269h-552.667Z" />
      </clipPath>
      <clipPath id="H" clipPathUnits="userSpaceOnUse">
         <path d="M-436.502 129.242h552.667V-27.425h-552.667Z" />
      </clipPath>
      <clipPath id="I" clipPathUnits="userSpaceOnUse">
         <path d="M-456.422 139.666H96.245V-17.001h-552.667Z" />
      </clipPath>
      <clipPath id="J" clipPathUnits="userSpaceOnUse">
         <path d="M-464.528 122.449H88.139V-34.218h-552.667Z" />
      </clipPath>
      <clipPath id="K" clipPathUnits="userSpaceOnUse">
         <path d="M-484.737 138.218H67.93V-18.449h-552.667Z" />
      </clipPath>
      <clipPath id="L" clipPathUnits="userSpaceOnUse">
         <path d="M-501.606 138.45H51.06V-18.217h-552.667Z" />
      </clipPath>
      <clipPath id="M" clipPathUnits="userSpaceOnUse">
         <path d="M-512.493 142.29H40.174V-14.375h-552.667Z" />
      </clipPath>
      <clipPath id="N" clipPathUnits="userSpaceOnUse">
         <path d="M-529.111 126.077H23.556V-30.59h-552.667Z" />
      </clipPath>
   </defs>
   <path fill="#4965b7"
      d="M0 0c-1.399 2.068-4.44 3.163-7.36 3.163-3.953 0-8.637-1.886-8.637-6.812 0-4.866 3.832-6.873 9.732-6.873v-3.954c-.73 0-1.521 0-2.311-.061-5.474-.486-9.915-2.981-9.915-9.063 0-6.265 4.805-9.367 10.584-9.367 5.839 0 9.671 3.893 9.671 10.523v11.922h8.819v-4.015H6.022v-7.968c0-8.637-4.745-14.659-13.929-14.659-9.428 0-15.449 5.839-15.449 13.442 0 6.022 3.345 9.854 8.758 11.618-3.893 1.217-6.022 4.379-6.022 8.455 0 7.42 6.266 10.887 13.321 10.887 4.805 0 8.82-1.52 10.948-4.318z"
      clip-path="url(#c)" transform="matrix(1.33333 0 0 -1.33333 63.342 41.694)" />
   <path fill="#4965b7"
      d="M0 0c-5.966 0-12.934-2.75-12.934-10.5 0-3.997 2.097-6.943 5.75-8.085l1.16-.363-1.155-.376c-5.555-1.809-8.491-5.699-8.491-11.248 0-7.687 6.193-13.055 15.062-13.055 8.479 0 13.541 5.335 13.541 14.271V-21h4.562v3.239H9.45v-11.534c0-6.73-3.854-10.91-10.058-10.91-6.665 0-10.972 3.829-10.972 9.754 0 5.505 3.647 8.86 10.268 9.449.668.051 1.34.06 1.958.062v3.182c-6.369.097-9.731 2.601-9.731 7.258 0 4.973 4.532 7.2 9.024 7.2 3.11 0 5.968-1.165 7.433-2.997l3.032 2.426C8.332-1.406 4.568 0 0 0m-.608-44.402c-9.325 0-15.837 5.687-15.837 13.83 0 5.569 2.765 9.568 8.013 11.623-3.369 1.45-5.276 4.475-5.276 8.449C-13.708-2.178-6.324.775 0 .775c4.992 0 9.095-1.63 11.257-4.472l.229-.301-4.272-3.418-.235.348C5.749-5.25 2.985-4.075-.061-4.075c-3.064 0-8.25-1.354-8.25-6.425 0-4.304 3.144-6.486 9.345-6.486h.387v-4.729h-.387c-.74 0-1.506 0-2.282-.059-4.357-.388-9.556-2.208-9.556-8.677 0-5.455 4.002-8.979 10.196-8.979 5.726 0 9.283 3.883 9.283 10.135v12.309h9.595v-4.789h-4.562v-7.581c0-9.421-5.352-15.046-14.316-15.046"
      clip-path="url(#d)" transform="matrix(1.33333 0 0 -1.33333 53.61 32.56)" />
   <path fill="#4965b7" d="M44.71 84.447h5.429V49.792H44.71Z" clip-path="url(#e)"
      transform="matrix(1.33333 0 0 -1.33333 -9.214 200.89)" />
   <path fill="#4965b7"
      d="M0 0c-17.607 0-27.417-8.056-32.547-14.813-6.098-8.033-8.27-17.566-8.27-23.809 0-15.892 6.418-26.136 11.802-31.93 1.969-2.12 4.064-3.815 5.913-5.312 2.087-1.688 4.245-3.435 4.467-4.578.644-3.309 1.081-8.053 1.198-13.013.075-3.132 1.378-4.889 2.459-5.811 2.014-1.718 4.491-1.682 5.291-1.616h9.3v5.425h-9.429l-.364-.024c-.008-.002-.827-.041-1.276.342-.457.389-.545 1.304-.557 1.814-.125 5.25-.597 10.324-1.297 13.919-.599 3.082-3.278 5.25-6.379 7.76-1.708 1.382-3.644 2.949-5.351 4.786-4.723 5.083-10.352 14.108-10.352 28.238 0 9.234 6.358 33.197 35.392 33.197 27.689 0 35.005-21.63 35.005-33.068 0-10.598-2.977-19.434-8.85-26.261-1.238-1.44-2.759-2.823-4.37-4.287-3.706-3.37-7.539-6.854-8.504-11.675-1.211-6.053-.816-19.819-.796-20.383l.008-.492c0-2.309-.726-3.322-2.196-3.322l-21.076-.081c-.589.006-3.886-.059-6.102-2.22-1.253-1.224-1.915-2.868-1.915-4.756 0-5.204 5.015-6.978 8.396-6.99l1.023-.007h20.894c2.097 0 2.094-3.256 0-3.256h-23.443c-1.697 0-3.191-.514-4.672-1.832-.996-.887-2.183-2.52-2.183-5.265 0-1.859.678-3.476 1.962-4.675 2.112-1.972 5.277-2.203 6.643-2.203.225 0 .401.006.515.012h27.45v5.425l-13.389.03h-16.185c-2.097 0-2.094 3.254 0 3.254H9.051l.923.004.117-.004h.828c1.362.046 3.753.363 5.504 2.03 1.316 1.254 2.013 2.959 2.013 4.932 0 1.963-.707 3.642-2.044 4.857-2.372 2.153-5.782 2.033-6.786 2.038l-20.328-.019h-1.109c-2.098 0-2.094 3.255 0 3.255h4.155l20.169-.003c1.38 0 2.52.56 3.536 1.495 2.243 2.065 1.925 5.669 1.925 8.021 0 .968-.402 13.844.647 19.091.614 3.071 3.635 5.817 6.833 8.725 1.661 1.51 3.378 3.071 4.834 4.764 6.744 7.838 10.163 17.864 10.163 29.798C40.431-25.179 31.98 0 0 0"
      clip-path="url(#f)" transform="matrix(1.33333 0 0 -1.33333 54.423 0)" />
   <path fill="#4965b7" d="M0 0h-.005Z" clip-path="url(#g)" transform="matrix(1.33333 0 0 -1.33333 71.1 139.734)" />
   <path fill="#4965b7" d="M109.422 134.194h11.124V59.89h-11.124z" clip-path="url(#h)"
      transform="matrix(1.33333 0 0 -1.33333 -9.214 200.89)" />
   <path fill="#4965b7"
      d="M0 0c6.048 0 10.133.433 12.258 1.297 2.123.863 3.51 3.04 4.158 6.533.648 3.492.972 10.062.972 19.71 0 9.575-.343 16.109-1.026 19.603-.685 3.491-2.089 5.686-4.212 6.587-2.125.9-6.174 1.35-12.15 1.35h-9.612V0Zm-20.736 64.692H.756c8.927 0 15.282-.972 19.062-2.916 3.78-1.944 6.173-5.31 7.182-10.097 1.007-4.789 1.512-12.835 1.512-24.139 0-11.304-.505-19.351-1.512-24.138-1.009-4.789-3.402-8.154-7.182-10.097C16.038-8.64 9.683-9.611.756-9.611h-21.492z"
      clip-path="url(#i)" transform="matrix(1.33333 0 0 -1.33333 193.416 108.22)" />
   <path fill="#4965b7" d="M0 0v74.304h42.768v-9.613H11.124V42.336h27.324v-9.612H11.124V9.611h31.644V0Z"
      clip-path="url(#j)" transform="matrix(1.33333 0 0 -1.33333 239.926 121.036)" />
   <path fill="#4965b7"
      d="M0 0h-.54l-10.152-34.668h20.844Zm18.575-62.964L12.96-44.172h-26.352L-18.9-62.964h-11.232l22.68 74.304H7.344l22.679-74.304z"
      clip-path="url(#k)" transform="matrix(1.33333 0 0 -1.33333 343.604 37.084)" />
   <path fill="#141111"
      d="M0 0c-2.916-.286-5.635-.432-8.154-.432-7.849 0-13.591 1.027-17.226 3.078-3.637 2.052-6.067 5.652-7.29 10.8-1.226 5.147-1.836 13.194-1.836 24.138 0 10.871.61 18.9 1.836 24.084 1.223 5.185 3.653 8.802 7.29 10.854 3.635 2.052 9.377 3.078 17.226 3.078 2.592 0 5.308-.162 8.154-.486 2.843-.324 5.165-.739 6.966-1.242v-8.855c-4.393.647-8.532.971-12.42.971-5.905 0-10.009-.577-12.313-1.727-2.304-1.154-3.816-3.565-4.536-7.237-.719-3.671-1.08-10.152-1.08-19.44 0-9.288.361-15.768 1.08-19.439.72-3.672 2.232-6.085 4.536-7.237 2.304-1.152 6.408-1.727 12.313-1.727 5.039 0 9.288.323 12.744.971V1.08C5.346.648 2.916.289 0 0"
      clip-path="url(#l)" transform="matrix(1.33333 0 0 -1.33333 432.234 121.613)" />
   <path fill="#141111"
      d="M0 0c1.763.864 2.916 2.195 3.456 3.996.539 1.799.81 4.463.81 7.992 0 3.599-.253 6.281-.756 8.046-.505 1.763-1.62 3.078-3.349 3.942-1.727.864-4.465 1.295-8.208 1.295H-22.41V-1.296h14.04C-4.555-1.296-1.766-.864 0 0m4.914-39.42L-5.131-10.8H-22.41v-28.62h-11.124v74.304h29.052c5.686 0 9.971-.937 12.851-2.808 2.879-1.873 4.77-4.411 5.671-7.614.899-3.205 1.35-7.362 1.35-12.474 0-5.257-.631-9.703-1.89-13.339-1.261-3.635-3.871-6.21-7.83-7.721L16.686-39.42Z"
      clip-path="url(#m)" transform="matrix(1.33333 0 0 -1.33333 498.329 68.476)" />
   <path fill="#141111" d="M0 0v74.304h42.768v-9.613H11.124V42.336h27.324v-9.612H11.124V9.611h31.644V0Z"
      clip-path="url(#n)" transform="matrix(1.33333 0 0 -1.33333 529.793 121.036)" />
   <path fill="#141111"
      d="m0 0-13.176 56.808h-.431L-26.784 0h-14.04l-16.308 74.304h11.34l12.313-60.264h.54l13.715 60.264h12.096L6.696 14.04h.648l11.881 60.264h11.124L14.04 0Z"
      clip-path="url(#o)" transform="matrix(1.33333 0 0 -1.33333 670.046 121.036)" />
   <path fill="#141111"
      d="M0 0c1.003 0 1.724.128 2.162.386.437.257.72.708.849 1.351s.193 1.685.193 3.126c0 1.416-.064 2.445-.193 3.089-.129.643-.412 1.094-.849 1.351-.438.257-1.145.386-2.123.386h-2.857V0Zm-7.219 13.666H1.12c1.826 0 3.21-.342 4.15-1.024.938-.682 1.569-1.641 1.891-2.876.321-1.235.483-2.87.483-4.903 0-1.955-.155-3.557-.464-4.805-.308-1.249-.946-2.234-1.91-2.953-.966-.722-2.375-1.081-4.228-1.081h-3.86v-8.919h-4.401z"
      clip-path="url(#p)" transform="matrix(1.33333 0 0 -1.33333 146.102 164.323)" />
   <use xlink:href="#q" clip-path="url(#a)" transform="matrix(1.33333 0 0 -1.33333 166.432 160.103)" />
   <path fill="#141111"
      d="M0 0c.347.271.566.817.656 1.642.09.822.136 2.328.136 4.516 0 2.213-.046 3.725-.136 4.536-.09.81-.309 1.351-.656 1.621-.347.27-.984.406-1.911.406-.926 0-1.563-.136-1.911-.406-.347-.27-.566-.811-.656-1.621-.091-.811-.135-2.323-.135-4.536 0-2.188.044-3.694.135-4.516.09-.825.309-1.371.656-1.642.348-.27.985-.404 1.911-.404C-.984-.404-.347-.27 0 0m-6.543-3.146c-.953.566-1.564 1.519-1.834 2.857-.27 1.338-.405 3.487-.405 6.447 0 2.985.135 5.147.405 6.485s.881 2.284 1.834 2.837c.951.554 2.496.831 4.632.831 2.136 0 3.68-.277 4.633-.831.951-.553 1.563-1.499 1.833-2.837.271-1.338.405-3.5.405-6.485 0-2.96-.134-5.109-.405-6.447-.27-1.338-.882-2.291-1.833-2.857-.953-.566-2.497-.849-4.633-.849s-3.681.283-4.632.849"
      clip-path="url(#r)" transform="matrix(1.33333 0 0 -1.33333 193.222 176.6)" />
   <path fill="#141111"
      d="M0 0c.347.244.579.772.694 1.583.116.811.174 2.258.174 4.343S.81 9.458.694 10.269C.579 11.08.347 11.607 0 11.852c-.348.244-.959.367-1.834.367-.695 0-1.216-.136-1.563-.406-.348-.27-.599-.74-.753-1.409-.155-.747-.232-2.239-.232-4.478 0-1.853.051-3.179.154-3.976.129-.902.367-1.512.715-1.834.347-.322.907-.482 1.679-.482C-.959-.366-.348-.245 0 0m-8.551 15.77h3.822l.154-2.432h.27c.541 1.827 1.956 2.741 4.247 2.741 1.337 0 2.368-.289 3.088-.869.72-.579 1.236-1.589 1.544-3.03.309-1.442.463-3.5.463-6.177 0-2.65-.148-4.703-.444-6.157-.296-1.454-.798-2.497-1.505-3.127-.709-.631-1.732-.946-3.069-.946-2.162 0-3.552.836-4.169 2.51h-.232v-9.652h-4.169z"
      clip-path="url(#s)" transform="matrix(1.33333 0 0 -1.33333 216.025 176.29)" />
   <path fill="#141111" d="M177.557 43.213h4.169V14.53h-4.169z" clip-path="url(#t)"
      transform="matrix(1.33333 0 0 -1.33333 -9.214 200.89)" />
   <use xlink:href="#q" clip-path="url(#u)" transform="matrix(1.33333 0 0 -1.33333 244.616 160.103)" />
   <path fill="#4965b7"
      d="M0 0c-.463-.347-1.236-.309-1.583.116C-2.316 1.159-3.745 1.66-5.02 1.66c-1.968 0-4.015-.849-4.015-3.166S-7.297-4.71-4.363-4.71c.579 0 1.043-.348 1.043-.927v-2.278c0-.579-.464-.926-1.043-.926h-1.236c-2.471-.426-4.942-1.738-4.942-4.518 0-3.127 2.278-4.671 5.174-4.671 2.78 0 4.634 1.968 4.634 5.366v7.027c0 .579.501.927 1.119.927H5.56c.656 0 1.12-.348 1.12-.927v-2.317c0-.579-.464-.887-1.12-.887H4.016v-3.862c0-5.675-3.321-9.574-9.383-9.574-6.293 0-10.309 3.783-10.309 8.841 0 3.205 2.201 5.521 4.711 6.988-2.047.927-3.051 2.781-3.051 4.942 0 4.943 4.209 7.337 9.036 7.337 3.204 0 5.83-1.004 7.335-2.858.27-.424.116-.927-.231-1.235Z"
      clip-path="url(#v)" transform="matrix(1.33333 0 0 -1.33333 288.781 152.532)" />
   <path fill="#141111" d="M0 0v22.467h-5.327v4.094H9.69v-4.094H4.401V0Z" clip-path="url(#w)"
      transform="matrix(1.33333 0 0 -1.33333 314.05 181.516)" />
   <path fill="#141111"
      d="M0 0c-.36-.231-.598-.669-.714-1.312-.116-.644-.187-1.725-.212-3.243h5.173v.038c0 1.492-.065 2.573-.193 3.243-.129.67-.361 1.106-.695 1.313-.335.206-.876.309-1.622.309C.939.348.36.232 0 0m8.223-7.644H-.926c0-1.673.077-2.837.231-3.493.155-.656.489-1.094 1.004-1.313.514-.218 1.415-.327 2.702-.327 1.236 0 2.819.102 4.748.308v-3.281c-.643-.181-1.499-.328-2.567-.444a28.786 28.786 0 0 0-3.107-.174c-2.162 0-3.752.328-4.768.984-1.017.657-1.673 1.66-1.969 3.011-.296 1.352-.444 3.391-.444 6.119 0 2.702.142 4.735.425 6.1.283 1.363.914 2.386 1.892 3.069.978.681 2.509 1.023 4.593 1.023 2.059 0 3.533-.328 4.421-.985.888-.656 1.44-1.635 1.66-2.933.218-1.3.328-3.378.328-6.235z"
      clip-path="url(#x)" transform="matrix(1.33333 0 0 -1.33333 334.895 160.103)" />
   <path fill="#141111"
      d="M0 0c-1.879 0-3.269.348-4.169 1.042-.901.695-1.494 1.737-1.776 3.126-.284 1.391-.425 3.385-.425 5.984 0 2.6.161 4.607.483 6.022.321 1.416.932 2.458 1.834 3.127.9.67 2.239 1.005 4.014 1.005.772 0 1.544-.053 2.316-.155.773-.104 1.377-.245 1.815-.425v-3.32a16.155 16.155 0 0 1-3.011.309c-1.004 0-1.725-.148-2.162-.444-.438-.296-.733-.882-.888-1.756-.154-.875-.231-2.329-.231-4.363 0-2.033.077-3.493.231-4.381.155-.888.45-1.474.888-1.756.437-.285 1.158-.425 2.162-.425 1.003 0 2.045.102 3.127.308V.579C2.92.192 1.518 0 0 0"
      clip-path="url(#y)" transform="matrix(1.33333 0 0 -1.33333 358.468 181.926)" />
   <path fill="#141111"
      d="M0 0c0 1.724-.053 2.933-.154 3.628-.104.696-.31 1.139-.618 1.331-.309.194-.849.291-1.622.291-.824 0-1.416-.174-1.776-.521-.36-.348-.585-.896-.676-1.642-.09-.746-.133-1.968-.133-3.667v-10.269h-4.17v28.683h4.17V6.523h.192c.335.901.861 1.563 1.582 1.989.721.425 1.647.637 2.779.637 1.262 0 2.227-.252 2.897-.753.669-.502 1.119-1.249 1.35-2.24.233-.99.348-2.348.348-4.072v-12.933H0Z"
      clip-path="url(#z)" transform="matrix(1.33333 0 0 -1.33333 380.498 167.05)" />
   <path fill="#141111"
      d="M0 0c0 1.724-.052 2.933-.154 3.628-.103.696-.309 1.139-.617 1.331-.31.194-.849.291-1.623.291-.823 0-1.415-.174-1.774-.521-.361-.348-.586-.896-.677-1.642-.09-.746-.134-1.968-.134-3.667v-10.269h-4.169V8.839h3.822l.153-2.469h.233c.333.977.874 1.684 1.621 2.122.746.438 1.712.657 2.895.657 1.286 0 2.258-.252 2.915-.753.655-.502 1.1-1.262 1.331-2.278.232-1.017.348-2.413.348-4.188v-12.779H0Z"
      clip-path="url(#A)" transform="matrix(1.33333 0 0 -1.33333 403.606 167.05)" />
   <path fill="#141111"
      d="M0 0c.348.271.566.817.657 1.642.089.822.134 2.328.134 4.516 0 2.213-.045 3.725-.134 4.536-.091.81-.309 1.351-.657 1.621-.348.27-.983.406-1.91.406-.927 0-1.565-.136-1.912-.406s-.567-.811-.656-1.621c-.09-.811-.135-2.323-.135-4.536 0-2.188.045-3.694.135-4.516.089-.825.309-1.371.656-1.642.347-.27.985-.404 1.912-.404C-.983-.404-.348-.27 0 0m-6.543-3.146c-.952.566-1.563 1.519-1.834 2.857-.27 1.338-.404 3.487-.404 6.447 0 2.985.134 5.147.404 6.485.271 1.338.882 2.284 1.834 2.837.952.554 2.496.831 4.633.831 2.135 0 3.68-.277 4.632-.831.952-.553 1.563-1.499 1.834-2.837.269-1.338.405-3.5.405-6.485 0-2.96-.136-5.109-.405-6.447-.271-1.338-.882-2.291-1.834-2.857-.952-.566-2.497-.849-4.632-.849-2.137 0-3.681.283-4.633.849"
      clip-path="url(#B)" transform="matrix(1.33333 0 0 -1.33333 425.507 176.6)" />
   <path fill="#141111" d="M334.592 43.213h4.17V14.53h-4.17z" clip-path="url(#C)"
      transform="matrix(1.33333 0 0 -1.33333 -9.214 200.89)" />
   <path fill="#141111"
      d="M0 0c.347.271.566.817.656 1.642.09.822.135 2.328.135 4.516 0 2.213-.045 3.725-.135 4.536-.09.81-.309 1.351-.656 1.621-.348.27-.984.406-1.911.406s-1.564-.136-1.911-.406c-.348-.27-.567-.811-.657-1.621-.089-.811-.134-2.323-.134-4.536 0-2.188.045-3.694.134-4.516.09-.825.309-1.371.657-1.642.347-.27.984-.404 1.911-.404S-.348-.27 0 0m-6.544-3.146c-.952.566-1.562 1.519-1.834 2.857-.269 1.338-.404 3.487-.404 6.447 0 2.985.135 5.147.404 6.485.272 1.338.882 2.284 1.834 2.837.952.554 2.497.831 4.633.831s3.68-.277 4.632-.831c.952-.553 1.564-1.499 1.834-2.837s.405-3.5.405-6.485c0-2.96-.135-5.109-.405-6.447S3.673-2.58 2.721-3.146c-.952-.566-2.496-.849-4.632-.849-2.136 0-3.681.283-4.633.849"
      clip-path="url(#D)" transform="matrix(1.33333 0 0 -1.33333 458.912 176.6)" />
   <path fill="#141111"
      d="M0 0c.359.257.604.708.733 1.352.18.746.271 2.238.271 4.478 0 1.955-.066 3.306-.193 4.053-.129.823-.374 1.383-.734 1.679-.36.295-.914.444-1.66.444-.875 0-1.48-.116-1.814-.348-.335-.231-.56-.746-.676-1.543-.115-.799-.174-2.227-.174-4.285 0-2.008.059-3.424.174-4.247.116-.824.347-1.357.695-1.602.348-.245.945-.367 1.795-.367C-.888-.386-.361-.257 0 0m-4.884-11.677c-.99.09-1.795.199-2.412.328v3.281l4.323-.078c1.286 0 2.194.123 2.722.368.527.244.869.713 1.023 1.408.154.695.232 1.906.232 3.63v1.041H.772C.464-2.573-.033-3.198-.715-3.571c-.681-.373-1.55-.559-2.605-.559-1.365 0-2.407.295-3.126.887-.721.592-1.23 1.596-1.526 3.011-.296 1.416-.443 3.436-.443 6.062 0 2.676.154 4.734.462 6.176.309 1.441.831 2.451 1.564 3.03.734.58 1.769.869 3.108.869 2.214 0 3.615-.914 4.207-2.741h.232l.154 2.432h3.861V-1.583c0-2.702-.142-4.735-.425-6.099-.284-1.364-.939-2.394-1.969-3.088-1.029-.695-2.638-1.043-4.825-1.043-.901 0-1.848.045-2.838.136"
      clip-path="url(#E)" transform="matrix(1.33333 0 0 -1.33333 480.813 176.06)" />
   <path fill="#141111"
      d="M0 0a29.93 29.93 0 0 0-2.375.27v3.358c1.545-.05 2.973-.077 4.285-.077 1.261 0 2.155.13 2.684.387.527.257.862.728 1.003 1.409.141.682.213 1.846.213 3.494v1.273h-.271c-.54-1.724-1.956-2.586-4.246-2.586-1.39 0-2.413.283-3.069.849-.657.566-1.08 1.415-1.274 2.548-.192 1.132-.29 2.779-.29 4.941v11.426H.83V16.6c0-1.776.045-3.006.135-3.687.09-.683.29-1.119.598-1.312.309-.194.849-.29 1.622-.29.823 0 1.421.167 1.794.502.374.334.605.874.696 1.621.09.747.135 1.982.135 3.707v10.151h4.169V10.076c0-2.677-.149-4.697-.444-6.061-.297-1.364-.945-2.394-1.95-3.088C6.582.232 4.999-.116 2.837-.116 1.91-.116.965-.078 0 0"
      clip-path="url(#F)" transform="matrix(1.33333 0 0 -1.33333 497.515 191.655)" />
   <path fill="#4965b7"
      d="M0 0c-.464-.347-1.236-.309-1.584.116C-2.317 1.159-3.745 1.66-5.02 1.66c-1.969 0-4.015-.849-4.015-3.166S-7.297-4.71-4.363-4.71c.58 0 1.042-.348 1.042-.927v-2.278c0-.579-.462-.926-1.042-.926h-1.236c-2.471-.426-4.942-1.738-4.942-4.518 0-3.127 2.277-4.671 5.174-4.671 2.78 0 4.633 1.968 4.633 5.366v7.027c0 .579.503.927 1.12.927H5.56c.657 0 1.119-.348 1.119-.927v-2.317c0-.579-.462-.887-1.119-.887H4.016v-3.862c0-5.675-3.321-9.574-9.383-9.574-6.293 0-10.309 3.783-10.309 8.841 0 3.205 2.2 5.521 4.711 6.988-2.047.927-3.051 2.781-3.051 4.942 0 4.943 4.208 7.337 9.035 7.337 3.205 0 5.831-1.004 7.336-2.858.27-.424.116-.927-.232-1.235Z"
      clip-path="url(#G)" transform="matrix(1.33333 0 0 -1.33333 543.61 152.532)" />
   <path fill="#141111"
      d="M0 0c1.004 0 1.725.128 2.162.386.438.257.721.708.85 1.351.128.643.193 1.685.193 3.126 0 1.416-.065 2.445-.193 3.089-.129.643-.412 1.094-.85 1.351-.437.257-1.145.386-2.124.386h-2.855V0Zm-7.219 13.666h8.338c1.827 0 3.211-.342 4.152-1.024.938-.682 1.568-1.641 1.89-2.876.322-1.235.484-2.87.484-4.903 0-1.955-.155-3.557-.464-4.805-.31-1.249-.946-2.234-1.91-2.953-.966-.722-2.375-1.081-4.228-1.081h-3.86v-8.919h-4.402z"
      clip-path="url(#H)" transform="matrix(1.33333 0 0 -1.33333 572.789 164.323)" />
   <path fill="#141111"
      d="M0 0h-.231c-.335-.979-.876-1.686-1.623-2.124-.746-.436-1.698-.655-2.856-.655-1.286 0-2.265.25-2.934.752-.669.503-1.113 1.261-1.332 2.277-.218 1.018-.328 2.414-.328 4.189v12.778h4.169V6.37c0-1.751.045-2.967.136-3.648.089-.683.289-1.119.598-1.313.309-.194.849-.29 1.622-.29.822 0 1.415.167 1.776.502.358.335.591.888.693 1.66.104.773.156 1.994.156 3.668v10.268h4.169V-2.471H.154Z"
      clip-path="url(#I)" transform="matrix(1.33333 0 0 -1.33333 599.349 178.22)" />
   <path fill="#141111"
      d="M0 0h3.821l.155-3.358h.27c.387 1.39.959 2.348 1.718 2.876C6.723.045 7.72.31 8.956.31v-4.44c-1.184 0-2.123-.206-2.818-.618-.696-.412-1.198-1.081-1.505-2.007-.31-.927-.464-2.214-.464-3.86v-9.073H0Z"
      clip-path="url(#J)" transform="matrix(1.33333 0 0 -1.33333 610.157 155.265)" />
   <path fill="#141111"
      d="M0 0c.348.244.579.772.695 1.583.116.811.174 2.258.174 4.343S.811 9.458.695 10.269C.579 11.08.348 11.607 0 11.852c-.348.244-.959.367-1.834.367-.695 0-1.216-.136-1.563-.406s-.599-.74-.752-1.409c-.156-.747-.233-2.239-.233-4.478 0-1.853.052-3.179.154-3.976.129-.902.368-1.512.715-1.834.347-.322.908-.482 1.679-.482C-.959-.366-.348-.245 0 0m-8.551 15.77h3.822l.154-2.432h.27c.541 1.827 1.955 2.741 4.247 2.741 1.338 0 2.367-.289 3.088-.869.72-.579 1.236-1.589 1.544-3.03.309-1.442.463-3.5.463-6.177 0-2.65-.148-4.703-.443-6.157-.297-1.454-.798-2.497-1.505-3.127-.709-.631-1.733-.946-3.07-.946-2.163 0-3.551.836-4.168 2.51h-.233v-9.652h-4.169z"
      clip-path="url(#K)" transform="matrix(1.33333 0 0 -1.33333 637.102 176.29)" />
   <path fill="#141111"
      d="M0 0c.348.271.566.817.657 1.642.089.822.134 2.328.134 4.516 0 2.213-.045 3.725-.134 4.536-.091.81-.309 1.351-.657 1.621-.348.27-.983.406-1.91.406-.927 0-1.565-.136-1.911-.406-.348-.27-.568-.811-.657-1.621-.089-.811-.135-2.323-.135-4.536 0-2.188.046-3.694.135-4.516.089-.825.309-1.371.657-1.642.346-.27.984-.404 1.911-.404S-.348-.27 0 0m-6.543-3.146c-.952.566-1.563 1.519-1.834 2.857-.27 1.338-.404 3.487-.404 6.447 0 2.985.134 5.147.404 6.485.271 1.338.882 2.284 1.834 2.837.952.554 2.496.831 4.633.831 2.135 0 3.68-.277 4.632-.831.952-.553 1.563-1.499 1.834-2.837.269-1.338.405-3.5.405-6.485 0-2.96-.136-5.109-.405-6.447-.271-1.338-.882-2.291-1.834-2.857-.952-.566-2.497-.849-4.632-.849-2.137 0-3.681.283-4.633.849"
      clip-path="url(#L)" transform="matrix(1.33333 0 0 -1.33333 659.595 176.6)" />
   <path fill="#141111"
      d="M0 0a28.059 28.059 0 0 0-2.722.386v3.358c1.853-.206 3.41-.308 4.672-.308.797 0 1.389.07 1.776.212.385.142.642.366.771.676.129.309.193.771.193 1.39 0 .719-.039 1.228-.115 1.524-.078.296-.219.502-.426.618-.206.116-.566.212-1.08.29l-3.436.501c-1.056.154-1.789.643-2.2 1.467-.412.824-.618 2.201-.618 4.131 0 2.213.528 3.75 1.582 4.613 1.056.862 2.614 1.293 4.672 1.293.849 0 1.731-.058 2.645-.173.913-.116 1.653-.265 2.22-.444v-3.321a27.196 27.196 0 0 1-4.324.348c-1.005 0-1.693-.148-2.066-.444-.373-.296-.56-.894-.56-1.795 0-.643.033-1.107.097-1.389.064-.284.193-.484.386-.6.193-.115.521-.199.984-.25l2.934-.387c.746-.103 1.365-.308 1.853-.617.489-.308.875-.862 1.158-1.66.284-.797.425-1.93.425-3.397 0-2.342-.483-3.957-1.448-4.845C6.408.29 4.896-.154 2.837-.154 1.988-.154 1.043-.102 0 0"
      clip-path="url(#M)" transform="matrix(1.33333 0 0 -1.33333 674.11 181.72)" />
   <path fill="#141111"
      d="M0 0c-.36-.231-.598-.669-.714-1.312-.116-.644-.187-1.725-.213-3.243h5.173v.038c0 1.492-.064 2.573-.192 3.243-.13.67-.362 1.106-.696 1.313-.335.206-.876.309-1.622.309C.939.348.36.232 0 0m8.222-7.644H-.927c0-1.673.077-2.837.232-3.493.154-.656.489-1.094 1.005-1.313.513-.218 1.414-.327 2.701-.327 1.235 0 2.818.102 4.749.308v-3.281c-.645-.181-1.5-.328-2.568-.444a28.776 28.776 0 0 0-3.108-.174c-2.162 0-3.751.328-4.768.984-1.016.657-1.672 1.66-1.967 3.011-.297 1.352-.445 3.391-.445 6.119 0 2.702.141 4.735.425 6.1.282 1.363.913 2.386 1.892 3.069.977.681 2.508 1.023 4.593 1.023 2.059 0 3.533-.328 4.42-.985.888-.656 1.441-1.635 1.661-2.933.218-1.3.327-3.378.327-6.235Z"
      clip-path="url(#N)" transform="matrix(1.33333 0 0 -1.33333 696.268 160.103)" />
</svg>