<svg width="246" height="67" viewBox="0 0 246 67" fill="none" xmlns="http://www.w3.org/2000/svg">
<g id="Logo" clip-path="url(#clip0_1710_1990)">
<g id="Group">
<g id="Group_2">
<g id="Group_3">
<path id="Vector" d="M21.8768 14.9429C21.2321 13.9814 19.8505 13.4778 18.4689 13.4778C16.6268 13.4778 14.5084 14.3477 14.5084 16.5911C14.5084 18.8345 16.2584 19.7501 18.9755 19.7501V21.5815C18.6531 21.5815 18.2847 21.5815 17.9163 21.6273C15.3834 21.8562 13.357 23.0008 13.357 25.7936C13.357 28.6779 15.5676 30.0972 18.2387 30.0972C20.9097 30.0972 22.7058 28.3116 22.7058 25.2899V19.7501H26.7585V21.5815H24.64V25.2442C24.64 29.1815 22.4755 31.9743 18.2387 31.9743C13.9097 31.9743 11.1465 29.3189 11.1465 25.8393C11.1465 23.0923 12.6662 21.3068 15.1992 20.5285C13.4031 19.9791 12.436 18.514 12.436 16.6369C12.436 13.2489 15.3373 11.6465 18.561 11.6465C20.7716 11.6465 22.6137 12.3332 23.5808 13.6152L21.8768 14.9429Z" fill="white"/>
<path id="Vector_2" d="M18.2373 32.1112C13.9544 32.1112 10.9609 29.5016 10.9609 25.7931C10.9609 23.2292 12.2504 21.3979 14.6452 20.4822C13.0794 19.7955 12.2044 18.422 12.2044 16.6364C12.2044 12.8364 15.6123 11.4629 18.5136 11.4629C20.8163 11.4629 22.7045 12.1954 23.7176 13.5231L23.8097 13.6605L21.8295 15.2171L21.7374 15.0798C21.1847 14.2557 19.8952 13.7063 18.5136 13.7063C17.086 13.7063 14.7373 14.3472 14.7373 16.6364C14.7373 18.6051 16.1649 19.6123 19.0202 19.6123H19.2044V21.7642H19.0202C18.6978 21.7642 18.3294 21.7642 17.961 21.8099C15.9347 21.9931 13.5399 22.8172 13.5399 25.7931C13.5399 28.3112 15.382 29.9136 18.2373 29.9136C20.8623 29.9136 22.5203 28.1281 22.5203 25.2895V19.5666H26.9413V21.7642H24.8229V25.2437C24.8229 29.5473 22.3821 32.1112 18.2373 32.1112ZM18.5136 11.7834C15.7505 11.7834 12.5728 13.0653 12.5728 16.5906C12.5728 18.422 13.5399 19.7497 15.1978 20.2991L15.7505 20.4822L15.1978 20.6196C12.6188 21.4437 11.2833 23.2292 11.2833 25.7473C11.2833 29.2726 14.1386 31.7449 18.2373 31.7449C22.1518 31.7449 24.4545 29.3184 24.4545 25.1979V21.3521H26.5729V19.887H22.8887V25.1521C22.8887 28.2196 21.0926 30.1425 18.2373 30.1425C15.1518 30.1425 13.1715 28.4028 13.1715 25.6557C13.1715 23.1377 14.8294 21.581 17.9149 21.3521C18.2373 21.3063 18.5136 21.3063 18.836 21.3063V19.8413C15.8886 19.7955 14.3689 18.6509 14.3689 16.4991C14.3689 14.2099 16.4413 13.2027 18.5136 13.2027C19.9413 13.2027 21.2768 13.7521 21.9216 14.5762L23.3032 13.4774C22.336 12.4243 20.6321 11.7834 18.5136 11.7834Z" fill="white"/>
</g>
</g>
<g id="Group_4">
<path id="Vector_3" d="M19.8951 30.9199H17.4082V46.8068H19.8951V30.9199Z" fill="white"/>
</g>
<g id="Group_5">
<path id="Vector_4" d="M18.7896 0.611328C10.6843 0.611328 6.17111 4.31979 3.8224 7.38728C1.01317 11.05 0 15.4452 0 18.2837C0 25.5633 2.94739 30.2332 5.43426 32.8886C6.35532 33.8501 7.32243 34.6284 8.15139 35.3152C9.1185 36.0935 10.0856 36.8718 10.2238 37.4212C10.5001 38.9321 10.7304 41.1297 10.7764 43.3731C10.8225 44.7923 11.4212 45.6164 11.9277 46.0285C12.8488 46.8068 14.0001 46.8068 14.3685 46.761H18.6515V44.2887H14.2764H14.0922C14.0922 44.2887 13.7238 44.2887 13.4935 44.1514C13.2633 43.9682 13.2633 43.5562 13.2172 43.3273C13.1712 40.9007 12.9409 38.6116 12.6185 36.9634C12.3422 35.5441 11.0988 34.5826 9.67114 33.3923C8.88824 32.7513 8.01323 32.0645 7.18427 31.1947C5.11189 28.9055 2.48686 24.785 2.48686 18.2837C2.48686 14.0717 5.43426 3.08363 18.7896 3.08363C31.5463 3.08363 34.9082 12.9729 34.9082 18.2379C34.9082 23.091 33.5266 27.1199 30.8555 30.279C30.3029 30.92 29.566 31.5609 28.8292 32.2477C27.1252 33.8043 25.3752 35.4067 24.9147 37.6043C24.3621 40.3971 24.5463 46.6695 24.5463 46.9442V47.1731C24.5463 48.2261 24.2239 48.6839 23.5331 48.6839H13.8159C13.5396 48.6839 12.0198 48.7297 11.0067 49.6912C10.408 50.2406 10.1317 51.0189 10.1317 51.8888C10.1317 54.2695 12.4343 55.0936 14.0001 55.0936H14.4607H24.0857C25.0529 55.0936 25.0529 56.6045 24.0857 56.6045H13.3093C12.5264 56.6045 11.8356 56.8334 11.1448 57.4286C10.6843 57.8406 10.1317 58.5731 10.1317 59.8551C10.1317 60.725 10.454 61.4575 11.0527 62.0069C12.0198 62.9226 13.4935 63.0141 14.0922 63.0141C14.1843 63.0141 14.2764 63.0141 14.3225 63.0141H26.9871V60.5418H20.816H13.3554C12.3883 60.5418 12.3883 59.031 13.3554 59.031H22.9344H23.3489H23.3949H23.7634C24.4081 59.031 25.5134 58.8479 26.2963 58.1153C26.895 57.5201 27.2173 56.7418 27.2173 55.8719C27.2173 54.9563 26.895 54.2237 26.2963 53.6285C25.191 52.6213 23.6252 52.7129 23.1647 52.7129H13.8159H13.3554C12.3883 52.7129 12.3883 51.202 13.3554 51.202H15.2896H24.5923C25.2371 51.202 25.7436 50.9273 26.2042 50.5153C27.2173 49.5538 27.0792 47.9056 27.0792 46.8526C27.0792 46.3948 26.895 40.5345 27.3555 38.108C27.6318 36.6887 29.0134 35.4525 30.4871 34.1248C31.27 33.438 32.0529 32.7055 32.6977 31.9272C35.7832 28.3561 37.3951 23.732 37.3951 18.2837C37.3951 12.1488 33.5266 0.611328 18.7896 0.611328Z" fill="white"/>
</g>
</g>
<g id="Group_6">
<path id="Vector_5" d="M47.2031 42.1831V8.16602H52.315V42.1831H47.2031Z" fill="white"/>
<path id="Vector_6" d="M57.2422 8.16602H67.1436C71.2423 8.16602 74.1897 8.62385 75.9397 9.49373C77.6897 10.3636 78.795 11.9203 79.2556 14.1179C79.7161 16.3155 79.9463 19.9781 79.9463 25.1517C79.9463 30.3252 79.7161 34.0336 79.2556 36.1855C78.795 38.3831 77.6897 39.9397 75.9397 40.8096C74.1897 41.6795 71.2884 42.1373 67.1436 42.1373H57.2422V8.16602ZM66.8212 37.7879C69.5844 37.7879 71.4726 37.6047 72.4857 37.1927C73.4529 36.7806 74.0976 35.8192 74.42 34.2168C74.6963 32.6144 74.8805 29.5927 74.8805 25.1974C74.8805 20.8022 74.7424 17.8263 74.42 16.2239C74.0976 14.6215 73.4529 13.6142 72.4857 13.2022C71.5186 12.7901 69.6305 12.607 66.9133 12.607H62.4922V37.8337H66.8212V37.7879Z" fill="white"/>
<path id="Vector_7" d="M82.8477 42.1831V8.16602H102.558V12.5612H88.0056V22.8167H100.578V27.2119H88.0056V37.7879H102.558V42.1831H82.8477Z" fill="white"/>
<path id="Vector_8" d="M127.244 42.1831L124.665 33.5758H112.507L109.974 42.1831H104.816L115.27 8.16602H122.04L132.494 42.1831H127.244ZM118.678 13.3395H118.448L113.751 29.2264H123.33L118.678 13.3395Z" fill="white"/>
</g>
<path id="Vector_9" d="M149.304 42.3651C147.969 42.5024 146.725 42.5482 145.528 42.5482C141.936 42.5482 139.265 42.0904 137.607 41.1289C135.949 40.1675 134.798 38.5193 134.245 36.1843C133.692 33.8494 133.416 30.1409 133.416 25.1505C133.416 20.1601 133.692 16.4974 134.245 14.1167C134.798 11.736 135.949 10.0878 137.607 9.12632C139.265 8.16487 141.936 7.70703 145.528 7.70703C146.725 7.70703 147.969 7.7986 149.304 7.93595C150.594 8.0733 151.699 8.25643 152.528 8.48535V12.5601C150.502 12.2854 148.614 12.1022 146.817 12.1022C144.1 12.1022 142.212 12.3769 141.153 12.8806C140.094 13.43 139.403 14.5288 139.081 16.177C138.758 17.8252 138.574 20.8469 138.574 25.0589C138.574 29.271 138.758 32.2927 139.081 33.9409C139.403 35.5891 140.094 36.7337 141.153 37.2373C142.212 37.7867 144.1 38.0157 146.817 38.0157C149.12 38.0157 151.1 37.8783 152.666 37.5578V41.7241C151.745 42.0904 150.64 42.2277 149.304 42.3651Z" fill="white"/>
<path id="Vector_10" d="M174.403 42.1831L169.798 29.089H169.475H161.831V42.1831H156.719V8.16602H170.12C172.745 8.16602 174.726 8.57807 176.061 9.44795C177.397 10.3178 178.272 11.4624 178.686 12.9275C179.101 14.3926 179.285 16.3155 179.285 18.6504C179.285 21.0769 179.008 23.0914 178.41 24.7396C177.811 26.3878 176.614 27.5782 174.818 28.2649L179.883 42.1373H174.403V42.1831ZM172.1 24.1444C172.929 23.7324 173.436 23.1372 173.712 22.3131C173.943 21.489 174.081 20.2528 174.081 18.6504C174.081 17.0022 173.943 15.7661 173.712 14.9877C173.482 14.1636 172.975 13.5685 172.193 13.2022C171.41 12.7901 170.12 12.607 168.416 12.607H161.785V24.7854H168.232C170.028 24.7396 171.318 24.5107 172.1 24.1444Z" fill="white"/>
<path id="Vector_11" d="M182.969 42.1831V8.16602H202.679V12.5612H188.127V22.8167H200.699V27.2119H188.127V37.7879H202.679V42.1831H182.969Z" fill="white"/>
<path id="Vector_12" d="M231.416 42.1831L225.383 16.1781H225.199L219.12 42.1831H212.673L205.166 8.16602H210.37L216.035 35.7734H216.265L222.574 8.16602H228.146L234.502 35.7734H234.778L240.258 8.16602H245.37L237.864 42.1831H231.416Z" fill="white"/>
<path id="Vector_13" d="M47.1593 50.7891H50.9817C51.8107 50.7891 52.4554 50.9264 52.8699 51.2469C53.2844 51.5674 53.6068 51.9794 53.7449 52.5746C53.8831 53.124 53.9752 53.9023 53.9752 54.818C53.9752 55.7337 53.8831 56.4662 53.7449 57.0156C53.6068 57.565 53.3304 58.0229 52.8699 58.3891C52.4094 58.7096 51.7646 58.8927 50.9357 58.8927H49.1396V62.9675H47.1133V50.7891H47.1593ZM50.4752 57.0156C50.9357 57.0156 51.2581 56.9698 51.4883 56.8325C51.6725 56.6951 51.8107 56.512 51.8567 56.1915C51.9028 55.9168 51.9489 55.4132 51.9489 54.7722C51.9489 54.1313 51.9028 53.6734 51.8567 53.3529C51.8107 53.0782 51.6725 52.8493 51.4883 52.712C51.3041 52.5746 50.9817 52.5288 50.5212 52.5288H49.1857V56.9698H50.4752V57.0156Z" fill="white"/>
<path id="Vector_14" d="M61.2512 59.0765H57.0604C57.0604 59.8548 57.1064 60.3584 57.1525 60.6789C57.2446 60.9994 57.3827 61.1825 57.613 61.2741C57.8433 61.3657 58.2577 61.4115 58.8564 61.4115C59.4091 61.4115 60.1459 61.3657 61.0209 61.2741V62.785C60.7446 62.8765 60.3301 62.9223 59.8236 62.9681C59.317 63.0139 58.8564 63.0597 58.3959 63.0597C57.3827 63.0597 56.6459 62.9223 56.1854 62.6018C55.7248 62.2813 55.4025 61.8235 55.2643 61.2283C55.1261 60.5873 55.0801 59.6717 55.0801 58.4355C55.0801 57.1994 55.1261 56.2837 55.2643 55.6427C55.4025 55.0018 55.6788 54.5439 56.1393 54.2235C56.5998 53.903 57.2906 53.7656 58.2577 53.7656C59.2249 53.7656 59.8696 53.903 60.2841 54.2235C60.6986 54.5439 60.9288 54.956 61.067 55.5512C61.1591 56.1464 61.2051 57.1078 61.2051 58.3897V59.0765H61.2512ZM57.4748 55.597C57.2906 55.6885 57.1985 55.9174 57.1525 56.1921C57.1064 56.4668 57.0604 56.9705 57.0604 57.6572H59.4551C59.4551 56.9705 59.4091 56.4668 59.363 56.1921C59.317 55.8717 59.1788 55.6885 59.0406 55.597C58.9025 55.5054 58.6262 55.4596 58.3038 55.4596C57.9354 55.4138 57.6591 55.4596 57.4748 55.597Z" fill="white"/>
<path id="Vector_15" d="M63.7378 62.6945C63.2772 62.4198 63.0009 62.0077 62.9088 61.3668C62.7707 60.7716 62.7246 59.7643 62.7246 58.4366C62.7246 57.0631 62.7707 56.1017 62.9088 55.4607C63.047 54.8655 63.3233 54.4077 63.7378 54.1788C64.1983 53.9041 64.8891 53.8125 65.8562 53.8125C66.8233 53.8125 67.5602 53.9499 67.9747 54.1788C68.4352 54.4535 68.7115 54.8655 68.8036 55.4607C68.9418 56.0559 68.9878 57.0631 68.9878 58.4366C68.9878 59.8101 68.9418 60.7716 68.8036 61.3668C68.6654 61.962 68.3891 62.4198 67.9747 62.6945C67.5141 62.9692 66.8233 63.0608 65.8562 63.0608C64.8891 63.0608 64.1523 62.9692 63.7378 62.6945ZM66.7312 61.2294C66.8694 61.0921 67.0075 60.8632 67.0536 60.4969C67.0997 60.1306 67.0996 59.4439 67.0996 58.4366C67.0996 57.4294 67.0997 56.7426 67.0536 56.3764C67.0075 56.0101 66.9154 55.7354 66.7312 55.6438C66.5931 55.5065 66.2707 55.4607 65.8562 55.4607C65.4417 55.4607 65.1194 55.5065 64.9812 55.6438C64.8431 55.7812 64.7049 56.0101 64.6588 56.3764C64.6128 56.7426 64.6128 57.4294 64.6128 58.4366C64.6128 59.4439 64.6128 60.1306 64.6588 60.4969C64.7049 60.8632 64.797 61.1378 64.9812 61.2294C65.1194 61.3668 65.4417 61.4126 65.8562 61.4126C66.2707 61.4583 66.5931 61.3668 66.7312 61.2294Z" fill="white"/>
<path id="Vector_16" d="M70.6914 53.903H72.4414L72.5335 55.0018H72.6717C72.902 54.1777 73.5927 53.7656 74.6059 53.7656C75.2046 53.7656 75.7112 53.903 76.0336 54.1777C76.3559 54.4524 76.5862 54.9102 76.7243 55.5512C76.8625 56.1921 76.9546 57.1536 76.9546 58.3897C76.9546 59.6259 76.9086 60.5416 76.7704 61.2283C76.6322 61.9151 76.402 62.3729 76.0796 62.6476C75.7572 62.9223 75.2967 63.0596 74.652 63.0596C73.6388 63.0596 72.9941 62.6934 72.7177 61.9151H72.6256V66.3561H70.6914V53.903ZM74.6059 61.1367C74.7441 61.0452 74.8822 60.7705 74.9283 60.4042C74.9743 60.038 75.0204 59.3512 75.0204 58.4355C75.0204 57.4741 74.9743 56.8331 74.9283 56.4668C74.8822 56.1006 74.7901 55.8717 74.6059 55.7343C74.4677 55.6427 74.1454 55.5512 73.777 55.5512C73.4546 55.5512 73.2243 55.597 73.0401 55.7343C72.8559 55.8717 72.7638 56.0548 72.6717 56.3753C72.5796 56.6958 72.5796 57.3825 72.5796 58.4355C72.5796 59.3054 72.6256 59.9006 72.6717 60.2669C72.7177 60.6789 72.8559 60.9536 72.9941 61.091C73.1322 61.2283 73.4085 61.3199 73.777 61.3199C74.1914 61.3199 74.4677 61.2741 74.6059 61.1367Z" fill="white"/>
<path id="Vector_17" d="M78.5664 62.923V49.7832H80.5006V62.923H78.5664Z" fill="white"/>
<path id="Vector_18" d="M88.2844 59.0765H84.0936C84.0936 59.8548 84.1396 60.3584 84.1857 60.6789C84.2778 60.9994 84.4159 61.1825 84.6462 61.2741C84.8765 61.3657 85.2909 61.4115 85.8896 61.4115C86.4423 61.4115 87.1791 61.3657 88.0541 61.2741V62.785C87.7778 62.8765 87.3633 62.9223 86.8567 62.9681C86.3502 63.0139 85.8896 63.0597 85.4291 63.0597C84.4159 63.0597 83.6791 62.9223 83.2186 62.6018C82.758 62.2813 82.4356 61.8235 82.2975 61.2283C82.1593 60.5873 82.1133 59.6717 82.1133 58.4355C82.1133 57.1994 82.1593 56.2837 82.2975 55.6427C82.4356 55.0018 82.712 54.5439 83.1725 54.2235C83.633 53.903 84.3238 53.7656 85.2909 53.7656C86.258 53.7656 86.9028 53.903 87.3173 54.2235C87.7317 54.5439 87.962 54.956 88.1002 55.5512C88.1923 56.1464 88.2383 57.1078 88.2383 58.3897V59.0765H88.2844ZM84.508 55.597C84.3238 55.6885 84.2317 55.9174 84.1857 56.1921C84.1396 56.4668 84.0936 56.9705 84.0936 57.6572H86.4883C86.4883 56.9705 86.4423 56.4668 86.3962 56.1921C86.3502 55.8717 86.212 55.6885 86.0738 55.597C85.9357 55.5054 85.6594 55.4596 85.337 55.4596C84.9225 55.4138 84.6462 55.4596 84.508 55.597Z" fill="white"/>
<path id="Vector_19" d="M99.7507 52.9877C99.5204 53.125 99.198 53.1251 99.0138 52.9419C98.6915 52.4841 98.0007 52.2552 97.448 52.2552C96.527 52.2552 95.6059 52.6214 95.6059 53.7202C95.6059 54.819 96.3888 55.1853 97.7704 55.1853C98.0467 55.1853 98.2309 55.3227 98.2309 55.5974V56.6504C98.2309 56.9251 98.0007 57.0624 97.7704 57.0624H97.1717C96.0204 57.2456 94.9151 57.8407 94.9151 59.1227C94.9151 60.542 95.9743 61.2745 97.3099 61.2745C98.5994 61.2745 99.4283 60.3588 99.4283 58.8022V55.5974C99.4283 55.3227 99.6586 55.1853 99.9349 55.1853H102.33C102.652 55.1853 102.836 55.3227 102.836 55.5974V56.6504C102.836 56.9251 102.606 57.0624 102.33 57.0624H101.639V58.848C101.639 61.4576 100.119 63.2432 97.3099 63.2432C94.4085 63.2432 92.5664 61.5034 92.5664 59.2142C92.5664 57.7492 93.5796 56.6962 94.7309 56.0094C93.8098 55.5974 93.3033 54.7275 93.3033 53.766C93.3033 51.5226 95.2375 50.4238 97.448 50.4238C98.9217 50.4238 100.119 50.8817 100.81 51.7515C100.948 51.9347 100.856 52.1636 100.718 52.3009L99.7507 52.9877Z" fill="white"/>
<path id="Vector_20" d="M108.454 62.9225V52.6213H106.014V50.7441H112.922V52.6213H110.481V62.9225H108.454Z" fill="white"/>
<path id="Vector_21" d="M119.462 59.0765H115.271C115.271 59.8548 115.317 60.3584 115.363 60.6789C115.456 60.9994 115.594 61.1825 115.824 61.2741C116.054 61.3657 116.469 61.4115 117.067 61.4115C117.62 61.4115 118.357 61.3657 119.232 61.2741V62.785C118.956 62.8765 118.541 62.9223 118.034 62.9681C117.528 63.0139 117.067 63.0597 116.607 63.0597C115.594 63.0597 114.857 62.9223 114.396 62.6018C113.936 62.2813 113.613 61.8235 113.475 61.2283C113.337 60.5873 113.291 59.6717 113.291 58.4355C113.291 57.1994 113.337 56.2837 113.475 55.6427C113.613 55.0018 113.89 54.5439 114.35 54.2235C114.811 53.903 115.502 53.7656 116.469 53.7656C117.436 53.7656 118.081 53.903 118.495 54.2235C118.909 54.5439 119.14 54.956 119.278 55.5512C119.37 56.1464 119.416 57.1078 119.416 58.3897V59.0765H119.462ZM115.686 55.597C115.502 55.6885 115.409 55.9174 115.363 56.1921C115.317 56.4668 115.271 56.9705 115.271 57.6572H117.666C117.666 56.9705 117.62 56.4668 117.574 56.1921C117.528 55.8717 117.39 55.6885 117.252 55.597C117.113 55.5054 116.837 55.4596 116.515 55.4596C116.1 55.4138 115.824 55.4596 115.686 55.597Z" fill="white"/>
<path id="Vector_22" d="M123.836 63.0608C122.961 63.0608 122.316 62.9234 121.902 62.6029C121.487 62.2824 121.211 61.8246 121.073 61.1836C120.935 60.5427 120.889 59.627 120.889 58.4366C120.889 57.2463 120.981 56.3306 121.119 55.6896C121.257 55.0487 121.533 54.545 121.948 54.2703C122.362 53.9499 122.961 53.8125 123.79 53.8125C124.158 53.8125 124.481 53.8583 124.849 53.9041C125.218 53.9499 125.494 53.9956 125.678 54.0872V55.5981C125.172 55.5065 124.711 55.4607 124.297 55.4607C123.836 55.4607 123.514 55.5065 123.283 55.6438C123.099 55.7812 122.961 56.0559 122.869 56.4679C122.777 56.88 122.777 57.521 122.777 58.4824C122.777 59.4439 122.823 60.0848 122.869 60.4969C122.961 60.9089 123.099 61.1836 123.283 61.321C123.468 61.4583 123.836 61.5041 124.297 61.5041C124.757 61.5041 125.218 61.4583 125.724 61.3668V62.8776C125.172 63.015 124.527 63.0608 123.836 63.0608Z" fill="white"/>
<path id="Vector_23" d="M131.436 57.9776C131.436 57.1993 131.39 56.6499 131.344 56.3294C131.298 56.0089 131.206 55.8258 131.068 55.7342C130.93 55.6426 130.699 55.5968 130.331 55.5968C129.962 55.5968 129.686 55.6884 129.502 55.8258C129.318 55.9631 129.226 56.2378 129.179 56.5583C129.133 56.8788 129.133 57.474 129.133 58.2523V62.968H127.199V49.8281H129.133V55.0017H129.226C129.364 54.5896 129.64 54.2691 129.962 54.086C130.285 53.9029 130.699 53.8113 131.252 53.8113C131.851 53.8113 132.265 53.9486 132.587 54.1776C132.91 54.4065 133.094 54.727 133.232 55.1848C133.324 55.6426 133.37 56.2378 133.37 57.0619V62.968H131.436V57.9776Z" fill="white"/>
<path id="Vector_24" d="M139.403 57.9788C139.403 57.2005 139.357 56.6511 139.311 56.3306C139.265 56.0101 139.173 55.827 139.034 55.7354C138.896 55.6438 138.666 55.5981 138.298 55.5981C137.929 55.5981 137.653 55.6896 137.469 55.827C137.284 55.9643 137.192 56.239 137.146 56.5595C137.1 56.88 137.1 57.4752 137.1 58.2535V62.9692H135.166V53.9499H136.916L137.008 55.0944H137.1C137.238 54.6366 137.515 54.3161 137.837 54.133C138.159 53.9499 138.62 53.8125 139.173 53.8125C139.771 53.8125 140.232 53.9499 140.508 54.1788C140.831 54.4077 141.015 54.774 141.107 55.2318C141.199 55.6896 141.245 56.3306 141.245 57.1547V63.015H139.311V57.9788H139.403Z" fill="white"/>
<path id="Vector_25" d="M143.962 62.6945C143.502 62.4198 143.226 62.0077 143.133 61.3668C142.995 60.7716 142.949 59.7643 142.949 58.4366C142.949 57.0631 142.995 56.1017 143.133 55.4607C143.272 54.8655 143.548 54.4077 143.962 54.1788C144.423 53.9041 145.114 53.8125 146.081 53.8125C147.048 53.8125 147.785 53.9499 148.199 54.1788C148.614 54.4077 148.936 54.8655 149.028 55.4607C149.166 56.0559 149.212 57.0631 149.212 58.4366C149.212 59.8101 149.166 60.7716 149.028 61.3668C148.89 61.962 148.614 62.4198 148.199 62.6945C147.739 62.9692 147.048 63.0608 146.081 63.0608C145.114 63.0608 144.377 62.9692 143.962 62.6945ZM146.956 61.2294C147.094 61.0921 147.232 60.8632 147.278 60.4969C147.324 60.1306 147.324 59.4439 147.324 58.4366C147.324 57.4294 147.324 56.7426 147.278 56.3764C147.232 56.0101 147.14 55.7354 146.956 55.6438C146.818 55.5065 146.495 55.4607 146.081 55.4607C145.666 55.4607 145.344 55.5065 145.206 55.6438C145.068 55.7812 144.93 56.0101 144.883 56.3764C144.837 56.7426 144.837 57.4294 144.837 58.4366C144.837 59.4439 144.837 60.1306 144.883 60.4969C144.93 60.8632 145.022 61.1378 145.206 61.2294C145.344 61.3668 145.666 61.4126 146.081 61.4126C146.495 61.4126 146.818 61.3668 146.956 61.2294Z" fill="white"/>
<path id="Vector_26" d="M150.916 62.923V49.7832H152.85V62.923H150.916Z" fill="white"/>
<path id="Vector_27" d="M155.474 62.6945C155.014 62.4198 154.737 62.0077 154.645 61.3668C154.507 60.7716 154.461 59.7643 154.461 58.4366C154.461 57.0631 154.507 56.1017 154.645 55.4607C154.783 54.8655 155.06 54.4077 155.474 54.1788C155.935 53.9041 156.625 53.8125 157.593 53.8125C158.56 53.8125 159.296 53.9499 159.711 54.1788C160.125 54.4077 160.448 54.8655 160.54 55.4607C160.678 56.0559 160.724 57.0631 160.724 58.4366C160.724 59.8101 160.678 60.7716 160.54 61.3668C160.402 61.962 160.125 62.4198 159.711 62.6945C159.25 62.9692 158.56 63.0608 157.593 63.0608C156.625 63.0608 155.935 62.9692 155.474 62.6945ZM158.514 61.2294C158.652 61.0921 158.79 60.8632 158.836 60.4969C158.882 60.1306 158.882 59.4439 158.882 58.4366C158.882 57.4294 158.882 56.7426 158.836 56.3764C158.79 56.0101 158.698 55.7354 158.514 55.6438C158.375 55.5065 158.053 55.4607 157.639 55.4607C157.224 55.4607 156.902 55.5065 156.764 55.6438C156.625 55.7812 156.487 56.0101 156.441 56.3764C156.395 56.7426 156.395 57.4294 156.395 58.4366C156.395 59.4439 156.395 60.1306 156.441 60.4969C156.487 60.8632 156.579 61.1378 156.764 61.2294C156.902 61.3668 157.224 61.4126 157.639 61.4126C158.053 61.4583 158.329 61.3668 158.514 61.2294Z" fill="white"/>
<path id="Vector_28" d="M163.811 66.4029C163.351 66.3572 162.982 66.3114 162.706 66.2656V64.7547L164.686 64.8005C165.285 64.8005 165.699 64.7547 165.93 64.6174C166.16 64.5258 166.344 64.2969 166.39 63.9764C166.482 63.6559 166.482 63.1065 166.482 62.3282V61.8704H166.39C166.252 62.2824 166.022 62.5571 165.699 62.7403C165.377 62.9234 164.962 63.015 164.502 63.015C163.857 63.015 163.397 62.8776 163.074 62.6029C162.752 62.3282 162.522 61.8704 162.383 61.2294C162.245 60.5884 162.199 59.6728 162.199 58.4366C162.199 57.2005 162.291 56.2848 162.429 55.5981C162.568 54.9571 162.798 54.4535 163.166 54.2246C163.489 53.9499 163.995 53.8125 164.594 53.8125C165.607 53.8125 166.252 54.2246 166.528 55.0487H166.62L166.712 53.9499H168.508V61.8246C168.508 63.0608 168.462 63.9764 168.324 64.6174C168.186 65.2584 167.91 65.7162 167.403 66.0367C166.943 66.3572 166.206 66.4945 165.193 66.4945C164.732 66.4945 164.272 66.4487 163.811 66.4029ZM166.068 61.0463C166.252 60.9089 166.344 60.7258 166.39 60.4053C166.482 60.0848 166.528 59.3981 166.528 58.3451C166.528 57.4294 166.482 56.8342 166.436 56.4679C166.39 56.1017 166.252 55.827 166.114 55.6896C165.93 55.5523 165.699 55.5065 165.331 55.5065C164.916 55.5065 164.64 55.5523 164.502 55.6438C164.364 55.7354 164.226 55.9643 164.18 56.3306C164.133 56.6969 164.087 57.3378 164.087 58.2993C164.087 59.2149 164.133 59.8559 164.18 60.2222C164.226 60.5884 164.318 60.8632 164.502 60.9547C164.64 61.0463 164.916 61.1378 165.331 61.1378C165.653 61.2294 165.883 61.1836 166.068 61.0463Z" fill="white"/>
<path id="Vector_29" d="M171.824 66.4023C171.363 66.3565 170.995 66.3107 170.718 66.265V64.7083C171.409 64.7541 172.1 64.7541 172.699 64.7541C173.297 64.7541 173.712 64.7083 173.942 64.571C174.172 64.4336 174.357 64.2505 174.403 63.93C174.449 63.6095 174.495 63.1059 174.495 62.3276V61.7324H174.357C174.126 62.5107 173.435 62.9228 172.422 62.9228C171.778 62.9228 171.317 62.7854 170.995 62.5565C170.672 62.2818 170.488 61.9155 170.396 61.4119C170.304 60.9083 170.258 60.13 170.258 59.1685V53.9492H172.192V58.848C172.192 59.6721 172.192 60.2215 172.238 60.542C172.284 60.8625 172.376 61.0456 172.514 61.1372C172.653 61.2288 172.883 61.2746 173.251 61.2746C173.62 61.2746 173.896 61.183 174.08 61.0456C174.264 60.9083 174.357 60.6336 174.403 60.3131C174.449 59.9926 174.449 59.3974 174.449 58.6191V53.9492H176.383V61.824C176.383 63.0601 176.337 63.9758 176.199 64.6168C176.061 65.2577 175.784 65.7156 175.324 66.036C174.863 66.3565 174.126 66.4939 173.159 66.4939C172.699 66.4939 172.284 66.4481 171.824 66.4023Z" fill="white"/>
<path id="Vector_30" d="M187.759 52.9877C187.529 53.125 187.207 53.1251 187.022 52.9419C186.7 52.4841 186.009 52.2552 185.457 52.2552C184.536 52.2552 183.615 52.6214 183.615 53.7202C183.615 54.819 184.397 55.1853 185.779 55.1853C186.055 55.1853 186.24 55.3227 186.24 55.5974V56.6504C186.24 56.9251 186.009 57.0624 185.779 57.0624H185.226C184.075 57.2456 182.97 57.8407 182.97 59.1227C182.97 60.542 184.029 61.2745 185.365 61.2745C186.654 61.2745 187.483 60.3588 187.483 58.8022V55.5974C187.483 55.3227 187.713 55.1853 187.99 55.1853H190.384C190.707 55.1853 190.891 55.3227 190.891 55.5974V56.6504C190.891 56.9251 190.661 57.0624 190.384 57.0624H189.694V58.848C189.694 61.4576 188.174 63.2432 185.365 63.2432C182.463 63.2432 180.621 61.5034 180.621 59.2142C180.621 57.7492 181.634 56.6962 182.786 56.0094C181.865 55.5974 181.358 54.7275 181.358 53.766C181.358 51.5226 183.292 50.4238 185.503 50.4238C186.976 50.4238 188.174 50.8817 188.865 51.7515C189.003 51.9347 188.911 52.1636 188.772 52.3009L187.759 52.9877Z" fill="white"/>
<path id="Vector_31" d="M194.527 50.7891H198.35C199.179 50.7891 199.823 50.9264 200.284 51.2469C200.698 51.5674 201.021 51.9794 201.159 52.5746C201.297 53.124 201.389 53.9023 201.389 54.818C201.389 55.7337 201.297 56.4662 201.159 57.0156C201.021 57.565 200.744 58.0229 200.284 58.3891C199.823 58.7096 199.179 58.8927 198.35 58.8927H196.554V62.9675H194.527V50.7891ZM197.843 57.0156C198.304 57.0156 198.626 56.9698 198.856 56.8325C199.041 56.6951 199.179 56.512 199.225 56.1915C199.271 55.9168 199.317 55.4132 199.317 54.7722C199.317 54.1313 199.271 53.6734 199.225 53.3529C199.179 53.0782 199.041 52.8493 198.856 52.712C198.672 52.5746 198.35 52.5288 197.889 52.5288H196.554V56.9698H197.843V57.0156Z" fill="white"/>
<path id="Vector_32" d="M207.008 61.8246H206.916C206.778 62.2824 206.502 62.6029 206.179 62.7861C205.857 62.9692 205.397 63.1065 204.844 63.1065C204.245 63.1065 203.785 62.9692 203.508 62.7403C203.186 62.5114 203.002 62.1451 202.91 61.6873C202.818 61.2294 202.771 60.5884 202.771 59.7643V53.9041H204.706V58.8487C204.706 59.6728 204.706 60.2222 204.752 60.4969C204.798 60.8174 204.89 61.0005 205.028 61.0921C205.166 61.1836 205.397 61.2294 205.765 61.2294C206.133 61.2294 206.41 61.1378 206.594 61.0005C206.778 60.8631 206.87 60.5884 206.916 60.2222C206.962 59.8559 207.008 59.3065 207.008 58.5282V53.8125H208.943V62.8318H207.147L207.008 61.8246Z" fill="white"/>
<path id="Vector_33" d="M210.738 53.903H212.488L212.58 55.4596H212.719C212.903 54.8186 213.179 54.4066 213.501 54.1319C213.87 53.903 214.33 53.7656 214.883 53.7656V55.7801C214.33 55.7801 213.916 55.8717 213.594 56.0548C213.271 56.2379 213.041 56.5584 212.903 56.9705C212.765 57.3825 212.673 57.9777 212.673 58.756V62.9223H210.738V53.903Z" fill="white"/>
<path id="Vector_34" d="M216.127 53.903H217.877L217.969 55.0018H218.107C218.338 54.1777 219.028 53.7656 220.041 53.7656C220.64 53.7656 221.147 53.903 221.469 54.1777C221.791 54.4524 222.022 54.9102 222.16 55.5512C222.298 56.1921 222.39 57.1536 222.39 58.3897C222.39 59.6259 222.344 60.5416 222.206 61.2283C222.068 61.9151 221.838 62.3729 221.515 62.6476C221.193 62.9223 220.732 63.0596 220.088 63.0596C219.074 63.0596 218.43 62.6934 218.153 61.9151H218.061V66.3561H216.127V53.903ZM220.041 61.1367C220.18 61.0452 220.318 60.7705 220.364 60.4042C220.41 60.038 220.456 59.3512 220.456 58.4355C220.456 57.4741 220.41 56.8331 220.364 56.4668C220.318 56.1006 220.226 55.8717 220.041 55.7343C219.903 55.6427 219.581 55.5512 219.213 55.5512C218.89 55.5512 218.66 55.597 218.476 55.7343C218.337 55.8717 218.199 56.0548 218.107 56.3753C218.015 56.6958 218.015 57.3825 218.015 58.4355C218.015 59.3054 218.061 59.9006 218.107 60.2669C218.153 60.6789 218.291 60.9536 218.43 61.091C218.568 61.2283 218.844 61.3199 219.213 61.3199C219.627 61.3199 219.903 61.2741 220.041 61.1367Z" fill="white"/>
<path id="Vector_35" d="M224.832 62.6945C224.371 62.4198 224.095 62.0077 224.003 61.3668C223.864 60.7716 223.818 59.7643 223.818 58.4366C223.818 57.0631 223.864 56.1017 224.003 55.4607C224.141 54.8655 224.417 54.4077 224.832 54.1788C225.246 53.9499 225.983 53.8125 226.95 53.8125C227.917 53.8125 228.654 53.9499 229.068 54.1788C229.529 54.4535 229.805 54.8655 229.897 55.4607C230.036 56.0559 230.082 57.0631 230.082 58.4366C230.082 59.8101 230.036 60.7716 229.897 61.3668C229.759 61.962 229.483 62.4198 229.068 62.6945C228.608 62.9692 227.917 63.0608 226.95 63.0608C225.937 63.0608 225.246 62.9692 224.832 62.6945ZM227.825 61.2294C227.963 61.0921 228.101 60.8632 228.147 60.4969C228.193 60.1306 228.193 59.4439 228.193 58.4366C228.193 57.4294 228.193 56.7426 228.147 56.3764C228.101 56.0101 228.009 55.7354 227.825 55.6438C227.687 55.5065 227.364 55.4607 226.95 55.4607C226.535 55.4607 226.213 55.5065 226.075 55.6438C225.937 55.7812 225.799 56.0101 225.753 56.3764C225.707 56.7426 225.707 57.4294 225.707 58.4366C225.707 59.4439 225.707 60.1306 225.753 60.4969C225.799 60.8632 225.891 61.1378 226.075 61.2294C226.213 61.3668 226.535 61.4126 226.95 61.4126C227.364 61.4583 227.641 61.3668 227.825 61.2294Z" fill="white"/>
<path id="Vector_36" d="M232.844 63.0139C232.384 62.9681 231.969 62.9223 231.601 62.8307V61.2741C232.476 61.3657 233.167 61.4115 233.766 61.4115C234.134 61.4115 234.41 61.3657 234.595 61.3199C234.779 61.2741 234.871 61.1367 234.963 60.9994C235.009 60.862 235.055 60.6331 235.055 60.3584C235.055 60.0379 235.055 59.809 235.009 59.6717C234.963 59.5343 234.917 59.4428 234.825 59.397C234.733 59.3512 234.548 59.3054 234.318 59.2596L232.752 59.0307C232.246 58.9391 231.923 58.756 231.739 58.344C231.555 57.9777 231.463 57.3367 231.463 56.4668C231.463 55.4596 231.693 54.7271 232.2 54.3608C232.706 53.9488 233.397 53.7656 234.364 53.7656C234.733 53.7656 235.147 53.8114 235.562 53.8572C235.976 53.903 236.345 53.9945 236.575 54.0403V55.5512C235.93 55.4596 235.239 55.4138 234.595 55.4138C234.134 55.4138 233.812 55.4596 233.627 55.597C233.443 55.7343 233.351 56.009 233.351 56.4211C233.351 56.6958 233.351 56.9247 233.397 57.062C233.443 57.1994 233.489 57.2909 233.581 57.3367C233.673 57.3825 233.812 57.4283 234.042 57.4741L235.377 57.6572C235.7 57.703 236.022 57.7946 236.252 57.9319C236.483 58.0693 236.667 58.344 236.805 58.7102C236.943 59.0765 236.989 59.5801 236.989 60.2669C236.989 61.3199 236.759 62.0982 236.345 62.4645C235.884 62.8765 235.193 63.0597 234.272 63.0597C233.766 63.0597 233.305 63.0597 232.844 63.0139Z" fill="white"/>
<path id="Vector_37" d="M244.265 59.0765H240.074C240.074 59.8548 240.12 60.3584 240.166 60.6789C240.258 60.9994 240.396 61.1825 240.627 61.2741C240.857 61.3657 241.271 61.4115 241.87 61.4115C242.423 61.4115 243.16 61.3657 244.035 61.2741V62.785C243.758 62.8765 243.344 62.9223 242.837 62.9681C242.331 63.0139 241.87 63.0597 241.41 63.0597C240.396 63.0597 239.66 62.9223 239.199 62.6018C238.739 62.2813 238.416 61.8235 238.278 61.2283C238.14 60.5873 238.094 59.6717 238.094 58.4355C238.094 57.1994 238.14 56.2837 238.278 55.6427C238.416 55.0018 238.692 54.5439 239.153 54.2235C239.613 53.903 240.304 53.7656 241.271 53.7656C242.239 53.7656 242.883 53.903 243.298 54.2235C243.712 54.5439 243.942 54.956 244.081 55.5512C244.173 56.1464 244.219 57.1078 244.219 58.3897V59.0765H244.265ZM240.489 55.597C240.304 55.6885 240.212 55.9174 240.166 56.1921C240.12 56.4668 240.074 56.9705 240.074 57.6572H242.469C242.469 56.9705 242.423 56.4668 242.377 56.1921C242.331 55.8717 242.192 55.6885 242.054 55.597C241.916 55.5054 241.64 55.4596 241.317 55.4596C240.903 55.4138 240.673 55.4596 240.489 55.597Z" fill="white"/>
</g>
<defs>
<clipPath id="clip0_1710_1990">
<rect width="245.417" height="65.8823" fill="white" transform="translate(0 0.611328)"/>
</clipPath>
</defs>
</svg>
