<svg width="89" height="89" viewBox="0 0 89 89" fill="none" xmlns="http://www.w3.org/2000/svg">
<g id="Group 174">
<circle id="Ellipse 186" cx="45" cy="44" r="33" stroke="#333333" stroke-width="2" stroke-dasharray="4 4"/>
<circle id="Ellipse 187" cx="45" cy="12" r="11" stroke="#466CB2" stroke-width="2"/>
<path id="Ellipse 189" d="M77 55C70.9249 55 66 50.0751 66 44C66 37.9249 70.9249 33 77 33C83.0751 33 88 37.9249 88 44C88 50.0751 83.0751 55 77 55Z" stroke="#466CB2" stroke-width="2"/>
<circle id="Ellipse 188" cx="45" cy="77" r="11" stroke="#466CB2" stroke-width="2"/>
<path id="Ellipse 190" d="M12 55C5.92487 55 1 50.0751 1 44C1 37.9249 5.92487 33 12 33C18.0751 33 23 37.9249 23 44C23 50.0751 18.0751 55 12 55Z" stroke="#466CB2" stroke-width="2"/>
</g>
</svg>
