<svg width="314" height="314" viewBox="0 0 314 314" fill="none" xmlns="http://www.w3.org/2000/svg">
<path d="M100.265 34.2993C133.496 12.3995 180.196 16.8634 209.574 49.3698C225.636 67.1491 232.16 91.6053 248.833 109.003C267.605 128.576 290.039 147.614 298.547 174.321C307.589 202.707 299.653 235.252 279.432 256.961C254.823 283.363 218.654 275.427 184.469 275.007C44.4852 273.252 -59.5583 179.815 72.8329 64.631C83.8973 54.9401 89.2769 41.5103 100.265 34.2993Z" fill="#CCE9FF"/>
<path d="M273.404 118.578C272.679 118.807 268.864 121.63 268.864 121.63L264.362 124.53L264.171 122.889C264.171 122.889 262.34 119.226 260.089 119.379C260.089 119.379 262.798 122.698 263.141 124.911C263.484 127.124 263.637 128.65 263.637 128.65L260.661 131.588L265.621 137.96L277.258 129.261C277.258 129.261 274.129 118.349 273.404 118.578Z" fill="#DBA17B"/>
<path d="M275.731 118.578L273.709 134.793L265.621 134.984L263.675 118.578H275.731Z" fill="#FFBE55"/>
<path d="M277.486 118.808H262.225V117.206H263.674V114.688L276.074 116.519L276.112 117.435H277.486V118.999" fill="#0E538C"/>
<path d="M276.456 129.568C279.279 129.835 275.731 122.09 275.731 122.09C275.731 122.09 268.1 121.556 268.024 121.975C267.948 122.395 267.986 123.082 268.596 123.234C269.207 123.387 273.976 124.036 273.976 124.036C273.976 124.036 269.016 124.264 269.092 124.799C269.245 125.6 269.817 125.676 271.305 125.905C272.564 126.096 275.311 126.172 275.311 126.172C275.311 126.172 270.084 126.287 270.199 126.63C270.313 126.973 269.97 128.042 271.763 127.775C275.845 127.24 276.456 129.568 276.456 129.568Z" fill="#DBA17B"/>
<path d="M242.119 160.738C242.119 160.738 249.864 215.488 246.277 227.125C242.691 238.761 241.279 249.253 241.279 249.253L223.271 243.988C223.271 243.988 229.223 216.594 230.139 211.329C231.016 206.064 221.821 163.295 221.821 163.295L242.119 160.738Z" fill="#0B4870"/>
<path d="M233.61 164.667L225.102 252.686H207.895C207.895 252.686 213.465 159.516 212.473 158.715C211.481 157.99 233.61 164.667 233.61 164.667Z" fill="#0B4870"/>
<path d="M240.402 111.025C240.402 111.025 242.233 140.556 246.163 139.488C250.131 138.457 260.737 130.751 260.737 130.751L267.185 137.847C267.185 137.847 247.536 159.709 239.448 150.781C231.398 141.815 240.402 111.025 240.402 111.025Z" fill="#0B4870"/>
<path d="M235.098 267.414L236.28 261.462L223.728 256.426L221.744 265.277L222.431 265.392C225.254 266.689 238.951 273.022 241.088 273.213C243.453 273.442 235.098 267.414 235.098 267.414Z" fill="#0B4870"/>
<path d="M205.262 180.77L206.636 182.753C206.636 182.753 207.284 184.089 208.887 186.111C209.307 186.645 209.803 187.103 210.375 187.446C211.062 187.866 212.015 188.4 212.626 188.553C213.389 188.705 213.542 189.697 212.893 190.003C212.244 190.27 210.184 189.888 208.2 188.362C206.216 186.874 207.132 190.651 207.475 192.063C207.78 193.436 208.543 197.786 208.2 198.244C207.704 198.892 206.903 198.434 206.636 197.061C206.369 195.649 205.224 191.529 204.499 191.758C203.774 191.948 205.453 199.007 205.453 199.007C205.453 199.007 206.064 200.457 205.224 200.724C203.736 201.181 202.477 193.551 202.401 192.826C202.325 192.33 201.523 192.521 201.638 193.055C201.752 193.627 203.469 200.037 201.981 200.533C200.798 200.914 200.913 194.276 199.806 193.131C198.7 191.987 200.264 198.167 199.12 198.473C198.7 198.587 198.357 198.625 197.975 194.924C197.594 191.147 198.204 180.808 198.204 180.808L205.377 180.884" fill="#FFE3CA"/>
<path d="M230.176 101.105C230.024 99.9226 230.634 95.0009 230.634 95.0009C230.634 95.0009 235.136 94.6575 235.556 90.2318C235.976 85.7678 236.014 75.4665 236.014 75.4665L227.963 71.1934L218.73 77.7175L216.632 82.6011L219.379 94.2378V100.075L230.176 101.105Z" fill="#DBA17B"/>
<path d="M230.634 95.0009C230.634 95.0009 227.62 94.9246 224.797 92.8262C224.797 92.8262 226.018 96.1455 230.52 96.1073L230.634 95.0009Z" fill="#C68C6B"/>
<path d="M216.784 87.4853C218.005 90.1942 218.73 94.1621 218.73 94.1621C219.379 95.383 219.608 91.4914 219.608 91.4914C219.608 91.4914 220.18 87.7524 219.646 86.3026C219.646 86.3026 217.356 87.0275 216.86 82.9451C216.593 80.923 219.646 79.9692 220.485 82.411L222.393 82.6017C222.393 82.6017 222.545 74.9711 226.933 76.3828C226.933 76.3828 230.1 78.3286 232.007 77.1458C233.915 75.9631 233.762 75.5434 233.762 75.5434C233.762 75.5434 234.678 77.5655 237.12 76.2302C239.562 74.8948 239.867 72.5675 239.027 71.461C238.531 70.8124 238.074 70.0875 237.272 69.9349C236.471 69.7823 235.594 70.1257 235.098 70.7361C235.708 69.8586 235.288 68.5614 234.373 67.9509C233.495 67.3786 232.312 67.4168 231.321 67.7983C230.329 68.1799 229.489 68.8666 228.688 69.5534C228.116 67.9509 226.399 66.8063 224.72 66.959C223.003 67.1116 221.515 68.4851 221.21 70.1638C220.294 69.0192 218.539 68.7521 217.204 69.4007C215.869 70.0494 215.029 71.4229 214.762 72.8727C214.495 74.3225 214.8 75.8105 215.373 77.184C214.342 76.6117 212.931 77.0314 212.244 77.9852C211.557 78.939 211.557 80.2744 212.053 81.3427C212.549 82.411 213.503 83.2122 214.533 83.7463C213.77 84.3568 213.503 85.5777 213.999 86.4552C214.495 87.3327 215.64 87.7905 216.555 87.4472" fill="#0E538C"/>
<path d="M201.371 112.819C201.371 112.819 204.462 98.5879 219.379 100.076C233.038 101.449 233.038 101.449 233.038 101.449C233.038 101.449 242.424 105.417 241.089 116.596C239.791 127.775 239.143 138 239.486 139.946C239.829 141.93 243.111 159.518 242.119 160.739C232.275 172.719 207.132 153.605 207.132 153.605L201.371 112.819Z" fill="#FFBE55"/>
<path d="M219.379 100.075L215.907 183.211L205.567 177.602L206.636 103.852C206.636 103.852 209.421 99.0832 219.379 100.075Z" fill="#0E538C"/>
<path d="M197.822 182.257L201.371 112.78C202.477 108.507 204.842 105.226 207.895 102.479V183.172L197.822 182.257Z" fill="#0E538C"/>
<path d="M230.177 101.106C230.177 101.106 239.486 105.722 239.066 121.327C238.609 136.932 244.675 181.037 244.675 181.037L252.458 179.472C252.458 179.472 243.454 137.656 243.073 130.331C242.691 122.853 243.34 112.285 238.303 104.997C234.679 99.7705 230.177 101.106 230.177 101.106Z" fill="#0E538C"/>
<path d="M219.379 100.076C219.379 100.076 216.327 106.944 216.632 109.424C216.937 111.942 218.005 117.207 218.005 117.207C218.005 117.207 215.754 118.58 215.945 119.763C216.098 120.946 217.891 139.641 217.891 139.641L219.379 100.076Z" fill="#0B4870"/>
<path d="M207.895 183.211C208.848 166.424 208.619 133.841 209.573 117.016L207.895 183.211Z" fill="#0B4870"/>
<path d="M235.174 261.044C235.022 260.968 238.341 248.416 238.341 248.416L227.315 245.211L224.987 256.962L235.174 261.044Z" fill="#DBA17B"/>
<path d="M222.317 252.727H209.765V262.57H222.317V252.727Z" fill="#DBA17B"/>
<path d="M223.538 267.911L222.393 261.959H208.849L210.26 270.734L210.985 270.772C214.076 270.925 229.146 271.726 231.206 271.116C233.572 270.391 223.538 267.911 223.538 267.911Z" fill="#0B4870"/>
<path d="M117.471 74.7812C118.539 78.3676 119.608 81.954 120.676 85.5404C120.828 86.0364 120.981 86.5324 120.943 87.0284C120.905 88.5545 119.493 89.7372 118.005 90.0043C116.517 90.2714 114.991 89.8899 113.541 89.4702C113.16 90.9963 111.328 91.6449 109.764 91.9501C102.82 93.2473 95.4566 92.3316 89.0469 89.3557C91.7939 85.3878 94.0449 81.1147 95.7237 76.5744C101.18 76.8034 106.635 77.0704 112.091 77.2994C113.045 77.3375 114.037 77.3757 114.953 77.0704C115.869 76.7271 116.67 75.964 116.746 75.0102" fill="#0E538C"/>
<path d="M54.1373 121.975L52.5348 120.106C52.5348 120.106 51.3902 119.152 49.7497 117.015C49.33 116.481 49.0248 115.833 48.7958 115.184C48.5288 114.383 48.2235 113.314 48.2617 112.666C48.2998 111.865 47.346 111.483 46.8882 112.055C46.4303 112.628 46.354 114.802 47.346 117.13C48.338 119.457 44.7898 117.626 43.4926 116.939C42.1954 116.29 38.0748 114.459 37.5407 114.688C36.7776 115.031 37.0065 115.909 38.3419 116.557C39.6772 117.206 43.4544 119.343 43.111 119.991C42.7295 120.64 36.1672 117.244 36.1672 117.244C36.1672 117.244 34.87 116.29 34.4121 117.053C33.5727 118.427 40.86 121.556 41.5467 121.823C42.0427 122.013 41.6612 122.776 41.1271 122.509C40.5929 122.28 34.641 118.961 33.7635 120.335C33.1149 121.403 39.7154 122.967 40.5548 124.341C41.3941 125.714 35.6712 122.662 35.0607 123.692C34.8318 124.074 34.7173 124.417 38.3037 125.676C41.9283 126.973 52.3822 128.957 52.3822 128.957L54.061 121.784" fill="#FF957E"/>
<path d="M83.6294 105.035C83.6294 105.035 77.6775 122.242 75.8461 122.395C63.2938 123.539 49.635 118.122 49.635 118.122L46.2012 127.813C46.2012 127.813 81.7599 143.722 89.3905 128.385C97.5171 112.132 97.0974 109.575 97.0974 109.575L83.6294 105.035Z" fill="#FCD2B1"/>
<path d="M84.4316 202.325C90.8032 231.588 132.695 258.792 132.695 258.792L139.83 250.055C139.83 250.055 106.141 220.028 104.729 206.674C103.279 193.321 114.458 172.375 114.458 172.375L102.86 167.453L84.4316 202.325Z" fill="#0B4870"/>
<path d="M98.5858 95.7637C98.7765 94.5429 98.3187 89.5066 98.3187 89.5066C98.3187 89.5066 93.7022 89.0107 93.4351 84.4323C93.168 79.8539 93.4351 69.3237 93.4351 69.3237L101.829 65.2031L111.062 72.1851L109.65 95.0388L98.5858 95.7637Z" fill="#FFE3CA"/>
<path d="M110.413 75.7714C110.413 75.7714 102.859 75.0465 101.561 68.2171L93.3967 75.7714C93.3967 75.7714 90.9167 70.6971 95.4569 66.0042C99.9972 61.3114 103.088 62.2652 104.881 62.2652C106.521 62.2652 114.915 64.0584 117.395 73.5585C117.586 74.2453 117.738 75.9622 117.853 76.7253L110.413 75.7714Z" fill="#0E538C"/>
<path d="M98.3574 89.5446C98.3574 89.5446 101.448 89.5828 104.424 87.4844C104.424 87.4844 103.05 90.8419 98.4719 90.6511L98.3574 89.5446Z" fill="#FCD2B1"/>
<path d="M88.858 147.309C88.858 148.95 89.4303 151.201 89.4303 151.201L121.86 160.548C121.86 160.548 124.188 145.897 118.274 137.733C115.565 133.994 116.176 128.728 117.282 124.226L121.097 108.851L115.985 94.3906L95.573 95.7641C95.573 95.7641 83.7455 94.5814 79.625 110.224L87.2175 121.632L87.2938 125.943L88.858 147.309Z" fill="#FFBE55"/>
<path d="M120.485 141.586C120.829 141.586 126.704 154.749 121.401 162.57C120.905 163.295 119.684 165.088 118.043 167.645C110.184 179.701 92.2519 208.049 91.6415 212.207C90.9166 217.244 76.4184 270.086 76.4184 270.086L65.6211 268.369L74.4345 208.43L88.8563 147.309L120.485 141.586Z" fill="#0E538C"/>
<path d="M101.753 67.6847C101.753 67.6847 100.074 70.9277 100.799 73.3695L93.4739 75.2772C93.4739 75.239 91.7952 65.9678 101.753 67.6847Z" fill="#0E538C"/>
<path d="M117.471 76.0396C117.471 76.0396 118.31 86.5699 110.184 88.4394L110.718 75.7344L117.471 76.0396Z" fill="#0E538C"/>
<path d="M84.2018 125.104L66.0028 132.772L36.2052 133.421L21.707 108.812L52.344 106.752L65.6212 130.559L84.0873 123.387L84.2018 125.104Z" fill="#FFBE55"/>
<path d="M80.9211 107.02L75.8086 119.496L87.2545 125.18L88.3228 114.269L80.9211 107.02Z" fill="#FFBE55"/>
<path d="M102.975 93.4746L98.8164 95.2678L99.6558 103.662L104.921 94.2377L102.975 93.4746Z" fill="#FFE3CA"/>
<path d="M64.6302 268.367C64.6302 268.367 55.13 270.885 57.4955 271.61C59.861 272.335 76.305 270.542 76.305 270.542L76.8391 268.672L64.6302 268.367Z" fill="#0E538C"/>
<path d="M76.3038 270.542L79.6612 261.5H65.0867L64.6289 268.368L76.3038 270.542Z" fill="#0E538C"/>
<path d="M132.81 259.402C132.81 259.402 130.407 268.941 132.2 267.224C133.955 265.507 140.441 250.284 140.441 250.284L139.067 248.91L132.81 259.402Z" fill="#0B4870"/>
<path d="M140.402 250.284L134.107 242.959L127.049 255.664L132.81 259.403L140.402 250.284Z" fill="#0B4870"/>
<path d="M111.596 81.5334C111.558 80.7704 111.558 79.9692 111.825 79.2824C112.092 78.5575 112.703 77.9471 113.466 77.8708C114.343 77.7945 115.183 78.5194 115.335 79.3587C115.488 80.2362 114.954 81.1138 114.191 81.5716C113.428 81.9913 112.474 81.9913 111.634 81.6479" fill="#FFE3CA"/>
<path d="M106.408 147.919C106.408 147.919 105.988 105.684 107.476 102.479C107.476 102.479 109.04 94.5432 115.106 94.3906L112.398 94.6195C112.398 94.6195 106.903 94.238 105.301 105.035C103.737 115.833 103.813 148.263 103.813 148.263L106.408 147.919Z" fill="#0E538C"/>
<path d="M94.6566 149.407C94.6566 149.407 93.016 100.876 94.3132 95.7637H92.6726C92.6726 95.7637 91.2228 99.9224 91.4899 111.559C91.6806 118.541 91.4899 149.407 91.4899 149.407H94.6566Z" fill="#0E538C"/>
<path d="M75.3138 127.889C75.3138 127.889 67.3779 132.925 65.6229 132.887C63.906 132.849 58.9079 132.734 59.4421 133.421C59.9762 134.108 65.6229 135.061 65.6229 135.061L75.3138 127.889Z" fill="#FFE3CA"/>
<path d="M75.8853 138.496C75.8853 138.496 113.466 148.606 118.617 132.277C124.073 114.955 124.149 119.458 124.149 119.458L112.36 108.088C112.36 108.088 106.026 128.08 104.233 128.538C94.3514 131.056 83.1344 129.454 79.1665 128.729C78.7087 128.347 78.2127 127.927 77.6022 127.355C77.1062 126.897 76.6865 126.325 76.3813 125.715C75.9998 124.952 75.5419 123.96 75.4656 123.311C75.3512 122.51 74.3592 122.281 74.0158 122.891C73.6724 123.502 73.9014 125.676 75.2749 127.813C75.2749 127.813 66.3089 133.574 65.584 134.948L75.8853 138.496Z" fill="#FFE3CA"/>
<path d="M115.984 94.3906C115.984 94.3906 124.568 96.0312 124.912 109.537C125.255 123.044 119.799 133.383 119.799 133.383L105.225 125.791L115.984 94.3906Z" fill="#FFBE55"/>
<path d="M190.842 227.697H151.468C149.636 227.697 148.148 226.209 148.148 224.378C148.148 222.547 149.636 221.059 151.468 221.059H190.804C192.635 221.059 194.123 222.547 194.123 224.378C194.161 226.209 192.673 227.697 190.842 227.697Z" fill="#D3D3D3"/>
<path d="M162.998 266.281V269.639H196.878V266.281H162.998Z" fill="#0B4870"/>
<path d="M166.117 268.981C166.422 270.736 165.239 272.377 163.484 272.644C161.729 272.949 160.089 271.767 159.821 270.011C159.516 268.256 160.699 266.616 162.454 266.349C164.209 266.044 165.85 267.226 166.117 268.981Z" fill="#0B4870"/>
<path d="M181.455 225.523H178.098V267.644H181.455V225.523Z" fill="#0B4870"/>
<path d="M199.996 268.981C200.301 270.736 199.118 272.377 197.363 272.644C195.608 272.949 193.967 271.767 193.7 270.011C193.395 268.256 194.578 266.616 196.333 266.349C198.088 266.044 199.729 267.226 199.996 268.981Z" fill="#0B4870"/>
<path d="M201.141 227.699H163.98C161.462 227.699 159.63 225.219 160.355 222.739L178.096 161.541C178.554 159.9 180.042 158.756 181.721 158.756H218.882C221.4 158.756 223.232 161.236 222.507 163.716L204.765 224.913C204.308 226.592 202.82 227.699 201.141 227.699Z" fill="#D3D3D3"/>
<path d="M196.028 227.697H163.636C161.118 227.697 159.287 225.217 160.012 222.737L177.753 161.539C178.211 159.898 179.699 158.754 181.377 158.754H213.769C216.287 158.754 218.119 161.234 217.394 163.714L199.653 224.911C199.195 226.59 197.707 227.697 196.028 227.697Z" fill="#F2F2F2"/>
<path d="M201.143 227.697H161.769C159.937 227.697 158.449 226.209 158.449 224.378C158.449 222.547 159.937 221.059 161.769 221.059H201.104C202.936 221.059 204.424 222.547 204.424 224.378C204.462 226.209 202.974 227.697 201.143 227.697Z" fill="#D3D3D3"/>
<path d="M168.596 175.732L159.859 198.968L161.92 203.508L173.709 201.448L177.066 176.61L168.596 175.732Z" fill="#FCD2B1"/>
<path d="M173.901 164.439C173.901 164.439 166.995 168.064 165.469 179.968L174.587 184.966L173.901 164.439Z" fill="#2A94F4"/>
<path d="M185.042 159.9L174.168 164.478L165.584 202.67L194.275 213.963L209.574 170.392C209.574 170.392 207.095 161.312 192.749 158.984L185.042 159.9Z" fill="#2A94F4"/>
<path d="M214.037 204.728C214.037 204.232 213.732 201.218 213.579 200.722L208.848 170.466C207.932 166.308 203.278 164.209 199.577 166.27C196.83 167.796 195.609 171.039 196.677 173.977L202.286 199.959L214.037 204.728Z" fill="#FFE3CA"/>
<path d="M207.589 198.281L175.579 195.801L173.977 201.447L204.804 211.863C209.535 213.466 214.381 209.727 214.037 204.729C213.808 201.295 211.061 198.548 207.589 198.281Z" fill="#FFE3CA"/>
<path d="M205.644 165.355C205.644 165.355 209.726 167.11 211.481 177.717L197.059 182.142C197.059 182.142 187.635 171.574 197.708 164.516L205.644 165.355Z" fill="#2A94F4"/>
<path d="M165.546 201.791C166.729 204.92 172.642 205.073 175.809 203.89C178.938 202.707 182.181 200.914 180.998 197.747C179.815 194.619 174.588 192.749 171.154 193.512C166.996 194.466 164.363 198.625 165.546 201.791Z" fill="#FFE3CA"/>
<path d="M182.981 206.063L160.127 203.126L160.47 200.531L183.324 203.469C184.049 203.545 184.545 204.194 184.431 204.919C184.316 205.644 183.667 206.14 182.981 206.063Z" fill="#F2F2F2"/>
<path d="M163.141 203.508L132.848 199.617C131.093 199.388 129.719 198.052 129.49 196.297L126.324 174.321C126.056 172.375 127.697 170.697 129.643 170.964L157.456 174.55C158.639 174.703 159.555 175.618 159.708 176.763L163.141 203.508Z" fill="#F2F2F2"/>
<path d="M126.934 261.539L119.074 264.782L114.114 265.164C111.825 265.316 109.917 266.995 109.459 269.208L109.23 270.238L136.167 273.595L136.701 262.76L126.934 261.539Z" fill="#0B4870"/>
<path d="M136.701 262.761L139.333 250.972L129.604 249.637L126.934 261.54L136.701 262.761Z" fill="#FFE3CA"/>
<path d="M194.273 213.963C194.273 213.963 193.51 220.487 181.797 221.365H153.64L140.362 258.411L126.398 256.16L140.362 201.754L172.373 205.302L194.273 213.963Z" fill="#0B4870"/>
<path d="M104.385 240.25L95.9535 238.991L91.4896 236.74C89.4293 235.71 86.9493 236.167 85.3851 237.808L84.6602 238.571L106.026 255.282L112.054 246.278L104.385 240.25Z" fill="#0E538C"/>
<path d="M112.13 246.315L119.455 237.006L111.748 230.863L104.385 240.249L112.13 246.315Z" fill="#FFE3CA"/>
<path d="M165.582 202.669L143.873 196.183C142.957 195.916 142.08 195.573 141.164 195.268C139.294 194.543 134.563 193.551 130.901 199.159C126.208 206.37 107.398 233.459 107.398 233.459L118.883 241.929L143.949 209.995C146.048 207.095 149.405 205.378 152.991 205.378L172.373 205.34L165.582 202.669Z" fill="#0E538C"/>
<path d="M193.511 147.996C193.892 147.271 200.607 135.291 194.465 132.277C194.465 132.277 193.663 125.943 186.605 126.63C179.547 127.317 181.454 129.377 176.952 128.347C172.45 127.317 168.215 129.644 168.559 133.421C168.902 137.199 171.763 138.801 176.952 137.885C182.141 136.97 186.262 137.656 186.262 137.656L190.611 138.915L193.511 147.996Z" fill="#FFBE55"/>
<path d="M194.35 160.967L193.815 145.744L183.285 149.483L184.125 161.692C184.315 164.515 185.88 166.728 188.703 166.538L189.58 166.499C192.404 166.232 194.54 163.791 194.35 160.967Z" fill="#FFE3CA"/>
<path d="M192.902 147.844C192.902 147.844 194.886 160.549 184.051 161.274L183.555 155.245L192.902 147.844Z" fill="#FCD2B1"/>
<path d="M183.972 158.45H184.353C189.771 158.183 193.93 153.604 193.663 148.187L193.129 137.122C193.052 135.711 191.87 134.642 190.458 134.719L177.562 135.329C175.082 135.444 173.136 137.58 173.251 140.06L173.671 149.102C173.976 154.52 178.554 158.679 183.972 158.45Z" fill="#FFE3CA"/>
<path d="M191.183 144.867C191.259 146.698 192.823 148.11 194.655 147.996C196.486 147.919 197.898 146.355 197.783 144.524C197.707 142.692 196.143 141.281 194.311 141.395C192.518 141.471 191.106 143.036 191.183 144.867Z" fill="#FFE3CA"/>
<path d="M189.62 136.016L190.269 148.339C190.345 149.446 189.887 150.59 188.934 151.201C188.361 151.621 187.904 152.155 186.873 152.002C183.936 151.582 185.309 149.408 179.319 149.713C173.863 150.018 174.283 153.032 174.283 153.032C174.283 153.032 175.351 158.793 182.829 159.06C190.307 159.327 194.046 154.596 193.169 148.301L192.444 135.291L189.62 136.016Z" fill="#FFBE55"/>
<path d="M173.633 138.114C173.633 138.114 177.105 138.649 182.179 137.428C187.215 136.169 191.221 140.251 191.221 140.251C191.221 140.251 192.29 142.121 192.557 142.082C192.824 142.044 194.35 141.434 194.35 141.434L194.274 135.749L190.573 132.849L180.31 132.43L174.243 133.765L173.633 138.114Z" fill="#FFBE55"/>
</svg>
