<svg width="498" height="431" viewBox="0 0 498 431" fill="none" xmlns="http://www.w3.org/2000/svg">
<path d="M485.759 430.999H5.43583C2.59682 430.999 0.287109 428.689 0.287109 425.85V403.475C0.287109 400.636 2.59682 398.326 5.43583 398.326H485.807C488.646 398.326 490.956 400.636 490.956 403.475V425.85C490.908 428.689 488.598 430.999 485.759 430.999Z" fill="#F2F2F2"/>
<path d="M393.322 80C415.138 80 432.822 62.3152 432.822 40.5C432.822 18.6848 415.138 1 393.322 1C371.507 1 353.822 18.6848 353.822 40.5C353.822 62.3152 371.507 80 393.322 80Z" stroke="#D3D3D3" stroke-miterlimit="10" stroke-dasharray="11.93 11.93"/>
<path d="M469.688 64.4315V328.604C469.688 331.78 467.089 334.379 463.913 334.379H57.7899C54.614 334.379 52.0156 331.78 52.0156 328.604V64.4315C52.0156 61.2556 54.614 58.6572 57.7899 58.6572H463.913C467.089 58.6572 469.688 61.2556 469.688 64.4315Z" stroke="#DCF2FF" stroke-width="5" stroke-miterlimit="10"/>
<path d="M449.621 46.0975V310.27C449.621 313.446 447.023 316.045 443.847 316.045H37.7235C34.5476 316.045 31.9492 313.446 31.9492 310.27V46.0975C31.9492 42.9217 34.5476 40.3232 37.7235 40.3232H443.847C447.023 40.3232 449.621 42.9217 449.621 46.0975Z" fill="#DCF2FF"/>
<path d="M96.0925 78.6745C113.993 78.6745 128.573 93.2545 128.573 111.155C128.573 129.055 113.993 143.635 96.0925 143.635C78.1923 143.635 63.6123 129.055 63.6123 111.155C63.6123 93.2545 78.1923 78.6745 96.0925 78.6745ZM96.0925 68.1846C72.3218 68.1846 53.0742 87.4321 53.0742 111.203C53.0742 134.974 72.3218 154.221 96.0925 154.221C119.863 154.221 139.111 134.974 139.111 111.203C139.111 87.4321 119.863 68.1846 96.0925 68.1846Z" fill="#0D4972"/>
<path d="M96.0925 68.1846C72.3218 68.1846 53.0742 87.4321 53.0742 111.203C53.0742 134.974 72.3218 154.221 96.0925 154.221C119.863 154.221 139.111 134.974 139.111 111.203H128.573C128.573 129.103 113.993 143.683 96.0925 143.683C78.1923 143.683 63.6123 129.103 63.6123 111.203C63.6123 93.3026 78.1923 78.7226 96.0925 78.7226V68.1846Z" fill="#2A94F4"/>
<path d="M208.21 118.373C209.316 132.664 198.586 145.223 184.247 146.33C169.955 147.437 157.396 136.706 156.289 122.367C155.183 108.027 165.913 95.5163 180.253 94.4095C194.544 93.3028 207.103 104.033 208.21 118.373ZM216.582 117.699C215.091 98.7402 198.538 84.5452 179.579 85.9887C160.62 87.4804 146.425 104.033 147.869 122.992C149.36 141.951 165.913 156.146 184.872 154.703C203.831 153.259 218.074 136.706 216.582 117.699Z" fill="#0D4972"/>
<path d="M216.582 117.699C215.091 98.7402 198.538 84.5452 179.579 85.9887C160.62 87.4804 146.425 104.033 147.869 122.992C149.36 141.951 165.913 156.146 184.872 154.703L184.198 146.282C169.907 147.388 157.348 136.658 156.241 122.318C155.135 107.979 165.865 95.4682 180.205 94.3614C194.496 93.2547 207.055 103.985 208.162 118.325L216.582 117.699Z" fill="#2A94F4"/>
<path d="M426.525 100.713H230.922V107.113H426.525V100.713Z" fill="#F9F9F9"/>
<path d="M358.822 115.967H230.922V122.222H358.822V115.967Z" fill="#F9F9F9"/>
<path d="M426.525 131.27H230.922V137.525H426.525V131.27Z" fill="#F9F9F9"/>
<path d="M426.525 146.521H230.922V152.777H426.525V146.521Z" fill="#F9F9F9"/>
<path d="M426.524 179.771H344V298.673H426.524V179.771Z" fill="#2A94F4"/>
<path d="M281.832 239.778L314.986 206.576C323.214 215.815 328.026 227.412 328.748 239.778H281.832Z" fill="#F9F9F9"/>
<path d="M235.156 199.309C245.213 190.359 258.013 185.451 271.534 185.451C285.104 185.451 297.903 190.359 307.912 199.261L271.534 235.687L235.156 199.309Z" fill="#2A94F4"/>
<path d="M321.77 250.123C320.326 276.878 298.143 298.146 271.004 298.146C242.903 298.146 220.143 275.386 220.143 247.284C220.143 234.244 225.051 222.311 233.135 213.312L233.183 213.361L269.946 250.123H321.77Z" fill="#FFBE55"/>
<path d="M128.765 188.578H51.582V196.47H128.765V188.578Z" fill="#0069FF"/>
<path d="M182.225 202.438H51.582V205.18H182.225V202.438Z" fill="#F9F9F9"/>
<path d="M182.225 209.992H51.582V212.735H182.225V209.992Z" fill="#F9F9F9"/>
<path d="M182.225 217.547H51.582V220.29H182.225V217.547Z" fill="#F9F9F9"/>
<path d="M182.225 225.1H51.582V227.842H182.225V225.1Z" fill="#F9F9F9"/>
<path d="M119.093 232.605H51.582V235.348H119.093V232.605Z" fill="#F9F9F9"/>
<path d="M128.765 249.592H51.582V257.483H128.765V249.592Z" fill="#0069FF"/>
<path d="M182.225 263.496H51.582V266.239H182.225V263.496Z" fill="#F9F9F9"/>
<path d="M182.225 271.053H51.582V273.796H182.225V271.053Z" fill="#F9F9F9"/>
<path d="M182.225 278.561H51.582V281.303H182.225V278.561Z" fill="#F9F9F9"/>
<path d="M182.225 286.115H51.582V288.858H182.225V286.115Z" fill="#F9F9F9"/>
<path d="M119.093 293.67H51.582V296.413H119.093V293.67Z" fill="#F9F9F9"/>
<path d="M175.535 152.922V147.629C175.535 147.629 173.61 142.335 171.686 138.486C173.129 138.967 175.535 142.335 175.535 142.335C175.535 142.335 176.497 134.155 175.535 132.23C181.791 137.524 181.791 139.448 181.791 139.448L179.385 148.11L179.866 154.846L175.535 152.922Z" fill="#D3B192"/>
<path d="M85.0716 276.586L82.1844 281.879C82.1844 281.879 76.4102 285.729 76.4102 287.653C76.4102 289.578 76.4102 291.984 76.4102 291.984L80.7409 297.277C80.7409 297.277 84.5904 286.691 85.0716 287.172C85.5528 289.578 85.5528 292.465 86.5151 292.946C86.9963 290.059 85.5528 282.841 87.4775 280.435C89.4023 278.03 85.0716 276.586 85.0716 276.586Z" fill="#D3B192"/>
<path d="M93.4412 391.508L84.8066 390.83L83.3381 409.538L91.9727 410.216L93.4412 391.508Z" fill="#FFE3CA"/>
<path d="M83.3386 409.586C79.6815 413.147 77.035 415.841 76.8906 417.766C80.0665 420.413 90.4602 423.155 95.4645 420.653C96.475 413.965 91.9518 410.26 91.9518 410.26L83.3386 409.586Z" fill="#0D2B46"/>
<path d="M144.257 391.109H135.596V409.876H144.257V391.109Z" fill="#FFE3CA"/>
<path d="M138.723 256.137C144.497 273.941 166.632 346.6 147.866 399.05C139.926 404.584 131.265 399.29 131.265 399.29C131.265 399.29 111.777 322.06 117.07 290.782C122.363 259.505 123.085 256.137 123.085 256.137H138.723Z" fill="#0D2B46"/>
<path d="M128.86 184.918H121.883V199.835H128.86V184.918Z" fill="#D3B192"/>
<path d="M137.232 181.264C137.232 188.337 134.538 194.111 128.811 194.111C123.085 194.111 116.541 188.385 116.541 181.264C116.541 174.19 121.16 168.416 126.887 168.416C132.613 168.416 137.232 174.19 137.232 181.264Z" fill="#D3B192"/>
<path d="M135.114 168.609C133.575 174.72 132.42 188.915 123.999 193.871C118.658 196.566 102.923 182.371 110.574 169.764C118.273 157.157 134.344 165.193 135.114 168.609Z" fill="#0E538C"/>
<path d="M115.963 177.077C122.102 177.077 127.079 172.1 127.079 165.961C127.079 159.822 122.102 154.846 115.963 154.846C109.824 154.846 104.848 159.822 104.848 165.961C104.848 172.1 109.824 177.077 115.963 177.077Z" fill="#0E538C"/>
<path d="M121.882 199.837C113.22 200.799 100.71 207.054 100.71 207.054C100.71 207.054 86.2739 261.91 83.3867 278.752C87.7174 281.639 89.161 283.082 89.161 283.082L105.521 229.189L111.777 256.136H138.723L144.979 221.49C144.979 221.49 185.399 201.761 182.031 153.161C174.331 149.793 174.331 149.793 174.331 149.793C174.331 149.793 176.256 201.28 138.723 200.318C138.723 200.318 126.694 197.912 121.882 199.837Z" fill="#FFBE55"/>
<path d="M111.825 256.137C94.9834 285.489 73.8111 360.074 81.5101 400.975C89.4497 407.471 95.9458 400.975 95.9458 400.975C95.9458 400.975 124.817 337.939 124.336 292.707C126.261 265.76 124.336 256.137 124.336 256.137H111.825Z" fill="#0D2B46"/>
<path d="M135.597 409.875C132.228 413.725 129.822 416.612 129.822 418.536C133.191 420.942 143.777 422.867 148.589 419.98C149.07 413.243 144.258 409.875 144.258 409.875H135.597Z" fill="#0D2B46"/>
<path d="M457.707 368.11C453.761 349.585 441.491 333.032 424.986 323.793C433.84 340.49 444.378 356.225 456.504 370.757L457.707 368.11Z" fill="#1A87D8"/>
<path d="M462.134 375.087C446.399 353.097 438.508 325.573 440.192 298.578C450.393 323.504 458.092 349.44 463.145 375.857L462.134 375.087Z" fill="#2A94F4"/>
<path d="M457.659 375.858C457.178 362.336 456.697 348.671 458.814 335.294C460.931 321.917 465.839 308.684 474.934 298.627C476.329 326.343 469.593 354.397 455.879 378.504L457.659 375.858Z" fill="#1A87D8"/>
<path d="M458.285 377.062C449.432 351.463 450.875 322.495 462.231 297.906C469.353 323.602 463.049 350.837 456.746 376.725L458.285 377.062Z" fill="#B0E1FF"/>
<path d="M459.488 367.583C461.942 345.112 476.907 324.469 497.502 315.182C489.177 337.557 474.886 357.719 456.553 373.069L459.488 367.583Z" fill="#2A94F4"/>
<path d="M480.66 363.637L478.11 407.233C478.11 409.35 476.378 411.034 474.309 411.034H444.09C441.973 411.034 440.289 409.302 440.289 407.233L439.711 397.369L437.738 363.637C437.738 361.52 439.471 359.836 441.54 359.836H476.859C478.254 359.836 479.457 360.558 480.131 361.664C480.468 362.242 480.66 362.916 480.66 363.637Z" fill="#CCE9FF"/>
<path d="M480.66 363.637L478.11 407.233C478.11 409.35 476.377 411.034 474.308 411.034H444.09C441.973 411.034 440.288 409.302 440.288 407.233L439.711 397.368C453.81 393.326 468.342 375.907 480.131 361.664C480.468 362.241 480.66 362.915 480.66 363.637Z" fill="#CCE9FF"/>
<path d="M32.6238 382.934C30.0254 370.808 22.0377 359.981 11.2109 353.918C16.9852 364.841 23.9143 375.138 31.8539 384.666L32.6238 382.934Z" fill="#1A87D8"/>
<path d="M35.5107 387.502C25.2132 373.114 20.0164 355.118 21.1231 337.41C27.8116 353.722 32.8641 370.708 36.1362 388.031L35.5107 387.502Z" fill="#2A94F4"/>
<path d="M32.5767 387.983C32.2399 379.129 31.9512 370.179 33.3466 361.421C34.7421 352.664 37.966 344.002 43.9328 337.41C44.8471 355.551 40.4682 373.932 31.4219 389.715L32.5767 387.983Z" fill="#1A87D8"/>
<path d="M32.96 388.803C27.1376 372.057 28.1 353.05 35.5584 336.979C40.2259 353.772 36.0877 371.624 31.9495 388.562L32.96 388.803Z" fill="#B0E1FF"/>
<path d="M33.7314 382.594C35.3193 367.918 45.1356 354.348 58.6089 348.285C53.1233 362.961 43.7882 376.146 31.8066 386.203L33.7314 382.594Z" fill="#2A94F4"/>
<path d="M47.6379 379.996L45.9537 408.531C45.9537 409.926 44.847 411.033 43.4515 411.033H23.6746C22.2792 411.033 21.1724 409.926 21.1724 408.531L20.7875 402.083L19.4883 379.996C19.4883 378.601 20.595 377.494 21.9905 377.494H45.1357C46.0499 377.494 46.8198 377.975 47.2529 378.697C47.4935 379.082 47.6379 379.515 47.6379 379.996Z" fill="#CCE9FF"/>
<path d="M47.6375 379.998L45.9533 408.533C45.9533 409.928 44.8466 411.035 43.4511 411.035H23.6742C22.2788 411.035 21.1721 409.928 21.1721 408.533L20.7871 402.085C30.0259 399.438 39.5535 388.034 47.2525 378.699C47.4931 379.084 47.6375 379.517 47.6375 379.998Z" fill="#CCE9FF"/>
</svg>
