<svg width="96" height="85" viewBox="0 0 96 85" fill="none" xmlns="http://www.w3.org/2000/svg">
<g id="Group 191">
<path id="Ellipse 200 (Stroke)" d="M40.172 2.22153L40.877 2.9266L40.172 2.22153L33.808 8.58549C33.027 9.36654 33.027 10.6329 33.808 11.4139L40.172 17.7779C40.953 18.5589 42.2194 18.5589 43.0004 17.7779C43.7815 16.9968 43.7815 15.7305 43.0004 14.9495L40.5028 12.4518C46.7095 13.523 52.4799 16.4657 56.9914 20.939C62.7615 26.6601 66 34.4161 66 42.4997C66 50.5833 62.7615 58.3393 56.9914 64.0605C51.2208 69.7822 43.3905 72.9997 35.2222 72.9997H9C7.89543 72.9997 7 73.8951 7 74.9997C7 76.1043 7.89543 76.9997 9 76.9997H35.2222C44.4404 76.9997 53.2844 73.369 59.8078 66.9009C66.3317 60.4322 70 51.6552 70 42.4997C70 33.3442 66.3317 24.5672 59.8078 18.0985C54.3632 12.7001 47.3022 9.27822 39.7563 8.29403L43.0004 5.04996C43.7815 4.26891 43.7815 3.00258 43.0004 2.22153C42.2194 1.44048 40.953 1.44048 40.172 2.22153Z" fill="#333333" stroke="#F6F6F6" stroke-width="2"/>
<path id="Ellipse 201 (Stroke)" d="M85.2218 82.7785L85.9289 82.0714L85.2218 82.7785C86.0029 83.5595 87.2692 83.5595 88.0503 82.7785L94.4142 76.4145C95.1953 75.6335 95.1953 74.3671 94.4142 73.5861L88.0503 67.2221C87.2692 66.4411 86.0029 66.4411 85.2218 67.2221C84.4408 68.0032 84.4408 69.2695 85.2218 70.0505L88.1716 73.0003L35.3741 73.0003C27.3262 73.0003 19.603 69.7647 13.9049 63.9973C8.20592 58.229 5.00001 50.4006 5.00001 42.2328C5.00001 34.065 8.20592 26.2365 13.9049 20.4683C16.7753 17.5629 20.1595 15.3003 23.8398 13.77C25.7911 12.9586 27.8256 12.3531 29.911 11.9669C30.9971 11.7657 31.7145 10.7222 31.5133 9.63606C31.3122 8.54996 30.2686 7.8326 29.1825 8.03375C26.819 8.47151 24.514 9.15762 22.3041 10.0765C18.1355 11.8099 14.3055 14.3715 11.0594 17.657C4.61575 24.179 1.00001 33.0196 1.00001 42.2328C1.00001 51.4459 4.61575 60.2866 11.0594 66.8086C17.5039 73.3313 26.2497 77.0003 35.3741 77.0003L88.1716 77.0003L85.2218 79.95L85.9289 80.6572L85.2218 79.95C84.4408 80.7311 84.4408 81.9974 85.2218 82.7785Z" fill="#466CB2" stroke="#F6F6F6" stroke-width="2"/>
<circle id="Ellipse 48" cx="35" cy="43" r="14" stroke="#333333" stroke-width="2"/>
<path id="Vector" d="M40.8333 39.667L33.3333 47.167L30 43.8337" stroke="#466CB2" stroke-width="2" stroke-linecap="round" stroke-linejoin="round"/>
</g>
</svg>
