<svg width="164" height="168" viewBox="0 0 164 168" fill="none" xmlns="http://www.w3.org/2000/svg">
<g id="teamwork" clip-path="url(#clip0_1293_25332)">
<g id="Background">
<path id="Vector" opacity="0.1" d="M17.3968 147.926C36.3185 164.382 102.547 175.299 141.594 137.657C180.642 100.014 150.754 -2.82353 82.031 7.0278C13.3083 16.8791 27.2128 44.9876 21.3486 66.936C15.4845 88.8844 -1.52501 131.47 17.3968 147.926Z" fill="#2A94F4"/>
<path id="Vector_2" opacity="0.1" d="M113.218 163.217C125.772 163.217 135.949 161.888 135.949 160.248C135.949 158.609 125.772 157.28 113.218 157.28C100.664 157.28 90.4873 158.609 90.4873 160.248C90.4873 161.888 100.664 163.217 113.218 163.217Z" fill="#2A94F4"/>
<path id="Vector_3" opacity="0.1" d="M48.8627 162.53C62.9643 162.53 74.3958 161.049 74.3958 159.222C74.3958 157.396 62.9643 155.915 48.8627 155.915C34.7612 155.915 23.3296 157.396 23.3296 159.222C23.3296 161.049 34.7612 162.53 48.8627 162.53Z" fill="#2A94F4"/>
<path id="Vector_4" opacity="0.1" d="M82.8793 168C96.9809 168 108.412 166.975 108.412 165.71C108.412 164.446 96.9809 163.421 82.8793 163.421C68.7778 163.421 57.3462 164.446 57.3462 165.71C57.3462 166.975 68.7778 168 82.8793 168Z" fill="#2A94F4"/>
</g>
<g id="Charafcter 1">
<g id="Group">
<g id="Group_2">
<path id="Vector_5" d="M96.2599 22.9775C96.2599 22.9775 95.2518 19.729 95.3403 19.3034C95.3946 19.0416 96.0226 17.4307 96.2336 16.9024C96.312 16.7058 96.3915 16.5058 96.4105 16.2942C96.43 16.0778 96.3852 15.8604 96.3319 15.649C96.1846 15.0622 95.971 14.4935 95.7581 13.9265C95.7015 13.7758 95.6442 13.6239 95.5594 13.4869C95.4565 13.3209 95.3163 13.1814 95.1768 13.0445C94.3795 12.2621 93.5579 11.5045 92.7134 10.7729C92.6687 10.7343 92.6201 10.6939 92.5615 10.6877C92.4216 10.6726 91.9452 11.6103 91.9316 11.827C91.8759 12.7312 92.0723 13.6524 92.4932 14.4619C92.5769 14.6231 92.6706 14.7827 92.7104 14.9594C92.8161 15.4282 92.5277 15.8781 92.3832 16.3336C92.2526 16.7452 92.1177 17.1852 92.0622 17.6139C91.9603 18.3998 92.6472 18.9338 92.7493 19.0785C92.8059 19.1586 92.8231 19.2586 92.84 19.3546C92.9511 19.981 93.1568 22.3243 93.1568 22.3243" fill="#FCD2B1"/>
</g>
<g id="Group_3">
<path id="Vector_6" d="M109.422 29.2539C108.524 29.8677 108.421 31.3234 108.373 32.3118C108.315 33.5024 108.482 34.6934 108.718 35.8577C108.883 36.668 109.098 37.5071 109.646 38.1265C109.926 38.4427 110.278 38.6845 110.627 38.9228C110.825 39.058 111.027 39.1952 111.257 39.261C111.487 39.3266 111.754 39.3098 111.939 39.1583C112.21 38.9369 112.214 38.5328 112.197 38.184C112.082 35.9104 112.013 33.5961 112.592 31.3942" fill="#0B4870"/>
</g>
<g id="Group_4">
<path id="Vector_7" d="M103.383 153.699C103.383 153.699 103.363 155.843 103.515 156.604C103.667 157.365 106.121 157.12 106.356 156.687C106.591 156.254 106.298 152.709 106.298 152.709" fill="#FCD2B1"/>
<path id="Vector_8" d="M107.066 157.419C107.133 158.223 107.129 159.741 107.129 159.741L104.613 160.348L104.293 159.92C104.293 159.92 103.59 160.521 102.815 160.726C102.239 160.878 101.036 160.995 100.442 160.955C98.3634 160.815 96.9296 160.168 96.8583 159.864C96.5604 158.594 99.3227 158.753 99.8847 158.706C101.499 158.572 102.586 157.414 102.901 156.589C103.129 155.991 102.995 155.855 103.338 155.935C103.338 155.935 103.644 155.973 103.874 156.312C104.227 156.833 104.842 157.15 105.466 156.99C105.823 156.898 106.176 156.734 106.416 156.446C106.416 156.446 106.999 156.615 107.066 157.419Z" fill="#0B4870"/>
</g>
<path id="Vector_9" d="M108.187 127.375C107.948 123.607 110.993 118.564 110.993 118.564C110.993 118.564 102.772 114.049 102.648 112.645C102.648 112.645 101.523 120.399 101.119 123.135C100.418 127.886 102.789 154.993 102.789 154.993C102.789 154.993 104.51 155.47 106.795 155.049C106.795 155.049 107.222 144.578 108.934 137.486C109.746 134.123 108.47 128.307 108.187 127.375Z" fill="#0E538C"/>
<path id="Vector_10" d="M108.846 83.9299C105.76 90.8149 102.409 113.032 101.605 120.701C101.265 123.953 103.974 127.764 107.128 124.824C110.894 121.313 116.192 105.232 118.085 102.394C119.978 99.5551 127.061 96.9529 122.224 82.5498" fill="#0E538C"/>
<g id="Group_5">
<path id="Vector_11" d="M122.704 153.833C122.704 153.833 122.982 156.857 123.091 157.625C123.2 158.394 125.664 158.285 125.923 157.866C126.182 157.447 126.087 153.891 126.087 153.891" fill="#FCD2B1"/>
<path id="Vector_12" d="M126.619 158.503C126.673 159.308 126.537 160.635 126.537 160.635L123.702 160.825L123.531 160.361C123.531 160.361 122.644 160.896 121.921 160.945L119.528 161.105C117.777 161.223 116.768 161.067 116.702 160.762C116.431 159.486 118.527 159.404 119.072 159.368C120.636 159.263 122.281 158.417 122.597 157.598C122.826 157.004 122.698 156.866 123.029 156.952C123.029 156.952 123.324 156.995 123.543 157.339C123.878 157.866 124.468 158.195 125.075 158.045C125.422 157.96 125.765 157.802 126.002 157.519C126.002 157.519 126.565 157.698 126.619 158.503Z" fill="#0B4870"/>
</g>
<path id="Vector_13" d="M116.542 126.93C117.064 129.61 124.065 128.609 123.914 126.236C123.699 122.863 126.064 118.503 126.97 102.446C127.074 100.611 128.913 100.342 129.636 95.3532C130.351 90.3553 127.39 84.8236 127.39 84.8236L116.618 83.2822C116.618 83.2822 112.478 92.6204 113.334 101.932C114.19 111.243 115.923 123.776 116.542 126.93Z" fill="#0E538C"/>
<path id="Vector_14" d="M123.895 125.673C123.895 125.673 126.344 130.523 126.631 134.029C127.052 139.158 126.532 156.041 126.532 156.041C126.532 156.041 123.883 156.616 122.469 156.2C122.469 156.2 116.25 126.245 116.022 123.024C115.794 119.803 123.895 125.673 123.895 125.673Z" fill="#0E538C"/>
<path id="Vector_15" d="M104.675 51.463C105.893 50.0666 109.757 47.7651 114.923 47.9281C118.482 48.0403 128.174 48.6277 129.257 51.0078C129.81 52.2244 130.405 64.6841 129.594 68.9803C128.985 72.2105 127.426 80.2131 127.426 82.1445C127.426 84.0758 128.463 84.9035 127.979 85.4645C126.895 86.7206 119.478 87.2481 115.997 87.2481C112.898 87.2481 107.623 86.4221 107.355 85.4295C106.958 83.9562 107.96 84.0114 108.096 82.4669C108.232 80.9227 108.962 70.7368 108.054 69.2564C106.614 66.9067 105.184 60.7176 105.073 58.9468C104.963 57.1761 103.457 52.8592 104.675 51.463Z" fill="#2A94F4"/>
<path id="Vector_16" d="M113.792 44.2275C113.792 44.2275 113.757 48.5247 113.584 48.6982C113.555 48.7271 113.507 48.7623 113.448 48.8008C112.9 49.1574 112.653 49.8319 112.808 50.4667C113.069 51.5327 113.522 52.9017 114.103 52.7299C114.75 52.5379 117.911 50.9836 119.796 50.045C120.298 49.7948 120.481 49.2263 120.35 48.6807C120.345 48.6635 120.343 48.6461 120.343 48.6288C120.343 48.2822 121.175 41.5244 121.175 41.5244" fill="#FCD2B1"/>
<path id="Vector_17" d="M113.392 28.4346C112.613 28.9496 110.204 29.2262 109.89 30.3642C109.575 31.5021 109.774 33.9361 109.746 34.635C109.69 36.0263 109.823 37.4493 109.907 38.8369C110.016 40.6452 110.295 43.931 112.382 44.7861C112.981 45.0316 113.234 45.0952 113.848 45.0093C114.664 44.895 115.483 44.8001 116.299 44.6845C117.564 44.5053 118.97 44.3193 120.029 43.5432C121.444 42.5064 121.595 40.0418 121.514 38.4281L121.054 29.1851L113.392 28.4346Z" fill="#FFE3CA"/>
<path id="Vector_18" d="M113.265 56.6956C113.451 53.0993 101.054 38.9972 101.205 38.3851C101.356 37.7732 95.6435 19.8145 95.6435 19.8145L92.397 20.0658C92.397 20.0658 93.4585 35.2522 94.908 40.3285C95.9284 43.9019 103.882 54.4287 103.882 54.4287C103.882 54.4287 113.079 60.2917 113.265 56.6956Z" fill="#2A94F4"/>
<g id="Group_6">
<path id="Vector_19" d="M121.737 80.4862L140.435 84.0148C140.944 84.111 141.263 84.6217 141.126 85.1218L138.621 98.0509C138.499 98.4968 138.055 98.774 137.6 98.6882L118.903 95.1598C118.393 95.0636 118.074 94.553 118.212 94.0528L120.716 81.1237C120.839 80.6777 121.283 80.4005 121.737 80.4862Z" fill="#0B4870"/>
<path id="Vector_20" d="M121.958 81.4785L139.86 84.8569L137.38 97.695L119.478 94.3167L121.958 81.4785Z" fill="#F7F7F7"/>
<g id="Group_7">
<path id="Vector_21" d="M121.482 93.6445L123.438 82.7158" stroke="#D3D3D3" stroke-width="0.5282" stroke-miterlimit="10" stroke-linecap="round" stroke-linejoin="round"/>
<path id="Vector_22" d="M123.171 93.9717L125.126 83.043" stroke="#D3D3D3" stroke-width="0.5282" stroke-miterlimit="10" stroke-linecap="round" stroke-linejoin="round"/>
<path id="Vector_23" d="M125.6 94.4697L127.556 83.541" stroke="#D3D3D3" stroke-width="0.5282" stroke-miterlimit="10" stroke-linecap="round" stroke-linejoin="round"/>
<path id="Vector_24" d="M128.029 94.9666L129.985 84.0381" stroke="#D3D3D3" stroke-width="0.5282" stroke-miterlimit="10" stroke-linecap="round" stroke-linejoin="round"/>
<path id="Vector_25" d="M130.458 95.4639L132.651 84.5352" stroke="#D3D3D3" stroke-width="0.5282" stroke-miterlimit="10" stroke-linecap="round" stroke-linejoin="round"/>
<path id="Vector_26" d="M132.888 95.961L135.081 85.0322" stroke="#D3D3D3" stroke-width="0.5282" stroke-miterlimit="10" stroke-linecap="round" stroke-linejoin="round"/>
<path id="Vector_27" d="M135.318 96.4588L137.6 85.5303" stroke="#D3D3D3" stroke-width="0.5282" stroke-miterlimit="10" stroke-linecap="round" stroke-linejoin="round"/>
</g>
</g>
<g id="Group_8">
<g id="Group_9">
<path id="Vector_28" d="M131.65 89.8848C131.65 89.8848 130.911 91.3926 130.515 92.1585C130.256 92.6582 128.292 94.3302 127.505 95.6626C127.125 96.3055 126.79 97.0316 126.887 97.7722C126.984 98.5128 127.68 99.2143 128.41 99.0577C128.619 99.0131 128.857 98.9113 129.025 99.0417C129.11 99.1078 129.147 99.2164 129.2 99.3106C129.361 99.6003 129.709 99.7739 130.038 99.7286C130.367 99.6835 130.655 99.4226 130.732 99.1002C131.234 99.5693 132.108 99.5597 132.6 99.0796C132.307 98.8385 132.089 98.4661 132.149 98.0919C132.206 97.731 132.497 97.4614 132.72 97.1718C133.113 96.6617 133.323 96.0143 133.306 95.3706C133.294 94.9117 133.17 94.4632 133.12 94.007C133.016 93.0708 133.231 92.1024 133.722 91.2983" fill="#FCD2B1"/>
</g>
<path id="Vector_29" d="M126.018 59.6833C126.583 61.6971 135.189 74.9413 135.189 74.9413L130.582 91.7292L133.209 93.3725C133.209 93.3725 141.4 79.7654 141.425 75.9232C141.451 72.0808 135.433 57.9941 131.034 52.2344C129.634 50.401 126.827 49.4756 126.827 49.4756" fill="#2A94F4"/>
</g>
<g id="Group_10">
<path id="Vector_30" d="M121.905 36.6699C121.264 36.5327 120.742 36.3365 120.562 36.967C120.466 37.3013 120.478 37.7155 120.192 37.9139C119.908 38.1113 119.488 37.9355 119.304 37.6415C119.121 37.3475 119.11 36.9819 119.104 36.6357C119.091 35.8694 119.078 35.1031 119.065 34.3369C119.052 33.5865 119.015 32.7695 118.527 32.1989C118.281 31.9108 117.941 31.7167 117.591 31.5725C116.448 31.1021 115.165 31.1144 113.938 31.2583C112.711 31.4022 111.494 31.67 110.258 31.6867C109.739 31.6935 109.209 31.6535 108.728 31.4585C107.951 31.1435 107.37 30.4369 107.099 29.6436C106.827 28.8503 106.844 27.9793 107.026 27.1611C107.201 27.4067 107.404 27.6324 107.629 27.8323C107.649 27.4204 107.752 27.0127 107.932 26.6415C108.883 28.3979 116.54 25.1834 118.648 25.4013C120.109 25.5522 121.285 25.5782 121.927 27.6537C122.008 27.7758 122.151 27.8393 122.284 27.8998C123.754 28.5647 124.658 29.664 125.417 31.4888C126.345 33.7213 125.829 36.64 125.144 38.9586C124.972 39.5413 124.9 39.9384 124.556 40.4393C124.212 40.94 123.467 41.3755 122.865 41.4538C122.262 41.5324 121.161 41.9493 120.96 41.3758C120.816 40.9654 121.456 39.9378 121.591 39.5246" fill="#0B4870"/>
</g>
<g id="Group_11">
<path id="Vector_31" d="M120.56 39.512C120.56 39.512 120.594 39.9264 120.933 40.1495C121.231 40.3452 121.646 40.1661 121.907 39.9746C122.654 39.4291 122.961 38.4255 122.842 37.5334C122.7 36.482 121.842 35.6668 121.02 36.2231C120.539 36.5487 120.406 37.2593 120.594 37.8087" fill="#FFE3CA"/>
</g>
<g id="Group_12">
<path id="Vector_32" d="M118.684 90.2147L120.302 90.5978L121.471 84.5489L119.848 84.2061L118.684 90.2147Z" fill="#0B4870"/>
<path id="Vector_33" d="M117.605 88.3534C117.987 88.4254 119.459 88.7037 119.459 88.7037L120.006 85.8108L118.152 85.4605C117.353 85.3094 116.583 85.8346 116.432 86.6335C116.281 87.4323 116.806 88.2023 117.605 88.3534ZM117.744 87.7218C117.295 87.6372 117.001 87.2052 117.085 86.7569C117.17 86.3087 117.602 86.0141 118.05 86.0987C118.499 86.1833 118.793 86.6155 118.709 87.0636C118.624 87.5119 118.192 87.8066 117.744 87.7218Z" fill="#0B4870"/>
</g>
</g>
</g>
<g id="Character 2">
<g id="Group_13">
<g id="Group_14">
<path id="Vector_34" d="M85.2079 13.4979C85.3453 12.3427 82.6853 11.561 82.4185 12.516C82.3899 12.6183 82.1597 12.8996 82.0973 13.3292C82.0441 13.6956 81.8838 14.1226 81.8373 14.4911C81.7952 14.8258 81.8751 16.3924 81.0933 16.5598C79.895 16.8165 80.6545 14.7322 79.8096 14.2646C79.5444 14.1179 79.2628 15.7338 79.2427 16.6479C79.2228 17.5616 79.2178 18.0195 79.3037 18.5576C79.3786 19.096 79.6764 19.8574 79.6345 20.1835C79.5673 20.7083 78.9541 21.7865 78.9541 21.7865L81.9811 22.4753C81.9811 22.4753 82.6965 20.8121 83.0622 20.4252C83.9813 19.5087 84.5566 18.4567 84.8948 17.1842C85.1068 16.3871 85.1793 15.5551 85.2402 14.735C85.2404 14.7348 85.1937 13.617 85.2079 13.4979Z" fill="#FCD2B1"/>
<path id="Vector_35" d="M56.7461 38.794C56.7461 38.794 66.3454 38.7092 71.5566 32.8701C75.7145 27.0461 79.731 20.6028 80.0308 20.0049C80.8489 20.3175 82.6072 21.1218 82.6072 21.1218C82.6072 21.1218 77.1146 33.4082 74.9751 36.2144C72.8355 39.0205 68.6267 43.6165 59.7309 45.898C55.4695 41.0071 56.7461 38.794 56.7461 38.794Z" fill="#FCD2B1"/>
<g id="Group_15">
<g id="Group_16">
<path id="Vector_36" d="M63.0019 153.352C63.0019 153.352 63.5541 154.612 63.5264 155.458C63.4986 156.303 60.8156 156.476 60.4852 156.052C60.1551 155.628 59.8394 151.763 59.8394 151.763" fill="#FCD2B1"/>
<path id="Vector_37" d="M59.8063 156.825C59.8425 157.704 60.1461 159.126 60.1461 159.126L63.2409 158.998L63.3721 158.476C63.3721 158.476 64.3967 158.951 65.1851 158.918L67.7975 158.811C69.7098 158.732 70.7854 158.444 70.82 158.105C70.964 156.691 68.6822 156.849 68.0875 156.874C66.3794 156.944 64.4972 156.221 64.0586 155.371C63.7401 154.754 63.863 154.589 63.5145 154.721C63.5145 154.721 63.1991 154.803 63.0029 155.201C62.7018 155.812 62.1006 156.238 61.4253 156.147C61.0392 156.096 60.6485 155.965 60.3587 155.686C60.3585 155.686 59.7702 155.946 59.8063 156.825Z" fill="#0B4870"/>
</g>
<g id="Group_17">
<path id="Vector_38" d="M32.771 151.675C32.771 151.675 32.2917 153.963 31.9525 154.739C31.6136 155.514 29.0572 154.681 28.9076 154.165C28.7578 153.648 29.8966 149.941 29.8966 149.941" fill="#FCD2B1"/>
<path id="Vector_39" d="M27.9905 154.631C27.6986 155.461 27.2812 157.063 27.2812 157.063L29.6848 158.365L30.1307 157.999C30.1307 157.999 30.6826 158.817 31.4181 159.237C31.9643 159.549 33.1618 159.989 33.7801 160.103C35.9435 160.505 37.5893 160.2 37.7466 159.898C38.4045 158.638 35.5362 158.078 34.9745 157.881C33.3619 157.313 32.5719 155.806 32.4792 154.854C32.4119 154.163 32.587 154.056 32.2142 154.05C32.2142 154.05 31.891 154.009 31.5613 154.306C31.0553 154.762 30.3389 154.935 29.7451 154.601C29.4056 154.41 29.091 154.144 28.9251 153.777C28.9255 153.777 28.2824 153.801 27.9905 154.631Z" fill="#0B4870"/>
</g>
<g id="Group_18">
<g id="Group_19">
<path id="Vector_40" d="M41.1601 90.8798C41.1601 90.8798 36.5402 80.9852 43.5746 73.374C43.5746 73.374 49.9492 75.9175 54.9751 76.0493C58.9328 76.153 60.9201 75.6618 60.9201 75.6618C60.9201 75.6618 62.1102 82.9523 62.0959 94.4607L41.1601 90.8798Z" fill="#FFBE55"/>
<path id="Vector_41" d="M59.5818 154.467C59.7091 154.471 59.8361 154.466 59.9538 154.461C62.5651 154.38 64.0389 154.011 64.0389 154.011L64.0079 153.259C63.3882 141.74 64.0081 122.846 64.0349 116.882C64.0358 116.464 64.011 116.084 63.9518 115.742C63.3191 111.402 58.8382 112.158 57.109 116.241C56.7034 117.193 56.3924 118.24 56.1664 119.366C55.8864 120.72 55.7199 122.188 55.6477 123.743C55.1779 133.728 58.5055 147.069 59.5818 154.467Z" fill="#FFBE55"/>
<path id="Vector_42" d="M49.315 95.1969C49.3379 95.3138 49.3704 95.4397 49.4028 95.5654C50.6157 100.77 54.4353 114.817 56.1655 119.356L56.166 119.365C56.4192 119.999 57.2118 120.511 58.2106 120.733C60.5017 121.256 63.8476 120.274 63.9513 115.741C63.9669 115.241 63.9356 114.698 63.8661 114.111C63.4159 110.454 61.7741 90.2094 61.5304 88.2592C61.2958 86.3084 60.8248 83.4689 59.7767 83.1491C54.5462 81.5764 47.6624 87.9134 49.315 95.1969Z" fill="#FFBE55"/>
<path id="Vector_43" d="M39.9078 116.654C43.2638 113.227 48.184 114.581 46.1256 119.77C43.924 125.318 37.0466 140.752 33.4246 151.701L33.1729 152.414C33.1729 152.414 31.5274 152.199 28.8599 151.211C30.5066 144.133 31.4171 132.013 35.0925 123.443C36.2743 120.688 38.1683 118.43 39.9078 116.654Z" fill="#FFBE55"/>
<g id="Group_20">
<g id="Group_21">
<path id="Vector_44" d="M58.2458 83.5873C58.59 75.4539 48.7061 81.2528 43.9697 84.1289C41.976 85.3391 41.3222 87.6239 41.1359 89.7568C40.9481 91.8897 39.2291 113.84 38.8675 117.847C38.0517 126.88 45.6988 121.644 46.3382 119.124C47.9507 112.762 58.0583 88.0192 58.2458 83.5873Z" fill="#FFBE55"/>
</g>
</g>
</g>
</g>
</g>
<g id="Group_22">
<g id="XMLID 34">
<path id="Vector_45" d="M56.9001 32.2987C56.921 32.9111 56.9445 35.3054 55.6723 35.8771C54.3998 36.4576 53.5837 36.7012 53.6204 36.8977C53.6347 36.9868 53.7605 37.4082 53.8954 37.8212C54.1879 38.7455 54.6313 38.9751 54.6313 38.9751L54.8154 42.0403L52.5291 44.3195L51.7823 45.0621L50.6602 44.0352L47.0018 40.704C47.0018 40.704 48.5093 38.8471 47.4684 36.8571C47.3195 36.5766 45.6524 34.7309 44.3228 32.8717C43.549 31.7783 42.8902 30.6894 42.7163 29.9115C42.2392 27.7835 41.8375 25.5434 43.0591 24.2071C44.2718 22.8708 52.6486 17.3768 54.3254 23.8232C54.3256 23.8234 56.8791 31.6862 56.9001 32.2987Z" fill="#FFE3CA"/>
<path id="XMLID 35" d="M46.9912 30.4388C46.9912 30.4388 49.0032 31.1648 48.7964 28.4349C48.7852 28.2857 48.8918 28.1523 49.0496 28.1054C49.6385 27.9314 50.9375 27.243 50.276 24.6075C50.2208 24.3875 50.3818 24.1711 50.6295 24.1375C51.4839 24.0218 53.2486 23.7939 53.6403 23.8291C53.6403 23.8291 53.8341 23.8099 54.1241 23.8582C54.2185 23.8739 54.3004 23.9272 54.3433 24.0044C54.4796 24.2484 55.2598 26.7362 55.2598 26.7362C55.2598 26.7362 56.1898 26.0353 56.0902 25.5624C55.9906 25.0895 55.5522 24.0867 55.6024 23.835C55.6527 23.5831 56.3681 23.287 56.3734 22.7206C56.3851 21.4399 55.8852 16.5376 51.9957 19.5518C51.487 19.9459 51.0356 20.4201 50.5849 20.5857C49.9967 20.8018 49.3322 20.3851 48.0519 20.4753C46.2632 20.6011 38.5759 22.3986 41.0371 29.2329C43.498 36.0672 47.5482 37.0423 47.5482 37.0423C47.5482 37.0423 46.2202 31.3079 46.9912 30.4388Z" fill="#0B4870"/>
</g>
<path id="XMLID 5" d="M46.9914 30.4385C46.9914 30.4385 46.6109 29.2638 45.6281 29.6023C44.3088 30.0568 44.4277 33.3692 47.3012 32.9329C47.3012 32.933 46.9168 31.5788 46.9914 30.4385Z" fill="#FFE3CA"/>
</g>
<path id="Vector_46" d="M65.3154 82.5509C65.3154 82.5509 50.802 85.1412 37.7368 82.717C38.3704 78.6816 40.8489 67.2789 41.0167 62.676L41.0347 62.2068C41.1385 59.2679 41.1923 57.1692 41.2577 57.0832C41.3888 56.9021 40.9238 47.5236 41.6941 43.8479C41.8353 43.1707 42.0223 42.6904 42.2602 42.4956C43.7897 41.2246 45.5875 39.8929 47.5939 38.8973C47.5939 38.8973 52.269 43.9252 54.6545 38.3611C57.2793 38.1248 58.6155 38.6546 59.3749 41.281C63.5769 55.8728 65.3154 82.5509 65.3154 82.5509Z" fill="#2A94F4"/>
<path id="Vector_47" d="M56.6133 38.3961C56.6133 38.3961 60.9608 38.47 65.3957 36.5049C67.8703 39.4139 69.3664 44.7159 69.3664 44.7159C69.3664 44.7159 63.3835 48.5175 59.0101 48.883C58.072 42.5104 56.6133 38.3961 56.6133 38.3961Z" fill="#2A94F4"/>
<g id="Group_23">
<path id="Vector_48" d="M64.322 47.7033L64.8407 48.7301L63.8359 48.1695L56.0493 40.0562L56.5354 39.5898L64.322 47.7033Z" fill="#0B4870"/>
<path id="Vector_49" d="M39.3887 57.0515C39.3887 57.0515 41.4007 63.9915 46.6333 67.2589C48.1575 68.2108 50.0706 67.6786 51.2686 66.339C54.8506 62.3339 58.4317 53.3115 59.5773 49.9049C57.4772 48.7903 56.806 48.9639 56.806 48.9639C56.806 48.9639 51.7257 56.0149 48.811 60.7332L46.6341 56.9378" fill="#FCD2B1"/>
<path id="Vector_50" d="M56.6567 49.2262C56.6567 49.2262 57.5908 47.7173 57.6345 46.5742C57.6784 45.431 57.1364 43.4548 58.2474 42.4263C58.6608 42.0434 60.1076 41.4573 61.7365 41.7267C64.1595 42.1276 62.2435 46.3281 62.1331 47.2821C61.9674 48.7162 59.9677 49.3228 59.5328 50.0376C59.2233 50.5458 56.6567 49.2262 56.6567 49.2262Z" fill="#FCD2B1"/>
</g>
<g id="Group_24">
<g id="Group_25">
<path id="Vector_51" d="M43.4584 41.5371C43.4584 41.5371 38.0665 45.0682 37.8361 51.0797C37.6579 55.7278 40.7321 62.5099 40.7321 62.5099C40.7321 62.5099 46.0667 63.098 48.8667 58.7392C48.0374 56.6218 47.3116 54.7411 45.7182 52.2417" fill="#2A94F4"/>
</g>
</g>
</g>
</g>
<g id="Group_26">
<path id="Vector_52" d="M79.2323 4.69986L80.9257 22.6046C80.9717 23.0927 81.425 23.4375 81.9078 23.3519L94.2722 21.1601C94.7028 21.0839 95.0024 20.69 94.9614 20.2549L93.268 2.35019C93.2218 1.86206 92.7687 1.51734 92.2859 1.6029L79.9214 3.79452C79.4909 3.8709 79.1911 4.26461 79.2323 4.69986Z" fill="#FFBE55"/>
<path id="Vector_53" d="M80.1479 4.99361L81.7694 22.1364L94.0461 19.9601L92.4248 2.81738L80.1479 4.99361Z" fill="#F7F7F7"/>
<g id="Group_27">
<path id="Vector_54" d="M91.5695 4.40137L81.1367 6.25077" stroke="#D3D3D3" stroke-width="0.5282" stroke-miterlimit="10" stroke-linecap="round" stroke-linejoin="round"/>
<path id="Vector_55" d="M91.7305 6.01953L81.2979 7.86893" stroke="#D3D3D3" stroke-width="0.5282" stroke-miterlimit="10" stroke-linecap="round" stroke-linejoin="round"/>
<path id="Vector_56" d="M87.9951 8.63379L81.4756 9.78957" stroke="#D3D3D3" stroke-width="0.5282" stroke-miterlimit="10" stroke-linecap="round" stroke-linejoin="round"/>
<path id="Vector_57" d="M87.9792 10.0752L81.4595 11.231" stroke="#D3D3D3" stroke-width="0.5282" stroke-miterlimit="10" stroke-linecap="round" stroke-linejoin="round"/>
<path id="Vector_58" d="M87.9636 11.5166L81.4438 12.6724" stroke="#D3D3D3" stroke-width="0.5282" stroke-miterlimit="10" stroke-linecap="round" stroke-linejoin="round"/>
<path id="Vector_59" d="M92.6047 17.9248L86.085 19.0806" stroke="#D3D3D3" stroke-width="0.5282" stroke-miterlimit="10" stroke-linecap="round" stroke-linejoin="round"/>
</g>
</g>
</g>
<g id="Character 3">
<g id="Group_28">
<g id="Group_29">
<g id="Group_30">
<path id="Vector_60" d="M87.447 76.0182C88.2279 75.6505 88.8081 74.9699 89.3633 74.3093C89.911 73.6573 90.4587 73.0056 91.0064 72.3535C91.2225 72.0963 91.4488 71.8151 91.4732 71.4802C90.555 71.4055 89.9634 72.598 89.045 72.6686C89.4728 71.1569 90.087 69.6981 90.8693 68.3356C91.0603 68.0032 91.2678 67.6154 91.1324 67.2568C90.1399 67.6358 89.3042 68.3414 88.5811 69.1195C88.0731 69.6662 87.61 70.255 87.1986 70.8777C85.9867 72.7114 85.2357 74.8159 84.7246 76.9536" fill="#FCD2B1"/>
</g>
<g id="Group_31">
<path id="Vector_61" d="M83.4944 91.6836L73.6507 83.3809C73.6507 83.3809 69.0696 89.5925 70.7954 95.5851C71.644 98.532 72.7094 99.9931 73.1719 101.391C73.604 102.698 76.5669 121.188 76.3458 122.54C76.1247 123.892 74.5339 127.675 73.9268 131.652C73.1965 136.437 73.3205 152.024 72.7542 156.157C72.1879 160.29 76.0055 160.989 76.2156 159.591C78.0099 147.64 82.7493 129.017 83.4124 123.042C84.0754 117.067 83.8063 106.126 83.4944 91.6836Z" fill="#FCD2B1"/>
<path id="Vector_62" d="M76.8791 155.753C76.8791 155.753 75.9626 160.089 76.2093 160.642C76.4559 161.195 77.3426 162.801 78.2507 163.382C79.2037 163.991 81.3141 164.715 81.4831 164.979C81.6519 165.244 81.1363 164.918 80.8352 165.154C80.0578 165.765 78.5799 165.779 77.6974 165.634C74.836 165.161 75.1951 164.89 73.528 164.688C73.2401 164.653 72.7069 165.078 71.9109 164.671C71.1145 164.264 70.7279 163.528 70.7963 162.835C70.9143 161.641 71.5854 160.656 72.063 159.773C72.5407 158.889 72.8771 154.847 72.8771 154.847" fill="#FCD2B1"/>
<path id="Vector_63" d="M81.6522 165.045C81.6677 164.72 80.4257 164.228 79.8709 163.973C79.3159 163.718 78.4356 163.493 78.7458 163.66C79.0557 163.828 78.4828 164.479 77.9656 164.422C70.3916 163.586 71.7352 160.756 71.6704 160.474C71.3916 160.651 70.7429 162.052 70.6114 162.493C70.4927 162.891 70.4249 163.605 70.3928 164.034C70.2573 165.849 81.516 167.899 81.6522 165.045Z" fill="#0B4870"/>
</g>
<g id="Group_32">
<path id="Vector_64" d="M96.9366 165.895C96.725 165.661 94.4449 165.29 93.3753 164.844C92.3563 164.418 91.1218 163.049 90.8817 162.469C90.6416 161.888 90.6965 158.946 90.7273 157.711C90.9407 149.201 92.5134 128.405 92.7412 123.425C93.1371 114.769 92.013 105.835 88.6818 91.9391L76.2771 82.4219C76.2771 82.4219 72.8033 88.8784 73.9662 95.0516C74.6409 98.6331 77.6126 99.1841 78.1149 100.576C78.6173 101.968 86.1223 124.411 86.1223 124.411C86.1223 124.411 84.6621 129.263 84.5773 134.578C84.5048 139.116 86.5632 152.804 86.9451 158.018C86.99 159.037 87.1654 161.477 86.8652 162.253C86.4971 163.205 85.5592 164.322 85.6063 165.522C85.6335 166.218 85.7085 166.05 86.5876 166.323C87.4666 166.595 88.3848 166.92 88.6867 166.907C90.4356 166.835 90.9333 166.856 93.9526 166.855C94.8837 166.855 96.2202 167.521 96.9363 166.79C97.2137 166.507 97.1481 166.128 96.9366 165.895Z" fill="#FCD2B1"/>
<path id="Vector_65" d="M97.1961 166.96C97.2912 166.55 97.3393 166.03 97.1205 165.932C96.8171 165.795 95.7398 165.325 95.1309 165.163C94.522 165.001 93.5822 164.923 93.9258 165.038C94.2694 165.153 93.7716 165.918 93.2284 165.918C86.4137 165.918 86.5873 163.312 86.4806 163.044C86.2179 163.265 85.4409 164.756 85.3674 165.213C85.3012 165.626 85.2929 166.349 85.3597 166.773C85.4787 167.529 96.9122 168.185 97.1961 166.96Z" fill="#0B4870"/>
</g>
<path id="Vector_66" d="M73.9107 82.3372C73.0689 83.2615 70.0687 88.2593 70.0366 92.3274C70.0049 96.3953 71.4524 99.004 71.5823 99.8532C72.534 106.067 73.454 113.562 73.454 113.969C73.454 114.376 76.9825 116.729 81.7278 116.43C90.4954 115.878 93.9044 113.582 93.9044 113.582C93.9044 113.582 93.4893 98.5292 92.1376 91.1067C91.4601 87.3868 88.5108 81.4004 88.5108 81.4004" fill="#0E538C"/>
<path id="Vector_67" d="M65.9116 66.0827C65.9116 66.0827 67.3237 73.0971 67.6941 74.3455C68.0648 75.594 69.8968 83.5194 71.6331 83.3815C73.3696 83.2435 82.8796 75.3061 82.8796 75.3061L81.5327 72.6131L73.1615 76.6027C73.1615 76.6027 72.4052 67.5426 71.742 65.3848" fill="#FFBE9D"/>
<path id="Vector_68" d="M71.5826 56.3604C71.5826 56.3604 68.8067 56.6561 67.3992 57.7327C63.81 60.4781 66.5876 70.4434 66.5876 70.4434C66.5876 70.4434 66.4107 70.9754 68.8201 70.8402C71.2297 70.7051 73.1616 70.0197 73.1616 70.0197L72.4653 61.8541" fill="#FFBE55"/>
<g id="Group_33">
<path id="Vector_69" d="M84.8499 37.9744C86.5224 40.1427 86.1913 43.1919 85.7788 45.8988C85.5703 47.2673 85.3618 48.6361 85.1532 50.0046C85.054 50.6549 84.9221 51.3653 84.4155 51.7848C83.9043 52.2078 83.1741 52.2006 82.5111 52.1721C82.5178 53.3047 82.5246 54.4373 82.5313 55.5701C80.5932 55.6171 78.654 55.6249 76.7154 55.5933C76.7143 54.8003 76.5416 54.0079 76.2125 53.2862C75.2641 53.2677 74.6305 52.317 74.2593 51.4445C73.8311 50.438 73.5193 49.3868 73.218 48.3354C72.8183 46.9402 72.4327 45.5231 72.3962 44.0722C72.3596 42.6214 72.7049 41.1132 73.6265 39.992C74.2549 39.2274 75.1116 38.685 75.9894 38.2271C77.1917 37.5999 78.6358 37.1047 79.8757 37.654" fill="#FFE3CA"/>
</g>
<g id="Group_34">
<path id="Vector_70" d="M82.8436 48.3029C82.6146 47.164 82.6308 46.5217 83.0037 45.7634C83.1273 45.512 83.2905 45.2751 83.5132 45.1188C83.8146 44.9074 84.2152 44.8659 84.5491 45.0115C84.7671 45.1065 84.9465 45.2837 85.0698 45.4966C85.465 43.9671 85.5479 42.337 85.4337 40.7486C85.2527 38.2295 83.7338 36.2823 81.5161 35.3717C77.4098 33.6853 71.5107 35.3513 69.843 39.3808C68.5834 42.4243 69.222 46.8168 71.6331 49.3681C73.7678 51.6268 76.8383 51.9586 79.6719 51.4933C81.1218 51.2553 83.3596 51.398 84.1099 49.4267C84.1678 49.2745 84.0375 49.1229 83.8835 49.1348C83.295 49.1799 82.8859 48.5135 82.8436 48.3029Z" fill="#0B4870"/>
</g>
<g id="Group_35">
<path id="Vector_71" d="M83.1591 42.9443C83.3115 43.1834 83.2758 43.5048 83.4189 43.7495C83.6596 44.1605 83.9795 44.309 84.4115 44.5094C85.1084 44.8323 84.9452 45.8467 84.9252 46.3003C85.4509 45.9509 85.5363 44.9997 85.6633 44.5164C85.8059 43.9738 85.897 43.4171 86.055 42.8789C86.2089 42.3553 86.4752 41.8618 86.5245 41.311C86.6947 39.4076 85.5002 37.1704 84.0566 36.1021C83.0058 35.3243 81.4017 35.3565 80.2144 36.1475C79.7144 36.4807 79.3385 36.9839 79.1173 37.5422C79.0223 37.7821 78.9567 38.0613 79.0746 38.2906" fill="#0B4870"/>
</g>
<g id="Group_36">
<g id="Group_37">
<g id="Group_38">
<path id="Vector_72" d="M91.8821 53.8217L87.8889 71.3577C87.78 71.8357 88.1025 72.3049 88.588 72.3747L101.018 74.1591C101.45 74.2213 101.858 73.9408 101.956 73.5148L105.949 55.9788C106.058 55.5008 105.735 55.0316 105.25 54.962L92.8199 53.1776C92.3872 53.1154 91.9792 53.3957 91.8821 53.8217Z" fill="#0B4870"/>
<path id="Vector_73" d="M92.6593 54.3877L88.8359 71.1774L101.178 72.9491L105.001 56.1595L92.6593 54.3877Z" fill="#F7F7F7"/>
<g id="Group_39">
<path id="Vector_74" d="M103.694 57.3963L93.2061 55.8906" stroke="#D3D3D3" stroke-width="0.5282" stroke-miterlimit="10" stroke-linecap="round" stroke-linejoin="round"/>
<path id="Vector_75" d="M103.341 58.9832L92.853 57.4775" stroke="#D3D3D3" stroke-width="0.5282" stroke-miterlimit="10" stroke-linecap="round" stroke-linejoin="round"/>
<path id="Vector_76" d="M98.9745 60.2984L92.4204 59.3574" stroke="#D3D3D3" stroke-width="0.5282" stroke-miterlimit="10" stroke-linecap="round" stroke-linejoin="round"/>
<path id="Vector_77" d="M98.5087 61.6626L91.9546 60.7217" stroke="#D3D3D3" stroke-width="0.5282" stroke-miterlimit="10" stroke-linecap="round" stroke-linejoin="round"/>
<path id="Vector_78" d="M98.0429 63.0269L91.4888 62.0859" stroke="#D3D3D3" stroke-width="0.5282" stroke-miterlimit="10" stroke-linecap="round" stroke-linejoin="round"/>
<path id="Vector_79" d="M100.446 70.5648L93.8921 69.624" stroke="#D3D3D3" stroke-width="0.5282" stroke-miterlimit="10" stroke-linecap="round" stroke-linejoin="round"/>
</g>
</g>
<g id="Group_40">
<path id="Vector_80" d="M86.9893 67.6758C86.9893 67.6758 92.6698 81.4001 95.1345 81.4001C96.9273 81.4001 101.323 68.7309 101.323 68.7309L98.5458 67.4165L95.4483 72.7223L92.312 62.8262" fill="#FFE3CA"/>
</g>
<g id="Group_41">
<path id="Vector_81" d="M97.9941 68.3601C97.9941 68.3601 98.9151 66.9106 98.8476 65.8825C98.8219 65.4904 98.589 63.6246 98.7836 63.2578C98.9783 62.891 99.4452 61.6906 99.7121 61.4571C99.9789 61.2238 100.966 60.8484 101.207 61.0152C101.448 61.182 101.789 60.6692 102.149 60.4816C104.478 59.2675 106.106 64.2042 103.646 66.1607C103.202 66.5136 102.828 67.2867 102.096 67.7291C101.735 67.9475 101.538 68.329 101.193 68.9764" fill="#FFE3CA"/>
</g>
</g>
</g>
<g id="Group_42">
<g id="Group_43">
<g id="Group_44">
<path id="Vector_82" d="M89.8482 80.7078C89.5836 80.3167 88.9732 79.8491 88.7543 79.4189C88.2288 78.3863 87.7694 74.0385 87.9502 72.9277C88.1439 71.7371 89.1978 71.0966 89.6734 68.4466C90.2862 65.0329 88.8859 62.3799 88.1033 61.2435C86.997 59.6364 87.6528 59.6457 87.2744 57.677C87.2061 57.3224 87.1261 56.9439 86.8837 56.6967C86.6446 56.4528 84.9954 55.6993 84.6714 55.6494C81.596 55.1731 79.7888 55.5448 76.6799 55.6809C75.142 55.7481 73.6064 55.9277 72.0963 56.2607C70.4252 56.6292 68.9694 57.0722 68.6257 59.3395C68.0942 62.846 68.5411 66.3909 69.6074 69.7167C70.3143 71.9211 74.5341 79.5472 73.4885 81.0231C73.2495 81.3605 72.6513 82.0011 72.579 82.4219C72.3143 83.9633 75.7977 84.5052 77.2886 84.6276C79.56 84.8142 82.1664 84.6889 84.4433 84.5827C86.1683 84.5021 89.9413 83.9001 90.2094 81.7691C90.262 81.3507 90.0551 81.0135 89.8482 80.7078Z" fill="#FFBE55"/>
</g>
<g id="Group_45">
<path id="Vector_83" d="M81.7642 55.4375C83.2434 55.5144 87.5504 54.759 89.9436 57.2616C91.9486 59.3583 93.0976 64.8549 93.9045 67.0841C91.8961 69.1311 89.9609 70.7818 86.9174 70.1173C86.8027 70.0319 85.2926 65.2809 84.1933 64.8583" fill="#FFBE55"/>
</g>
</g>
</g>
</g>
<path id="Vector_84" d="M83.8834 49.1354C83.8834 49.1354 88.9847 55.6127 86.1127 62.8271C82.5991 71.6525 82.2867 72.1203 86.1127 77.3226C89.9387 82.5248 86.5443 88.9116 81.0533 90.5672C75.5622 92.2228 61.4614 91.4243 62.3139 79.0652C62.6626 74.0114 66.0618 73.2271 64.6671 68.1732C63.2725 63.1194 62.9713 59.9825 65.5624 54.58C68.1536 49.1776 65.4503 34.2817 79.3093 34.8024C79.3093 34.8022 76.7775 50.7488 83.8834 49.1354Z" fill="#0B4870"/>
</g>
</g>
</g>
<defs>
<clipPath id="clip0_1293_25332">
<rect width="164" height="168" fill="white"/>
</clipPath>
</defs>
</svg>
