<svg xmlns="http://www.w3.org/2000/svg" fill="none" viewBox="0 0 134 26">
    <path fill="#fff"
        d="M9.29 8.033c-.24-.358-.752-.546-1.264-.546-.683 0-1.469.324-1.469 1.16 0 .838.649 1.18 1.656 1.18v.682c-.12 0-.256 0-.392.017-.94.086-1.69.513-1.69 1.554 0 1.076.819 1.605 1.81 1.605.99 0 1.656-.666 1.656-1.793V9.826h1.502v.683h-.785v1.366c0 1.469-.803 2.51-2.374 2.51-1.605 0-2.63-.99-2.63-2.288 0-1.024.564-1.69 1.503-1.98-.666-.205-1.024-.752-1.024-1.452 0-1.264 1.075-1.861 2.27-1.861.82 0 1.503.256 1.862.734l-.632.495Z" />
    <path fill="#fff"
        d="M7.94 14.453c-1.587 0-2.697-.973-2.697-2.356 0-.957.478-1.64 1.366-1.981-.58-.256-.905-.769-.905-1.434 0-1.418 1.263-1.93 2.34-1.93.853 0 1.553.273 1.929.768l.034.052-.734.58-.035-.051c-.204-.307-.683-.512-1.195-.512-.53 0-1.4.239-1.4 1.093 0 .734.53 1.11 1.588 1.11h.068v.802h-.068c-.12 0-.256 0-.393.017-.751.068-1.64.376-1.64 1.486 0 .939.684 1.537 1.743 1.537.973 0 1.588-.666 1.588-1.725V9.757h1.639v.82h-.785v1.298c0 1.605-.906 2.578-2.442 2.578Zm.103-7.582c-1.024 0-2.203.479-2.203 1.793 0 .683.359 1.179.974 1.384l.205.068-.205.051c-.957.308-1.452.973-1.452 1.913 0 1.315 1.059 2.237 2.579 2.237 1.451 0 2.305-.905 2.305-2.442V10.44h.785v-.546H9.665v1.964c0 1.144-.666 1.86-1.724 1.86-1.144 0-1.879-.648-1.879-1.672 0-.94.615-1.52 1.76-1.606.119-.017.221-.017.34-.017v-.546C7.07 9.86 6.507 9.433 6.507 8.63c0-.854.769-1.23 1.537-1.23.53 0 1.025.206 1.264.513l.512-.41c-.359-.392-.99-.632-1.776-.632Z" />
    <path fill="#fff" d="M8.555 14.01h-.922v5.925h.922V14.01Z" />
    <path fill="#fff"
        d="M8.146 2.688c-3.006 0-4.68 1.383-5.55 2.527C1.554 6.581 1.179 8.221 1.179 9.28c0 2.715 1.093 4.457 2.015 5.447.341.36.7.65 1.007.905.359.29.717.581.769.786a15 15 0 0 1 .204 2.22c.018.53.24.837.427.99.342.29.769.29.905.273h1.588v-.922H6.421s-.137 0-.222-.05c-.085-.07-.085-.223-.102-.308-.018-.905-.103-1.76-.222-2.374-.103-.53-.564-.888-1.093-1.332-.29-.239-.615-.495-.922-.82-.786-.853-1.76-2.39-1.76-4.798 0-1.57 1.094-5.669 6.046-5.669 4.73 0 5.976 3.689 5.976 5.652 0 1.81-.512 3.313-1.502 4.491-.205.24-.479.478-.752.735-.632.58-1.28 1.178-1.451 1.997-.205 1.042-.137 3.381-.137 3.484v.085c0 .393-.12.564-.376.564l-3.603.017c-.102 0-.665.017-1.041.375-.222.205-.325.496-.325.82 0 .888.854 1.195 1.435 1.195h3.74c.358 0 .358.564 0 .564H6.113a1.162 1.162 0 0 0-1.179 1.212c0 .325.12.598.342.803.359.341.905.376 1.127.376h4.781v-.974H6.131c-.359 0-.359-.563 0-.563H9.99c.239 0 .649-.069.939-.342a1.16 1.16 0 0 0 .341-.836c0-.342-.119-.615-.341-.837-.41-.376-.99-.342-1.161-.342H6.114c-.359 0-.359-.563 0-.563h4.167c.238 0 .426-.103.597-.256.376-.359.324-.974.324-1.366 0-.171-.068-2.357.103-3.262.102-.53.614-.99 1.16-1.486.291-.256.581-.529.82-.82 1.145-1.331 1.742-3.056 1.742-5.088.034-2.27-1.417-6.574-6.881-6.574Zm16.029 21.721V5.503h2.824v18.905h-2.824Zm5.547-18.906h5.47c2.265 0 3.893.255 4.86.738.967.484 1.578 1.349 1.832 2.57.255 1.222.382 3.257.382 6.132 0 2.876-.127 4.936-.382 6.132-.254 1.222-.865 2.087-1.832 2.57-.967.484-2.57.738-4.86.738h-5.47V5.503Zm5.292 16.463c1.527 0 2.57-.102 3.13-.33.534-.23.89-.764 1.068-1.655.153-.89.255-2.57.255-5.012 0-2.443-.076-4.097-.255-4.987-.178-.89-.534-1.45-1.068-1.68-.535-.229-1.578-.33-3.079-.33h-2.443v14.02h2.392v-.026Zm8.88 2.443V5.503h10.89v2.443H46.72v5.7h6.946v2.442H46.72v5.878h8.04v2.442H43.894Zm24.503 0-1.425-4.784h-6.717l-1.4 4.784h-2.85l5.777-18.906h3.766l5.775 18.905h-2.926Zm-4.732-16.03h-.128l-2.595 8.829h5.292l-2.57-8.83Zm16.92 16.131c-.738.076-1.425.102-2.086.102-1.985 0-3.46-.255-4.377-.79-.916-.534-1.552-1.45-1.857-2.747-.306-1.298-.458-3.359-.458-6.132 0-2.774.152-4.81.458-6.132.305-1.323.941-2.24 1.857-2.774.916-.534 2.392-.788 4.377-.788.661 0 1.348.05 2.086.127.712.076 1.323.178 1.781.305v2.265c-1.12-.153-2.163-.255-3.155-.255-1.501 0-2.544.153-3.13.433-.585.305-.967.916-1.145 1.832-.178.916-.28 2.595-.28 4.936 0 2.34.102 4.02.28 4.936.178.916.56 1.552 1.145 1.832.585.305 1.629.433 3.13.433 1.272 0 2.366-.077 3.231-.255v2.316c-.508.203-1.12.28-1.857.356Zm13.867-.101-2.544-7.277H87.53v7.276h-2.824V5.503h7.404c1.45 0 2.545.23 3.283.713.737.483 1.221 1.12 1.45 1.934.229.814.33 1.883.33 3.18 0 1.349-.152 2.468-.483 3.384-.33.916-.992 1.578-1.984 1.96l2.799 7.71h-3.054v.024Zm-1.247-10.025c.458-.23.738-.56.891-1.018.127-.458.203-1.145.203-2.036 0-.916-.076-1.603-.203-2.035a1.492 1.492 0 0 0-.84-.993c-.432-.229-1.145-.33-2.086-.33h-3.664v6.742h3.562c.967 0 1.68-.127 2.137-.33Zm6.005 10.025V5.503h10.865v2.443h-8.041v5.7h6.947v2.442h-6.947v5.878h8.041v2.442H99.21Zm26.742 0-3.359-14.453h-.101l-3.359 14.453h-3.562l-4.148-18.906h2.876l3.129 15.343h.127l3.486-15.343h3.079l3.511 15.343h.153l3.028-15.343h2.824l-4.147 18.905h-3.537Z" />
</svg>