<svg xmlns="http://www.w3.org/2000/svg" width="6.749in" height="2.093in" viewBox="0 0 485.903 150.676"><defs><clipPath id="a"><path fill="none" d="M0 0h485.902v150.676H0z"/></clipPath></defs><g clip-path="url(#a)"><path fill="#708e41" d="M334.106 10.968V1.207a1.17 1.17 0 0 0-.352-.855A1.17 1.17 0 0 0 332.9 0h-46.489a1.17 1.17 0 0 0-.856.352 1.17 1.17 0 0 0-.352.855v68.022a1.2 1.2 0 0 0 1.208 1.208H332.9a1.2 1.2 0 0 0 1.207-1.208v-9.76a1.2 1.2 0 0 0-1.207-1.208h-33a.444.444 0 0 1-.5-.5v-16.3a.444.444 0 0 1 .5-.5h21.634a1.2 1.2 0 0 0 1.208-1.208v-9.76a1.2 1.2 0 0 0-1.208-1.208h-21.64a.444.444 0 0 1-.5-.5v-15.6a.445.445 0 0 1 .5-.5h33a1.2 1.2 0 0 0 1.207-1.207M261.557.805 246.363 24.25q-.3.6-.6 0L230.666.805a1.58 1.58 0 0 0-1.409-.8h-11.773a1.17 1.17 0 0 0-.856.352 1.17 1.17 0 0 0-.352.855v68.017a1.2 1.2 0 0 0 1.208 1.208h11.773a1.2 1.2 0 0 0 1.207-1.208V24.955q0-.402.2-.453c.2-.051.267.05.4.251l10.666 16.7a1.57 1.57 0 0 0 1.409.8h5.937a1.58 1.58 0 0 0 1.408-.8l10.667-16.7q.2-.3.4-.3.2.001.2.4v44.376a1.2 1.2 0 0 0 1.208 1.208h11.773a1.2 1.2 0 0 0 1.207-1.208V1.207a1.17 1.17 0 0 0-.352-.855 1.17 1.17 0 0 0-.848-.352h-11.773a1.58 1.58 0 0 0-1.409.805"/><path fill="#4a7ea6" d="M462.351 70.437h7.249a1.155 1.155 0 0 0 1.329-1.088L485.8 10.74a.91.91 0 0 0-.06-.967 1.11 1.11 0 0 0-.907-.363l-7.009-.121a1.243 1.243 0 0 0-1.329 1.088l-10.272 45.8q-.122.363-.241.363c-.119 0-.163-.121-.242-.363l-10.393-45.8a1.244 1.244 0 0 0-1.329-1.088H447q-1.087.002-1.087.846l.12.484 14.985 58.73a1.243 1.243 0 0 0 1.329 1.088m-40.358-6.647a9.73 9.73 0 0 1-7.492-3.142 11.8 11.8 0 0 1-2.9-8.338V27.416a12.03 12.03 0 0 1 2.9-8.4 9.65 9.65 0 0 1 7.492-3.2 9.84 9.84 0 0 1 7.553 3.2 11.9 11.9 0 0 1 2.961 8.4V52.31a11.66 11.66 0 0 1-2.961 8.338 9.92 9.92 0 0 1-7.553 3.142m0 7.613q8.7 0 13.9-5.075t5.2-13.414V26.933a18.16 18.16 0 0 0-5.2-13.414q-5.2-5.195-13.9-5.2-8.582 0-13.776 5.2t-5.2 13.414v25.981q0 8.338 5.136 13.414t13.84 5.072m-47.491-8.1a9.64 9.64 0 0 1-7.492-3.2 11.85 11.85 0 0 1-2.9-8.277V27.416a12.03 12.03 0 0 1 2.9-8.4 9.65 9.65 0 0 1 7.492-3.2 9.33 9.33 0 0 1 7.311 3.2 12.2 12.2 0 0 1 2.84 8.4v24.411a12 12 0 0 1-2.84 8.277 9.32 9.32 0 0 1-7.311 3.2M384.649 10.5v3.746q0 .363-.181.423-.182.061-.423-.3a13 13 0 0 0-5.257-4.532 15.8 15.8 0 0 0-6.828-1.51q-7.613 0-12.024 5.015t-4.41 13.474v25.5q0 8.338 4.41 13.414t12.024 5.07a15.3 15.3 0 0 0 6.828-1.571 13.4 13.4 0 0 0 5.257-4.592q.24-.24.423-.121a.41.41 0 0 1 .181.363V68.5q0 9.667-3.867 14.32t-13.535 4.411a1.067 1.067 0 0 0-1.208 1.208v5.2a1.2 1.2 0 0 0 1.208 1.329q14.017.6 20-6.1t5.982-19.637V10.5a1.07 1.07 0 0 0-1.208-1.209h-6.164a1.07 1.07 0 0 0-1.208 1.209M344.1 70.241a5.569 5.569 0 0 0 3.913-9.44 5.571 5.571 0 0 0-7.875 7.875 5.26 5.26 0 0 0 3.962 1.565"/></g><g clip-path="url(#a)"><path fill="#4a7ea6" d="M202.889 8.685q-7.977 0-11.481 9.184a.66.66 0 0 1-.423.242q-.18 0-.181-.363V10.5a1.07 1.07 0 0 0-1.204-1.211h-6.163a1.068 1.068 0 0 0-1.209 1.208v58.731a1.068 1.068 0 0 0 1.209 1.208h6.163a1.068 1.068 0 0 0 1.208-1.208V32.975a18.8 18.8 0 0 1 2.78-10.454q2.778-4.287 7.129-4.531a6.5 6.5 0 0 1 1.451-.121 8.1 8.1 0 0 1 3.625.725q1.328.363 1.45-.725l1.45-6.284a1.3 1.3 0 0 0-.6-1.571 9.8 9.8 0 0 0-5.2-1.329m-49.755 7.13a9.79 9.79 0 0 1 7.613 3.2 12.04 12.04 0 0 1 2.9 8.4v8.1a.428.428 0 0 1-.483.484h-19.823a.427.427 0 0 1-.483-.484v-8.1a12.2 12.2 0 0 1 2.84-8.4 9.46 9.46 0 0 1 7.432-3.2m18.972 26.1V26.811q0-8.215-5.136-13.353t-13.836-5.136q-8.583 0-13.716 5.136t-5.136 13.353v26.1q0 8.338 5.136 13.414t13.716 5.075q7.854 0 12.749-4.169a17.3 17.3 0 0 0 5.861-11.3 1.01 1.01 0 0 0-.242-.967 1.16 1.16 0 0 0-.846-.362l-6.042-.242a1.35 1.35 0 0 0-1.329 1.088 11.07 11.07 0 0 1-3.565 6.1 9.71 9.71 0 0 1-6.586 2.357 9.45 9.45 0 0 1-7.432-3.2 12 12 0 0 1-2.84-8.278v-8.818a.428.428 0 0 1 .483-.484H170.9a1.068 1.068 0 0 0 1.208-1.208M105.19 70.436h7.25a1.155 1.155 0 0 0 1.33-1.087l14.864-58.61a.91.91 0 0 0-.061-.967 1.12 1.12 0 0 0-.906-.362l-7.009-.121a1.24 1.24 0 0 0-1.329 1.088l-10.272 45.8q-.123.362-.242.362c-.119 0-.162-.121-.242-.362l-10.392-45.8a1.244 1.244 0 0 0-1.329-1.088h-7.009q-1.088 0-1.088.846l.121.483 14.985 58.731a1.24 1.24 0 0 0 1.329 1.087M64.981 63.79a9.72 9.72 0 0 1-7.492-3.142 11.8 11.8 0 0 1-2.9-8.338V27.416a12.03 12.03 0 0 1 2.9-8.4 9.64 9.64 0 0 1 7.492-3.2 9.84 9.84 0 0 1 7.553 3.2 11.9 11.9 0 0 1 2.961 8.4V52.31a11.66 11.66 0 0 1-2.961 8.338 9.92 9.92 0 0 1-7.553 3.142m0 7.613q8.7 0 13.9-5.075t5.2-13.414V26.932a18.16 18.16 0 0 0-5.2-13.413q-5.2-5.195-13.9-5.2-8.581 0-13.776 5.2t-5.2 13.413v25.982q0 8.338 5.135 13.414T64.981 71.4m-46.129 0q8.579 0 13.837-4.773a15.55 15.55 0 0 0 5.256-12.024v-1.33a1.07 1.07 0 0 0-1.208-1.208l-6.163-.121a1.07 1.07 0 0 0-1.209 1.209V54a9.51 9.51 0 0 1-2.96 6.949 10.23 10.23 0 0 1-7.553 2.961 9.45 9.45 0 0 1-7.432-3.2 12.18 12.18 0 0 1-2.84-8.4V27.416a12.2 12.2 0 0 1 2.84-8.4 9.46 9.46 0 0 1 7.432-3.2 10.24 10.24 0 0 1 7.553 2.96 9.52 9.52 0 0 1 2.96 6.949v.846a1.068 1.068 0 0 0 1.209 1.208l6.163-.241a1.07 1.07 0 0 0 1.208-1.209V25.12a15.65 15.65 0 0 0-2.356-8.4 17 17 0 0 0-6.707-6.1 21.2 21.2 0 0 0-10.03-2.3q-8.46 0-13.655 5.136T0 26.811v26.1q0 8.338 5.136 13.414T18.852 71.4"/><path fill="#708e41" d="M50.143 126.927c-.69.074-1.028.578-1.366 1.073a1.43 1.43 0 0 1-1.117.748.52.52 0 0 1-.568-.282 1 1 0 0 0-.239-.3.571.571 0 0 0-.987.344c-.034.173-.014.357-.041.532s-.047.387-.275.343c-.117-.023-.218-.187-.3-.305a1 1 0 0 1-.066-.311.774.774 0 0 1-.987.216c-.216-.083-.3.089-.291.289.01.158.049.315.059.473a.41.41 0 0 1-.351.475c-.534.112-1.066.229-1.6.333a.25.25 0 0 1-.187-.1.8.8 0 0 1-.093-.217c-.084-.21-.078-.509-.43-.463a.79.79 0 0 0-.782.713 6.4 6.4 0 0 1-.082.977c-.077.391-.268.438-.549.162-.112-.11-.187-.261-.306-.362a1.3 1.3 0 0 0-.339-.157 1.3 1.3 0 0 0-.095.362c0 .2.137.441.064.588a6 6 0 0 1-.7 1.028c-.1.127-.236.08-.256-.114a3 3 0 0 0-.066-.5 1.3 1.3 0 0 0-.211-.483c-.138-.164-.279-.282-.167-.531.058-.13-.026-.256-.2-.243a.78.78 0 0 1-.77-.46c-.115-.195-.252-.206-.393-.014-.319.434-.408.444-.838.08a1.7 1.7 0 0 1-.81.91c-.391.236-.554.214-.87-.139-.272-.305-.273-.306-.593-.042-.161.133-.326.262-.479.4a.864.864 0 0 0-.079 1.314 1.4 1.4 0 0 1 .273.479c.06.227-.083.339-.309.272a5 5 0 0 0-.476-.168.9.9 0 0 0-.477.021c-.145.057-.233.057-.289-.078a1.16 1.16 0 0 0-1.115-.657 1.8 1.8 0 0 1-.55-.119.5.5 0 0 1-.238-.3c-.016-.073.113-.181.182-.269s.157-.13.18-.21c.129-.451.223-.516.672-.418l.118.024c-.035-.352-.148-.439-.472-.35-.171.047-.337.113-.583.2l.127-.51a5 5 0 0 0 .193-.839 1.8 1.8 0 0 0-.158-.579l-.128-.011a2 2 0 0 0-.171.464.964.964 0 0 1-.938 1.031c-.8.115-.824.147-.541.917a1.02 1.02 0 0 1-.05.811c-.295.64-.6 1.277-.894 1.916a.6.6 0 0 1-.049.108 1.1 1.1 0 0 0-.149 1.292c.124.233-.015.452-.19.642a81 81 0 0 0-1.332 1.482.28.28 0 0 1-.482-.042.77.77 0 0 1-.058-.4c.036-.407-.028-.464-.424-.321-.149.054-.293.125-.437.191-.2.088-.3.024-.34-.182a1.5 1.5 0 0 0-.069-.349c-.035-.08-.132-.186-.2-.184a.33.33 0 0 0-.251.159c-.113.317-.19.646-.283.969-.118.407-.224.819-.369 1.216a.42.42 0 0 1-.313.2c-.066 0-.153-.155-.212-.252a5 5 0 0 0-.316-.552c-.134-.16-.264-.077-.333.1a.6.6 0 0 0-.029.116c-.109.749-.605.7-1.088.411a2 2 0 0 0-.317-.218.38.38 0 0 0-.321.023 2.4 2.4 0 0 0-.551.655 1.7 1.7 0 0 0-.047.71 5 5 0 0 1 .05.724c-.016.119-.188.262-.318.3-.077.024-.23-.111-.315-.2a1.81 1.81 0 0 1-.456-1.406.49.49 0 0 0-.126-.364c-.057-.047-.242.017-.344.076a.4.4 0 0 1-.561-.065.35.35 0 0 0-.283-.091 3.88 3.88 0 0 0-2.687 2.339.53.53 0 0 0 .09.407c.116.182.291.325.423.5a.5.5 0 0 1-.288.832 5 5 0 0 1-.47.079.854.854 0 0 0-.826 1.14 1.6 1.6 0 0 1-.956 1.745 1.37 1.37 0 0 0-.851.857c-.225.647-.418 1.305-.625 1.958a8 8 0 0 1-.274.85.468.468 0 0 1-.656.295 5 5 0 0 1-.8-.32.99.99 0 0 1-.577-.968 2.23 2.23 0 0 0-.891-1.84 2.87 2.87 0 0 1-1.138-2.24c-.127-4.577-.822-9.1-1.194-13.66-.365-4.478-.822-8.947-1.239-13.421a1.235 1.235 0 0 1 1.1-1.514.54.54 0 0 1 .623.344c.081.2.168.4.244.607.066.177.136.339.374.3.221-.039.235-.206.249-.383.03-.415.053-.832.106-1.245.071-.565.356-.731.9-.54.149.052.283.152.434.192.116.03.325.045.358-.012a.58.58 0 0 0 .041-.422c-.042-.133-.179-.234-.267-.354q-.167-.229-.321-.468a.752.752 0 0 1 .079-1.121q.344-.392.685-.787a2.3 2.3 0 0 1 1.26-.8 1.32 1.32 0 0 0 .937-1.484 1.26 1.26 0 0 1 .759-1.348.94.94 0 0 0 .575-.929.83.83 0 0 0-.135-.447 1.56 1.56 0 0 1-.082-1.716c.057-.148.143-.285.208-.43a.72.72 0 0 0-.187-.916.45.45 0 0 1-.149-.555 6 6 0 0 1 1.632-2.764 2.6 2.6 0 0 0 .782-1.815c.094-.69.2-1.379.292-2.069a3.5 3.5 0 0 1 .592-1.482q3.219-4.824 6.428-9.654a1.2 1.2 0 0 1 1.571-.535 1.17 1.17 0 0 1 .956 1.292q0 .476.018.951a1.35 1.35 0 0 0 .478 1 4.5 4.5 0 0 0 .868.622.8.8 0 0 0 .618.007 6.9 6.9 0 0 1 2.466-.65.72.72 0 0 0 .425-.23 1.25 1.25 0 0 1 1.163-.391c.1.013.2.042.293.057.522.082.587.049.778-.439a.63.63 0 0 1 .626-.418 3.1 3.1 0 0 1 2.423.876l2.781 2.786c.295.3.569.616.883.889a1.82 1.82 0 0 1 .617 1.278q.3 3.28.628 6.559.442 4.525.893 9.051v.03a5.5 5.5 0 0 0-.047 1.405 3.9 3.9 0 0 1-.058 1.383 2.5 2.5 0 0 0-.029.591.76.76 0 0 0 .908.756.5.5 0 0 1 .577.286 1.77 1.77 0 0 0 1.436.839q.577.084 1.153.162c.286.039.486.151.5.484 0 .167.068.331.087.5a.56.56 0 0 1-.275.612c-.2.113-.212.241-.1.437.167.282.3.584.444.879a2 2 0 0 1 .115 1.339 1.44 1.44 0 0 0-.012.721 4.4 4.4 0 0 0 .527 1.061.82.82 0 0 0 1.267.189 1.09 1.09 0 0 1 1.446.13 9 9 0 0 1 .969 1.2.7.7 0 0 1 .029.545.79.79 0 0 0 .175.774 1.47 1.47 0 0 1 .411.87c0 .463-.2.648-.65.542-.234-.055-.486-.178-.569.185-.079.342.087.554.464.619q.117.022.236.034c.888.083 1.2.342 1.469 1.276"/><path fill="#3d5d6f" d="M345.229 121.729v-2.521a.31.31 0 0 0-.312-.312h-12.006a.31.31 0 0 0-.312.312v17.567a.31.31 0 0 0 .312.312h12.006a.31.31 0 0 0 .312-.312v-2.52a.31.31 0 0 0-.312-.312h-8.524a.115.115 0 0 1-.13-.13V129.6a.115.115 0 0 1 .13-.13h5.587a.31.31 0 0 0 .312-.312v-2.518a.31.31 0 0 0-.312-.311h-5.587a.115.115 0 0 1-.13-.13v-4.028a.115.115 0 0 1 .13-.13h8.524a.31.31 0 0 0 .312-.312m-20.608-2.521.026 10.915q0 .103-.052.117c-.052.014-.069-.013-.1-.065l-6.7-11.071a.37.37 0 0 0-.364-.208h-2.937a.31.31 0 0 0-.311.312v17.567a.31.31 0 0 0 .311.312h3.041a.31.31 0 0 0 .312-.312l-.052-10.966q0-.104.052-.117c.052-.013.069.013.1.065l6.73 11.122a.37.37 0 0 0 .364.208h2.937a.31.31 0 0 0 .311-.312v-17.567a.31.31 0 0 0-.311-.312h-3.041a.31.31 0 0 0-.312.312m-18.268 17.879h3.041a.31.31 0 0 0 .311-.312v-17.567a.31.31 0 0 0-.311-.312h-3.041a.31.31 0 0 0-.312.312v17.567a.31.31 0 0 0 .312.312m-14.318-5.9 2.287-7.718a.12.12 0 0 1 .077-.091q.053-.012.078.091l2.339 7.718c.035.1 0 .156-.1.156h-4.573q-.132 0-.1-.156m6.834 5.9h3.3q.286 0 .286-.234a.3.3 0 0 0-.026-.13l-5.613-17.567a.33.33 0 0 0-.338-.26h-4.09a.326.326 0 0 0-.338.26l-5.613 17.567a.28.28 0 0 0 .026.273.29.29 0 0 0 .233.091h3.3a.326.326 0 0 0 .338-.26l.753-2.546q.052-.102.13-.1h6.393q.078.001.13.1l.779 2.546a.326.326 0 0 0 .338.26m-19.75-17.987-3.924 6.055c-.052.1-.1.1-.155 0l-3.9-6.055a.41.41 0 0 0-.364-.208h-3.041a.31.31 0 0 0-.312.312v17.567a.31.31 0 0 0 .312.312h3.041a.31.31 0 0 0 .312-.312v-11.43q0-.104.052-.117c.052-.013.069.013.1.065L274 129.6a.41.41 0 0 0 .364.208h1.536a.41.41 0 0 0 .364-.208l2.754-4.314q.054-.078.1-.078c.046 0 .052.035.052.1v11.46a.31.31 0 0 0 .312.312h3.041a.31.31 0 0 0 .312-.312v-17.56a.31.31 0 0 0-.312-.312h-3.041a.41.41 0 0 0-.364.208m-31.651 2.937h3.4a2.46 2.46 0 0 1 1.78.663 2.26 2.26 0 0 1 .689 1.7 2.22 2.22 0 0 1-.689 1.689 2.5 2.5 0 0 1-1.78.649h-3.4a.115.115 0 0 1-.13-.13v-4.443a.115.115 0 0 1 .13-.13m6.185 15.046h3.2q.286 0 .286-.208a.4.4 0 0 0-.052-.156l-3.534-7.354a.124.124 0 0 1 .078-.182 4.7 4.7 0 0 0 2.468-1.78 5.14 5.14 0 0 0 .884-3.027 5.9 5.9 0 0 0-.689-2.885 4.75 4.75 0 0 0-1.949-1.923 6.1 6.1 0 0 0-2.923-.676h-7.432a.31.31 0 0 0-.312.312v17.567a.31.31 0 0 0 .312.312h3.04a.31.31 0 0 0 .312-.312v-7.094a.115.115 0 0 1 .13-.13h2.417a.17.17 0 0 1 .156.1l3.248 7.2a.37.37 0 0 0 .364.234m-20.945-2.858a3.03 3.03 0 0 1-2.3-.91 3.35 3.35 0 0 1-.871-2.417v-5.717a3.4 3.4 0 0 1 .871-2.43 3.02 3.02 0 0 1 2.3-.922 3.05 3.05 0 0 1 2.326.922 3.4 3.4 0 0 1 .87 2.43v5.719a3.32 3.32 0 0 1-.883 2.417 3.08 3.08 0 0 1-2.313.91m0 3.144a7.6 7.6 0 0 0 3.6-.819 5.86 5.86 0 0 0 2.4-2.325 6.9 6.9 0 0 0 .857-3.457v-5.561a6.7 6.7 0 0 0-.857-3.4 5.9 5.9 0 0 0-2.4-2.3 8.27 8.27 0 0 0-7.172 0 5.9 5.9 0 0 0-2.4 2.3 6.67 6.67 0 0 0-.858 3.4v5.561a6.8 6.8 0 0 0 .858 3.444 5.97 5.97 0 0 0 2.4 2.325 7.4 7.4 0 0 0 3.573.832m-9.693-15.644v-2.521a.31.31 0 0 0-.312-.312h-11.98a.31.31 0 0 0-.312.312v17.567a.31.31 0 0 0 .312.312h3.04a.31.31 0 0 0 .312-.312V129.6a.115.115 0 0 1 .13-.13h5.587a.31.31 0 0 0 .312-.312v-2.518a.31.31 0 0 0-.312-.311h-5.587a.115.115 0 0 1-.13-.13v-4.028a.115.115 0 0 1 .13-.13h8.5a.31.31 0 0 0 .312-.312m-22.946 0v-2.521a.31.31 0 0 0-.312-.312h-12.012a.31.31 0 0 0-.312.312v17.567a.31.31 0 0 0 .312.312h12.006a.31.31 0 0 0 .312-.312v-2.52a.31.31 0 0 0-.312-.312h-8.524a.115.115 0 0 1-.13-.13V129.6a.115.115 0 0 1 .13-.13h5.587a.31.31 0 0 0 .312-.312v-2.518a.31.31 0 0 0-.312-.311h-5.587a.115.115 0 0 1-.13-.13v-4.028a.115.115 0 0 1 .13-.13h8.524a.31.31 0 0 0 .312-.312m-23.44 15.566a7.7 7.7 0 0 0 3.521-.767 5.5 5.5 0 0 0 2.352-2.221 6.8 6.8 0 0 0 .831-3.431v-3.43a.31.31 0 0 0-.312-.312h-6.34a.31.31 0 0 0-.312.312v2.391a.31.31 0 0 0 .312.312h2.91a.115.115 0 0 1 .13.13v1.169a2.52 2.52 0 0 1-.806 1.988 3.13 3.13 0 0 1-2.156.715 3.2 3.2 0 0 1-2.313-.871 3 3 0 0 1-.91-2.274v-6.029a3.13 3.13 0 0 1 .845-2.273 3.36 3.36 0 0 1 4.457-.052 2.72 2.72 0 0 1 .831 2.013v.078a.31.31 0 0 0 .312.312h3.04a.31.31 0 0 0 .312-.312v-.181a5.47 5.47 0 0 0-.844-2.976 5.93 5.93 0 0 0-2.365-2.118 8.26 8.26 0 0 0-7.03.013 5.73 5.73 0 0 0-2.377 2.248 6.55 6.55 0 0 0-.845 3.352v5.819a6.5 6.5 0 0 0 .845 3.34 5.82 5.82 0 0 0 2.377 2.247 7.5 7.5 0 0 0 3.535.806m-19.854-6.107 2.287-7.718a.12.12 0 0 1 .078-.091q.051-.012.078.091l2.339 7.718c.034.1 0 .156-.1.156h-4.574q-.131 0-.1-.156m6.834 5.9h3.3q.286 0 .286-.234a.3.3 0 0 0-.026-.13l-5.613-17.567a.33.33 0 0 0-.338-.26h-4.08a.326.326 0 0 0-.338.26l-5.613 17.567a.28.28 0 0 0 .026.273.29.29 0 0 0 .234.091h3.3a.326.326 0 0 0 .338-.26l.753-2.546q.052-.102.13-.1h6.393q.078.001.13.1l.78 2.546a.325.325 0 0 0 .337.26M138.2 122.041h3.4a2.46 2.46 0 0 1 1.78.663 2.26 2.26 0 0 1 .689 1.7 2.22 2.22 0 0 1-.689 1.689 2.5 2.5 0 0 1-1.78.649h-3.4a.115.115 0 0 1-.13-.13v-4.443a.115.115 0 0 1 .13-.13m6.184 15.046h3.2q.285 0 .286-.208a.4.4 0 0 0-.052-.156l-3.534-7.354a.124.124 0 0 1 .077-.182 4.7 4.7 0 0 0 2.469-1.78 5.14 5.14 0 0 0 .884-3.027 5.9 5.9 0 0 0-.689-2.885 4.75 4.75 0 0 0-1.949-1.923 6.1 6.1 0 0 0-2.923-.676h-7.433a.31.31 0 0 0-.311.312v17.567a.31.31 0 0 0 .311.312h3.041a.31.31 0 0 0 .312-.312v-7.094a.115.115 0 0 1 .13-.13h2.416a.17.17 0 0 1 .156.1l3.249 7.2a.37.37 0 0 0 .363.234m-13.824-15.358v-2.521a.31.31 0 0 0-.312-.312h-12.014a.31.31 0 0 0-.312.312v17.567a.31.31 0 0 0 .312.312h12.006a.31.31 0 0 0 .312-.312v-2.52a.31.31 0 0 0-.312-.312h-8.524a.115.115 0 0 1-.13-.13V129.6a.115.115 0 0 1 .13-.13h5.587a.31.31 0 0 0 .312-.312v-2.518a.31.31 0 0 0-.312-.311h-5.587a.115.115 0 0 1-.13-.13v-4.028a.115.115 0 0 1 .13-.13h8.524a.31.31 0 0 0 .312-.312m-25.1 15.358h3.274a.326.326 0 0 0 .338-.26l5.433-17.567a.27.27 0 0 0-.026-.26.28.28 0 0 0-.234-.1h-3.2a.34.34 0 0 0-.364.26l-3.4 12.682q-.027.078-.078.078t-.078-.078l-3.457-12.682a.34.34 0 0 0-.363-.26h-3.28q-.285 0-.285.26l.025.1 5.354 17.567a.325.325 0 0 0 .338.26m-15.41-2.858a3.03 3.03 0 0 1-2.3-.91 3.35 3.35 0 0 1-.871-2.417v-5.717a3.4 3.4 0 0 1 .871-2.43 3.02 3.02 0 0 1 2.3-.922 3.05 3.05 0 0 1 2.326.922 3.4 3.4 0 0 1 .87 2.43v5.715a3.32 3.32 0 0 1-.883 2.417 3.08 3.08 0 0 1-2.313.91m0 3.144a7.6 7.6 0 0 0 3.6-.819 5.87 5.87 0 0 0 2.4-2.325 6.9 6.9 0 0 0 .857-3.457v-5.561a6.7 6.7 0 0 0-.857-3.4 5.9 5.9 0 0 0-2.4-2.3 8.27 8.27 0 0 0-7.172 0 5.9 5.9 0 0 0-2.4 2.3 6.67 6.67 0 0 0-.858 3.4v5.561a6.8 6.8 0 0 0 .858 3.444 5.97 5.97 0 0 0 2.4 2.325 7.4 7.4 0 0 0 3.573.832m-17.177-.078a7.8 7.8 0 0 0 3.521-.754 5.64 5.64 0 0 0 2.365-2.131 5.94 5.94 0 0 0 .845-3.17.24.24 0 0 0-.091-.182.33.33 0 0 0-.221-.078l-3.041-.13c-.208 0-.312.1-.312.286a2.93 2.93 0 0 1-.844 2.183 3.03 3.03 0 0 1-2.222.832 3.06 3.06 0 0 1-2.248-.832 2.93 2.93 0 0 1-.844-2.183v-6.263a2.96 2.96 0 0 1 .844-2.208 3.06 3.06 0 0 1 2.248-.832 3.03 3.03 0 0 1 2.222.832 2.96 2.96 0 0 1 .844 2.208q0 .286.26.286h.052l3.041-.182q.312-.051.312-.286a5.9 5.9 0 0 0-.845-3.157 5.6 5.6 0 0 0-2.365-2.105 7.94 7.94 0 0 0-3.521-.74 7.75 7.75 0 0 0-3.56.779 5.6 5.6 0 0 0-2.365 2.209 6.44 6.44 0 0 0-.832 3.3v6a6.44 6.44 0 0 0 .832 3.3 5.7 5.7 0 0 0 2.365 2.221 7.64 7.64 0 0 0 3.56.793m263.886-44.067v6.99a.115.115 0 0 1-.13.13h-5.743a.115.115 0 0 1-.13-.13v-6.99a.31.31 0 0 0-.311-.312H327.4a.31.31 0 0 0-.312.312v17.567a.31.31 0 0 0 .312.312h3.041a.31.31 0 0 0 .311-.312v-7.172a.115.115 0 0 1 .13-.13h5.743a.115.115 0 0 1 .13.13v7.172a.31.31 0 0 0 .312.312h3.041a.31.31 0 0 0 .311-.312V93.222a.31.31 0 0 0-.311-.312h-3.041a.31.31 0 0 0-.312.312m-13.616-.312h-13.1a.31.31 0 0 0-.312.312v2.547a.3.3 0 0 0 .091.221.3.3 0 0 0 .221.091h4.522a.115.115 0 0 1 .13.129v14.579a.31.31 0 0 0 .312.312h3.04a.31.31 0 0 0 .312-.312V96.21a.114.114 0 0 1 .13-.129h4.652a.31.31 0 0 0 .311-.312v-2.547a.31.31 0 0 0-.311-.312m-26.248 18.19h11.98a.31.31 0 0 0 .312-.312v-2.521a.31.31 0 0 0-.312-.312h-8.5a.115.115 0 0 1-.13-.13v-14.6a.31.31 0 0 0-.311-.312h-3.041a.31.31 0 0 0-.312.312v17.567a.31.31 0 0 0 .312.312m-14.318-5.9 2.287-7.718a.12.12 0 0 1 .077-.091q.053-.013.078.091l2.339 7.718c.035.1 0 .156-.1.156h-4.573q-.132 0-.1-.156m6.834 5.9h3.3q.285 0 .285-.234a.3.3 0 0 0-.026-.13l-5.618-17.57a.33.33 0 0 0-.338-.26h-4.079a.326.326 0 0 0-.338.26l-5.613 17.567a.28.28 0 0 0 .026.273.29.29 0 0 0 .233.091h3.3a.33.33 0 0 0 .338-.26l.753-2.547q.052-.102.13-.1h6.393q.078.001.13.1l.779 2.547a.33.33 0 0 0 .338.26M274 95.743v-2.521a.31.31 0 0 0-.312-.312h-12.011a.31.31 0 0 0-.311.312v17.567a.31.31 0 0 0 .311.312h12.006a.31.31 0 0 0 .312-.312v-2.521a.31.31 0 0 0-.312-.312h-8.523a.115.115 0 0 1-.13-.13v-4.209a.115.115 0 0 1 .13-.13h5.587a.31.31 0 0 0 .312-.312v-2.521a.31.31 0 0 0-.312-.312h-5.587a.115.115 0 0 1-.13-.13v-4.028a.114.114 0 0 1 .13-.129h8.523a.31.31 0 0 0 .312-.312m-20.581-2.521v6.99a.115.115 0 0 1-.13.13h-5.743a.115.115 0 0 1-.13-.13v-6.99a.31.31 0 0 0-.312-.312h-3.04a.31.31 0 0 0-.312.312v17.567a.31.31 0 0 0 .312.312h3.04a.31.31 0 0 0 .312-.312v-7.172a.115.115 0 0 1 .13-.13h5.743a.115.115 0 0 1 .13.13v7.172a.31.31 0 0 0 .312.312h3.04a.31.31 0 0 0 .312-.312V93.222a.31.31 0 0 0-.312-.312h-3.04a.31.31 0 0 0-.312.312"/><path fill="#4a7ea6" d="M233.4 95.743v-2.521a.31.31 0 0 0-.312-.312h-12.002a.31.31 0 0 0-.311.312v17.567a.31.31 0 0 0 .311.312h12.006a.31.31 0 0 0 .312-.312v-2.521a.31.31 0 0 0-.312-.311h-8.523a.115.115 0 0 1-.13-.13v-4.21a.115.115 0 0 1 .13-.13h5.587a.31.31 0 0 0 .312-.312v-2.521a.31.31 0 0 0-.312-.311h-5.587a.115.115 0 0 1-.13-.13v-4.028a.115.115 0 0 1 .13-.13h8.523a.31.31 0 0 0 .312-.312M204.923 111.1H216.9a.31.31 0 0 0 .312-.312v-2.521a.31.31 0 0 0-.312-.311h-8.5a.115.115 0 0 1-.13-.13V93.222a.31.31 0 0 0-.312-.312h-3.04a.31.31 0 0 0-.312.312v17.567a.31.31 0 0 0 .312.312m-10.68-3.17h-3.249a.115.115 0 0 1-.13-.13v-4.314a.115.115 0 0 1 .13-.13h3.223a2.73 2.73 0 0 1 1.9.611 2.42 2.42 0 0 1 0 3.352 2.7 2.7 0 0 1-1.871.611m-3.249-11.876h3.041a2.8 2.8 0 0 1 1.9.584 2 2 0 0 1 .675 1.6 1.94 1.94 0 0 1-.675 1.559 2.85 2.85 0 0 1-1.9.572h-3.041a.115.115 0 0 1-.13-.13v-4.055a.115.115 0 0 1 .13-.13m6.991 5.561a3.85 3.85 0 0 0 2.209-3.716q0-4.989-6.159-4.99h-6.523a.31.31 0 0 0-.312.312v17.567a.31.31 0 0 0 .312.312h6.731a7.3 7.3 0 0 0 4.5-1.286 4.46 4.46 0 0 0 1.715-3.807 4.4 4.4 0 0 0-2.468-4.236q-.156-.078 0-.156m-24.794 3.584 2.287-7.718a.12.12 0 0 1 .078-.091q.051-.012.077.091l2.339 7.718c.035.1 0 .156-.1.156H173.3q-.132 0-.1-.156m6.834 5.9h3.3q.285 0 .285-.234a.3.3 0 0 0-.026-.13l-5.618-17.566a.33.33 0 0 0-.338-.26h-4.079a.326.326 0 0 0-.338.26l-5.613 17.567a.28.28 0 0 0 .026.273.29.29 0 0 0 .233.091h3.3a.326.326 0 0 0 .338-.26l.753-2.547q.052-.102.13-.1h6.393q.078.001.13.1l.779 2.547a.326.326 0 0 0 .338.26m-24.271-3.274V96.185a.115.115 0 0 1 .13-.13h3.118a2.57 2.57 0 0 1 1.988.8 3.07 3.07 0 0 1 .741 2.157v5.977a3.16 3.16 0 0 1-.767 2.157 2.5 2.5 0 0 1-1.936.806h-3.144a.115.115 0 0 1-.13-.13M152.4 111.1h6.5a7.96 7.96 0 0 0 3.417-.689 5.3 5.3 0 0 0 2.274-1.936 5.2 5.2 0 0 0 .806-2.884V98.42a5.2 5.2 0 0 0-.806-2.885 5.3 5.3 0 0 0-2.274-1.936 8 8 0 0 0-3.417-.689h-6.5a.31.31 0 0 0-.311.312v17.567a.31.31 0 0 0 .311.312m-13.768-15.046h3.4a2.46 2.46 0 0 1 1.78.662 2.26 2.26 0 0 1 .689 1.7 2.22 2.22 0 0 1-.689 1.689 2.5 2.5 0 0 1-1.78.649h-3.4a.115.115 0 0 1-.13-.13v-4.44a.115.115 0 0 1 .13-.13m6.184 15.046h3.2q.285 0 .286-.208a.4.4 0 0 0-.052-.156l-3.535-7.354a.123.123 0 0 1 .078-.182 4.7 4.7 0 0 0 2.469-1.78 5.14 5.14 0 0 0 .884-3.027 5.9 5.9 0 0 0-.689-2.885 4.74 4.74 0 0 0-1.949-1.923 6.1 6.1 0 0 0-2.923-.676h-7.433a.31.31 0 0 0-.312.312v17.567a.31.31 0 0 0 .312.312h3.041a.31.31 0 0 0 .312-.312V103.7a.115.115 0 0 1 .13-.13h2.416a.17.17 0 0 1 .156.1l3.249 7.2a.37.37 0 0 0 .363.234m-20.945-2.859a3.03 3.03 0 0 1-2.3-.909 3.35 3.35 0 0 1-.871-2.417V99.2a3.4 3.4 0 0 1 .871-2.43 3.02 3.02 0 0 1 2.3-.922 3.05 3.05 0 0 1 2.326.922 3.4 3.4 0 0 1 .871 2.43v5.717a3.32 3.32 0 0 1-.884 2.417 3.08 3.08 0 0 1-2.313.909m0 3.145a7.6 7.6 0 0 0 3.6-.819 5.86 5.86 0 0 0 2.4-2.326 6.86 6.86 0 0 0 .858-3.456v-5.562a6.67 6.67 0 0 0-.858-3.4 5.9 5.9 0 0 0-2.4-2.3 8.26 8.26 0 0 0-7.173 0 5.9 5.9 0 0 0-2.4 2.3 6.67 6.67 0 0 0-.858 3.4v5.561a6.8 6.8 0 0 0 .858 3.443 5.96 5.96 0 0 0 2.4 2.326 7.4 7.4 0 0 0 3.573.832m-9.693-15.644v-2.521a.31.31 0 0 0-.312-.312h-11.982a.31.31 0 0 0-.312.312v17.567a.31.31 0 0 0 .312.312h3.04a.31.31 0 0 0 .312-.312v-7.172a.115.115 0 0 1 .13-.13h5.587a.31.31 0 0 0 .312-.312v-2.521a.31.31 0 0 0-.312-.311h-5.587a.115.115 0 0 1-.13-.13v-4.028a.115.115 0 0 1 .13-.13h8.5a.31.31 0 0 0 .312-.312m-15.851 0v-2.521a.31.31 0 0 0-.312-.312H86.035a.31.31 0 0 0-.312.312v17.567a.31.31 0 0 0 .312.312h3.04a.31.31 0 0 0 .312-.312v-7.172a.115.115 0 0 1 .13-.13H95.1a.31.31 0 0 0 .312-.312v-2.521a.31.31 0 0 0-.312-.311h-5.583a.115.115 0 0 1-.13-.13v-4.028a.115.115 0 0 1 .13-.13h8.5a.31.31 0 0 0 .312-.312M71.717 105.2 74 97.484a.12.12 0 0 1 .078-.091q.053-.012.078.091L76.5 105.2c.035.1 0 .156-.1.156h-4.58q-.13 0-.1-.156m6.834 5.9h3.3q.286 0 .286-.234a.3.3 0 0 0-.026-.13L76.5 93.17a.33.33 0 0 0-.338-.26H72.08a.325.325 0 0 0-.337.26l-5.614 17.567a.28.28 0 0 0 .026.273.29.29 0 0 0 .234.091h3.3a.325.325 0 0 0 .337-.26l.754-2.547q.052-.102.13-.1h6.39q.078.001.13.1l.779 2.547a.326.326 0 0 0 .338.26"/></g></svg>